<?xml version="1.0" encoding="utf-8"?>
<!-- Generator: Adobe Illustrator 27.5.0, SVG Export Plug-In . SVG Version: 6.00 Build 0)  -->
<svg version="1.1" xmlns="http://www.w3.org/2000/svg" xmlns:xlink="http://www.w3.org/1999/xlink" x="0px" y="0px"
	 viewBox="0 0 500 500" style="enable-background:new 0 0 500 500;" xml:space="preserve">
<g id="BACKGROUND">
	<rect style="fill:#FFFFFF;" width="500" height="500"/>
</g>
<g id="OBJECTS">
	<g>
		<path style="fill:#CAE6FE;" d="M273.123,89.751c0,1.414-0.577,2.704-1.515,3.637c-0.927,0.939-2.217,1.516-3.631,1.516H157.833
			c-2.829,0-5.146-2.318-5.146-5.152c0-1.415,0.577-2.704,1.516-3.637c0.927-0.939,2.217-1.516,3.631-1.516h5.206
			c2.056-4.778,6.805-8.118,12.331-8.118c3.72,0,7.083,1.515,9.52,3.958c3.245-5.503,9.229-9.199,16.081-9.199
			c1.884,0,3.697,0.285,5.408,0.802c3.584-6.739,10.667-11.327,18.833-11.327c9.806,0,18.054,6.62,20.544,15.63
			c1.807-0.903,3.845-1.42,6.008-1.42c6.115,0,11.274,4.083,12.896,9.675h3.316C270.805,84.599,273.123,86.916,273.123,89.751z"/>
		<path style="fill:#CAE6FE;" d="M403.406,111.653c0,1.04-0.424,1.989-1.114,2.675c-0.682,0.69-1.63,1.114-2.67,1.114h-81
			c-2.081,0-3.785-1.705-3.785-3.789c0-1.04,0.424-1.989,1.115-2.675c0.682-0.691,1.63-1.115,2.67-1.115h3.828
			c1.512-3.514,5.004-5.97,9.068-5.97c2.736,0,5.209,1.114,7.001,2.91c2.386-4.047,6.787-6.765,11.826-6.765
			c1.385,0,2.718,0.21,3.977,0.59c2.635-4.956,7.845-8.33,13.85-8.33c7.211,0,13.277,4.869,15.108,11.494
			c1.328-0.664,2.827-1.045,4.418-1.045c4.497,0,8.291,3.002,9.484,7.115h2.439C401.702,107.864,403.406,109.569,403.406,111.653z"
			/>
		<path style="fill:#CAE6FE;" d="M459.14,266.35c-1.362,0.273-2.69,0.729-3.955,1.373l-4.204-4.666l-5.113,4.607l4.026,4.466
			c-0.935,1.225-1.662,2.559-2.182,3.959l-7.024-0.365l-0.358,6.873l6.48,0.336c0.177,1.926,0.71,3.822,1.611,5.591l-4.666,4.206
			l4.607,5.113l4.466-4.025c1.455,1.11,3.068,1.922,4.759,2.448l-0.304,5.828l6.873,0.357l0.292-5.63
			c2.023-0.294,3.999-0.995,5.807-2.096l4.024,4.466l5.113-4.607l-4.206-4.666c0.772-1.192,1.364-2.465,1.776-3.791l6.638,0.346
			l0.358-6.873l-6.441-0.334c-0.294-2.023-0.995-4-2.096-5.807l4.466-4.024l-4.607-5.113l-4.666,4.204
			c-1.431-0.925-2.979-1.606-4.591-2.015l0.335-6.439l-6.873-0.358L459.14,266.35z M466.89,277.285
			c2.329,2.584,2.12,6.58-0.464,8.909c-2.584,2.329-6.58,2.12-8.909-0.464c-2.329-2.584-2.121-6.58,0.464-8.909
			C460.565,274.493,464.561,274.701,466.89,277.285z"/>
		<path style="fill:#CAE6FE;" d="M68.581,152.65c-1.362,0.273-2.691,0.73-3.956,1.373l-4.204-4.666l-5.113,4.607l4.026,4.466
			c-0.935,1.225-1.662,2.559-2.182,3.959l-7.024-0.365l-0.359,6.873l6.48,0.336c0.177,1.926,0.71,3.822,1.611,5.591l-4.666,4.206
			l4.607,5.113l4.466-4.025c1.455,1.109,3.068,1.922,4.759,2.448l-0.303,5.828l6.873,0.357l0.292-5.63
			c2.023-0.294,3.999-0.995,5.807-2.096l4.024,4.466l5.113-4.607l-4.206-4.666c0.772-1.192,1.364-2.465,1.776-3.791l6.638,0.346
			l0.358-6.873l-6.441-0.334c-0.294-2.023-0.995-3.999-2.096-5.807l4.466-4.024l-4.607-5.113l-4.666,4.204
			c-1.431-0.925-2.979-1.606-4.591-2.015l0.335-6.439l-6.873-0.358L68.581,152.65z M76.33,163.586
			c2.329,2.584,2.12,6.58-0.464,8.909c-2.584,2.329-6.58,2.12-8.909-0.464c-2.329-2.584-2.121-6.58,0.464-8.909
			C70.005,160.794,74.001,161.002,76.33,163.586z"/>
		<path style="fill:#CAE6FE;" d="M451.738,230.179c-0.744,0.149-1.47,0.399-2.162,0.75l-2.298-2.55l-2.794,2.518l2.2,2.441
			c-0.511,0.669-0.908,1.399-1.193,2.164l-3.839-0.2l-0.196,3.756l3.541,0.184c0.097,1.053,0.388,2.089,0.88,3.055l-2.55,2.299
			l2.518,2.794l2.441-2.2c0.796,0.606,1.677,1.05,2.601,1.338l-0.166,3.185l3.756,0.195l0.16-3.077
			c1.106-0.161,2.186-0.543,3.174-1.145l2.199,2.441l2.794-2.518l-2.299-2.55c0.422-0.652,0.745-1.348,0.971-2.072l3.628,0.189
			l0.196-3.756l-3.52-0.183c-0.161-1.106-0.543-2.186-1.146-3.174l2.441-2.199l-2.518-2.794l-2.55,2.298
			c-0.782-0.506-1.628-0.878-2.509-1.101l0.183-3.519l-3.756-0.196L451.738,230.179z M455.973,236.155
			c1.272,1.412,1.159,3.596-0.253,4.869c-1.412,1.273-3.596,1.159-4.869-0.253c-1.273-1.412-1.159-3.596,0.253-4.869
			C452.516,234.629,454.7,234.743,455.973,236.155z"/>
		<path style="fill:#CAE6FE;" d="M42.46,197.86c-0.744,0.149-1.471,0.399-2.162,0.75l-2.298-2.55l-2.794,2.518l2.2,2.441
			c-0.511,0.669-0.908,1.399-1.193,2.164l-3.839-0.2l-0.196,3.756l3.541,0.184c0.097,1.053,0.388,2.089,0.88,3.055l-2.55,2.299
			l2.518,2.794l2.441-2.2c0.796,0.606,1.677,1.05,2.601,1.338l-0.166,3.185l3.756,0.195l0.16-3.077
			c1.106-0.161,2.186-0.543,3.174-1.145l2.199,2.441l2.794-2.518l-2.299-2.55c0.422-0.652,0.745-1.347,0.971-2.072l3.628,0.189
			l0.196-3.756l-3.52-0.183c-0.161-1.106-0.543-2.186-1.146-3.174l2.441-2.199l-2.518-2.794l-2.55,2.298
			c-0.782-0.506-1.628-0.878-2.509-1.101l0.183-3.519l-3.756-0.196L42.46,197.86z M46.695,203.837
			c1.273,1.412,1.159,3.596-0.253,4.869c-1.413,1.272-3.596,1.159-4.869-0.253c-1.273-1.412-1.159-3.596,0.253-4.869
			C43.239,202.311,45.423,202.424,46.695,203.837z"/>
	</g>
	<ellipse style="fill:#CAE6FE;" cx="240.29" cy="434.738" rx="219.382" ry="16.262"/>
	<g>
		<g>
			<g>
				<path style="fill:#61B3FF;" d="M452.987,189.65c3.264,0,5.92,2.656,5.92,5.92c0,3.264-2.656,5.92-5.92,5.92
					c-3.264,0-5.92-2.656-5.92-5.92C447.067,192.306,449.723,189.65,452.987,189.65z M452.987,199.633
					c2.24,0,4.063-1.822,4.063-4.063c0-2.24-1.822-4.063-4.063-4.063c-2.24,0-4.063,1.822-4.063,4.063
					C448.924,197.81,450.746,199.633,452.987,199.633z"/>
			</g>
			<g>
				<g>
					<path style="fill:#007CE6;" d="M426.909,172.364c3.264,0,5.92,2.656,5.92,5.92c0,3.264-2.656,5.92-5.92,5.92
						c-3.264,0-5.92-2.656-5.92-5.92C420.989,175.02,423.645,172.364,426.909,172.364z M426.909,182.346
						c2.24,0,4.063-1.822,4.063-4.063c0-2.24-1.822-4.063-4.063-4.063c-2.24,0-4.063,1.822-4.063,4.063
						C422.846,180.524,424.669,182.346,426.909,182.346z"/>
				</g>
			</g>
			<g>
				<g>
					<g>
						<path style="fill:#61B3FF;" d="M424.295,155.945c0.513,0,0.928,0.416,0.928,0.929v4.095c0,0.513-0.416,0.928-0.928,0.928
							s-0.929-0.416-0.929-0.928v-4.095C423.366,156.361,423.782,155.945,424.295,155.945z"/>
					</g>
					<g>
						<path style="fill:#61B3FF;" d="M424.295,148.779c0.513,0,0.928,0.416,0.928,0.928v4.095c0,0.513-0.416,0.928-0.928,0.928
							s-0.929-0.416-0.929-0.928v-4.095C423.366,149.195,423.782,148.779,424.295,148.779z"/>
					</g>
				</g>
				<g>
					<g>
						<path style="fill:#61B3FF;" d="M418.547,154.409h3.679c0.513,0,0.929,0.416,0.929,0.929c0,0.513-0.416,0.929-0.929,0.929
							h-3.679c-0.513,0-0.928-0.416-0.928-0.929C417.618,154.825,418.034,154.409,418.547,154.409z"/>
					</g>
					<g>
						<path style="fill:#61B3FF;" d="M426.364,154.409h3.678c0.513,0,0.928,0.416,0.928,0.929c0,0.513-0.416,0.929-0.928,0.929
							h-3.678c-0.513,0-0.929-0.416-0.929-0.929C425.436,154.825,425.851,154.409,426.364,154.409z"/>
					</g>
				</g>
			</g>
			<g>
				<g>
					<g>
						<g>
							<path style="fill:#61B3FF;" d="M456.362,171.403c0.513,0,0.929,0.416,0.929,0.928v4.095c0,0.513-0.416,0.928-0.929,0.928
								c-0.513,0-0.929-0.416-0.929-0.928v-4.095C455.433,171.819,455.849,171.403,456.362,171.403z"/>
						</g>
						<g>
							<path style="fill:#61B3FF;" d="M456.362,164.237c0.513,0,0.929,0.416,0.929,0.929v4.095c0,0.513-0.416,0.929-0.929,0.929
								c-0.513,0-0.929-0.416-0.929-0.929v-4.095C455.433,164.653,455.849,164.237,456.362,164.237z"/>
						</g>
					</g>
					<g>
						<g>
							<path style="fill:#61B3FF;" d="M450.614,169.867h3.679c0.513,0,0.929,0.416,0.929,0.929c0,0.513-0.416,0.929-0.929,0.929
								h-3.679c-0.513,0-0.928-0.416-0.928-0.929C449.685,170.283,450.101,169.867,450.614,169.867z"/>
						</g>
						<g>
							<path style="fill:#61B3FF;" d="M458.431,169.867h3.679c0.513,0,0.928,0.416,0.928,0.929c0,0.513-0.416,0.929-0.928,0.929
								h-3.679c-0.513,0-0.928-0.416-0.928-0.929C457.503,170.283,457.919,169.867,458.431,169.867z"/>
						</g>
					</g>
				</g>
			</g>
		</g>
		<g>
			<g>
				<g>
					<path style="fill:#61B3FF;" d="M100.952,108.231c-3.264,0-5.92-2.656-5.92-5.92c0-3.264,2.656-5.92,5.92-5.92
						s5.92,2.656,5.92,5.92C106.871,105.576,104.216,108.231,100.952,108.231z M100.952,106.374c2.24,0,4.063-1.823,4.063-4.063
						c0-2.24-1.822-4.063-4.063-4.063c-2.24,0-4.063,1.823-4.063,4.063C96.889,104.552,98.711,106.374,100.952,106.374z"/>
				</g>
			</g>
			<g>
				<g>
					<path style="fill:#007CE6;" d="M119.216,125.734c-3.264,0-5.92-2.656-5.92-5.92c0-3.264,2.656-5.92,5.92-5.92
						c3.264,0,5.92,2.656,5.92,5.92C125.136,123.078,122.48,125.734,119.216,125.734z M119.216,123.877
						c2.24,0,4.063-1.823,4.063-4.063c0-2.24-1.822-4.063-4.063-4.063c-2.24,0-4.063,1.822-4.063,4.063
						C115.153,122.054,116.976,123.877,119.216,123.877z"/>
				</g>
			</g>
			<g>
				<g>
					<g>
						<path style="fill:#61B3FF;" d="M137.833,102.871c0-0.513-0.416-0.929-0.929-0.929h-4.095c-0.513,0-0.929,0.416-0.929,0.929
							c0,0.513,0.416,0.928,0.929,0.928h4.095C137.417,103.799,137.833,103.384,137.833,102.871z"/>
					</g>
					<g>
						<path style="fill:#61B3FF;" d="M144.999,102.871c0-0.513-0.416-0.929-0.929-0.929h-4.095c-0.513,0-0.929,0.416-0.929,0.929
							c0,0.513,0.416,0.928,0.929,0.928h4.095C144.583,103.799,144.999,103.384,144.999,102.871z"/>
					</g>
				</g>
				<g>
					<g>
						<path style="fill:#61B3FF;" d="M139.368,108.619v-3.678c0-0.513-0.416-0.929-0.928-0.929c-0.513,0-0.929,0.416-0.929,0.929
							v3.678c0,0.513,0.416,0.929,0.929,0.929C138.953,109.547,139.368,109.132,139.368,108.619z"/>
					</g>
					<g>
						<path style="fill:#61B3FF;" d="M139.368,100.801v-3.678c0-0.513-0.416-0.928-0.928-0.928c-0.513,0-0.929,0.416-0.929,0.928
							v3.678c0,0.513,0.416,0.929,0.929,0.929C138.953,101.73,139.368,101.314,139.368,100.801z"/>
					</g>
				</g>
			</g>
			<g>
				<g>
					<g>
						<g>
							<path style="fill:#61B3FF;" d="M87.17,124.382c0-0.513-0.416-0.929-0.929-0.929h-4.095c-0.513,0-0.929,0.416-0.929,0.929
								c0,0.513,0.416,0.929,0.929,0.929h4.095C86.754,125.31,87.17,124.895,87.17,124.382z"/>
						</g>
						<g>
							<g>
								<path style="fill:#61B3FF;" d="M94.336,124.382c0-0.513-0.416-0.929-0.929-0.929h-4.095c-0.513,0-0.929,0.416-0.929,0.929
									c0,0.513,0.416,0.929,0.929,0.929h4.095C93.92,125.31,94.336,124.895,94.336,124.382z"/>
							</g>
						</g>
					</g>
					<g>
						<g>
							<path style="fill:#61B3FF;" d="M88.705,130.13v-3.678c0-0.513-0.416-0.929-0.929-0.929c-0.513,0-0.929,0.416-0.929,0.929
								v3.678c0,0.513,0.416,0.929,0.929,0.929C88.289,131.058,88.705,130.643,88.705,130.13z"/>
						</g>
						<g>
							<path style="fill:#61B3FF;" d="M88.705,122.312v-3.679c0-0.513-0.416-0.929-0.929-0.929c-0.513,0-0.929,0.416-0.929,0.929
								v3.679c0,0.513,0.416,0.929,0.929,0.929C88.289,123.241,88.705,122.825,88.705,122.312z"/>
						</g>
					</g>
				</g>
			</g>
		</g>
	</g>
	<g>
		<g>
			<g>
				<g>
					<path style="fill:#ABD3F2;" d="M274.967,413.579c16.88-13.065,33.742-27.71,43.767-38.722
						c13.097-14.387,20.062-26.828,20.701-36.977c0.042-0.673-0.469-1.253-1.142-1.295c-0.673-0.042-1.253,0.469-1.295,1.142
						c-1.117,17.742-23.455,43.581-64.632,74.79L274.967,413.579z"/>
				</g>
			</g>
			<path style="fill:#CAE6FE;" d="M329.341,361.059c0,0,6.783,7.622,19.718-4.828C349.059,356.231,335.366,347.508,329.341,361.059z
				"/>
			<path style="fill:#CAE6FE;" d="M323.004,367.822c0,0,7.988-6.349-3.723-19.956C319.281,347.866,309.81,361.052,323.004,367.822z"
				/>
			<path style="fill:#CAE6FE;" d="M336.649,345.287c0,0,9.647-3.322,3.143-20.055C339.792,325.232,326.467,334.506,336.649,345.287z
				"/>
			<path style="fill:#CAE6FE;" d="M310.676,381.822c0,0,3.805,9.467,20.189,2.126C330.865,383.948,320.93,371.109,310.676,381.822z"
				/>
			<path style="fill:#CAE6FE;" d="M303.178,387.735c0,0,8.965-4.872-0.216-20.299C302.962,367.436,291.354,378.785,303.178,387.735z
				"/>
			<path style="fill:#CAE6FE;" d="M293.715,396.851c0,0,3.625,9.538,20.145,2.509C313.86,399.359,304.171,386.334,293.715,396.851z"
				/>
		</g>
		<g>
			<g>
				<path style="fill:#ABD3F2;" d="M109.325,301.902c-12.143-17.554-23.793-36.609-30.022-50.136
					c-8.138-17.671-11.019-31.635-8.562-41.503c0.163-0.654,0.825-1.052,1.479-0.89c0.654,0.163,1.053,0.825,0.89,1.479
					c-4.296,17.25,9.191,48.631,39.015,90.823L109.325,301.902z"/>
			</g>
			<path style="fill:#CAE6FE;" d="M73.36,235.408c0,0-8.769,5.216-17.338-10.56C56.023,224.848,71.71,220.671,73.36,235.408z"/>
			<path style="fill:#CAE6FE;" d="M77.357,243.77c0,0-5.696-8.465,9.578-17.898C86.936,225.872,91.98,241.302,77.357,243.77z"/>
			<path style="fill:#CAE6FE;" d="M71.159,218.166c0,0-8.192-6.082,3.063-20.068C74.222,198.098,84.122,210.964,71.159,218.166z"/>
			<path style="fill:#CAE6FE;" d="M84.879,260.84c0,0-6.488,7.875-19.888-4.073C64.992,256.768,78.341,247.53,84.879,260.84z"/>
			<path style="fill:#CAE6FE;" d="M90.241,268.742c0,0-7.074-7.353,6.339-19.285C96.58,249.457,104.216,263.783,90.241,268.742z"/>
			<path style="fill:#CAE6FE;" d="M96.507,280.291c0,0-6.337,7.997-19.961-3.695C76.545,276.596,89.718,267.107,96.507,280.291z"/>
		</g>
		<g>
			<g>
				<path style="fill:#ABD3F2;" d="M340.1,125.763c-15.581-0.359-19.72,13.983-31.164,9.957
					c-11.442-4.025-22.544,0.399-23.645,11.049c-1.1,10.653-1.315,18.554-14.263,19.398c-12.947,0.842-23.365,13.491-16.153,22.154
					c1.793,2.158,3.74,4.491,5.651,6.775c0.522,0.624,1.042,1.246,1.554,1.858c0.118,0.143,0.236,0.285,0.354,0.425
					c7.687,9.19,21.12,11.309,31.063,4.625c4.025-2.706,7.029-6.527,7.168-11.914c0.44-16.869,14.146-6.317,23.663-13.381
					c10.965-8.134,5.342-19.962,14.114-25.13C350.643,144.39,355.681,126.122,340.1,125.763z"/>
				<g>
					<path style="fill:#90C3EF;" d="M328.023,142.161l-67.497,52.935c0.522,0.624,1.042,1.246,1.554,1.858l67.436-52.886
						c0.526-0.413,0.619-1.174,0.207-1.7C329.31,141.842,328.549,141.749,328.023,142.161z"/>
				</g>
			</g>
			<g>
				<path style="fill:#CAE6FE;" d="M288.673,95.779c-13.655,7.513-10.033,21.994-21.951,24.258
					c-11.916,2.264-19.295,11.664-14.901,21.427c4.398,9.765,8.179,16.706-2.595,23.937c-10.774,7.229-13.432,23.399-2.845,27.27
					c2.635,0.966,5.489,2.006,8.289,3.022c0.765,0.277,1.527,0.555,2.277,0.827c0.174,0.064,0.347,0.128,0.52,0.19
					c11.262,4.087,23.943-0.825,29.185-11.597c2.122-4.361,2.802-9.174,0.217-13.903c-8.089-14.81,9.061-12.565,13.745-23.453
					c5.398-12.54-5.404-19.945-0.412-28.819C307.143,106.593,302.328,88.265,288.673,95.779z"/>
				<g>
					<path style="fill:#ABD3F2;" d="M286.463,116.024l-31.793,79.669c0.765,0.277,1.527,0.555,2.277,0.827l31.765-79.597
						c0.248-0.621-0.054-1.326-0.675-1.574C287.416,115.101,286.71,115.403,286.463,116.024z"/>
				</g>
			</g>
		</g>
		<g>
			<g>
				<path style="fill:#ABD3F2;" d="M85.194,303.768c14.343,6.097,12.201,20.869,24.288,21.919
					c12.084,1.049,20.374,9.657,16.987,19.814c-3.389,10.159-6.451,17.446,4.998,23.553c11.449,6.104,15.726,21.923,5.583,26.843
					c-2.524,1.227-5.259,2.549-7.941,3.843c-0.733,0.353-1.463,0.706-2.182,1.052c-0.166,0.081-0.333,0.163-0.498,0.242
					c-10.792,5.203-23.904,1.596-30.207-8.592c-2.551-4.125-3.713-8.844-1.619-13.81c6.553-15.55-10.283-11.587-16.042-21.946
					c-6.636-11.931,3.363-20.389-2.499-28.713C67.91,316.392,70.85,297.672,85.194,303.768z"/>
				<g>
					<path style="fill:#90C3EF;" d="M89.436,323.687l39.672,76.053c-0.733,0.353-1.463,0.706-2.182,1.052L87.29,324.808
						c-0.309-0.593-0.08-1.325,0.513-1.634C88.395,322.865,89.127,323.094,89.436,323.687z"/>
				</g>
			</g>
			<g>
				<path style="fill:#CAE6FE;" d="M49.771,338.68c15.575,0.564,18.857,15.126,30.52,11.784c11.66-3.341,22.48,1.733,22.95,12.429
					c0.467,10.7,0.214,18.599,13.089,20.208c12.875,1.607,22.525,14.85,14.813,23.072c-1.918,2.048-3.999,4.261-6.042,6.428
					c-0.558,0.591-1.114,1.182-1.661,1.763c-0.126,0.135-0.252,0.271-0.379,0.404c-8.217,8.719-21.753,10.038-31.282,2.778
					c-3.857-2.94-6.631-6.932-6.45-12.318c0.559-16.865-13.747-7.143-22.829-14.758c-10.464-8.769-4.15-20.243-12.602-25.921
					C38.144,356.65,34.196,338.116,49.771,338.68z"/>
				<g>
					<path style="fill:#ABD3F2;" d="M60.856,355.765l64.245,56.837c-0.558,0.591-1.114,1.182-1.661,1.763l-64.187-56.785
						c-0.5-0.443-0.549-1.208-0.105-1.709C59.59,355.369,60.356,355.322,60.856,355.765z"/>
				</g>
			</g>
		</g>
		<g>
			<g>
				<path style="fill:#ABD3F2;" d="M422.872,432.81c2.446-11.188,14.572-3.033,23.232-9.46c10.965-8.134,5.342-19.962,14.114-25.13
					c12.2-7.19,17.239-25.458,1.657-25.817c-15.581-0.359-19.72,13.983-31.164,9.957c-11.442-4.025-22.543,0.399-23.645,11.049
					c-1.1,10.653-1.315,18.554-14.263,19.398c-11.91,0.774-21.678,11.539-17.553,20.003H422.872z"/>
				<g>
					<g>
						<path style="fill:#90C3EF;" d="M397.608,432.81l53.685-42.102c0.526-0.413,0.619-1.174,0.206-1.7
							c-0.413-0.526-1.174-0.619-1.7-0.206l-56.115,44.008H397.608z"/>
					</g>
				</g>
			</g>
			<g>
				<path style="fill:#CAE6FE;" d="M407.878,432.81c0.191-0.347,0.376-0.699,0.551-1.058c2.122-4.361,2.802-9.174,0.217-13.903
					c-8.089-14.809,9.061-12.565,13.745-23.453c5.398-12.54-5.404-19.945-0.412-28.819c6.941-12.344,2.125-30.672-11.529-23.159
					c-13.655,7.513-10.033,21.994-21.951,24.258c-11.916,2.264-19.295,11.664-14.901,21.428c4.398,9.765,8.179,16.705-2.595,23.937
					c-7.439,4.991-11.006,14.244-9.018,20.769H407.878z"/>
				<g>
					<path style="fill:#ABD3F2;" d="M382.853,432.81l27.635-69.247c0.248-0.621-0.054-1.326-0.675-1.574
						c-0.621-0.248-1.326,0.054-1.574,0.675l-27.993,70.146H382.853z"/>
				</g>
			</g>
		</g>
	</g>
	<g>
		<g>
			<path style="fill:#18184B;" d="M285.539,434.505H111.476c-3.581,0-6.484-2.903-6.484-6.484V173.987
				c0-3.581,2.903-6.484,6.484-6.484h174.064c3.581,0,6.484,2.903,6.484,6.484v254.034
				C292.024,431.602,289.12,434.505,285.539,434.505z"/>
		</g>
		<g>
			<path style="fill:#304E7E;" d="M272.158,419.024h-147.3c-3.581,0-6.484-2.903-6.484-6.484V151.045
				c0-3.581,2.903-6.484,6.484-6.484h147.3c3.581,0,6.484,2.903,6.484,6.484V412.54
				C278.642,416.121,275.739,419.024,272.158,419.024z"/>
		</g>
		<g>
			<path style="fill:#18184B;" d="M139.074,144.561L139.074,144.561H257.94l0,0c0-2.182-1.769-3.952-3.952-3.952H143.026
				C140.844,140.609,139.074,142.379,139.074,144.561z"/>
		</g>
		<g>
			<path style="fill:#18184B;" d="M252.313,408.064H144.701c-0.673,0-1.219-0.546-1.219-1.219v-1.411
				c0-0.673,0.546-1.219,1.219-1.219h107.612c0.673,0,1.219,0.546,1.219,1.219v1.411
				C253.532,407.518,252.986,408.064,252.313,408.064z"/>
		</g>
		<g>
			<g>
				<path style="fill:#CAE6FE;" d="M262.286,172.777v68.026c0,2.982-2.417,5.398-5.398,5.398h-116.76
					c-0.591,0-1.156-0.093-1.688-0.268c-2.157-0.71-3.711-2.74-3.711-5.131v-68.026c0-2.978,2.417-5.395,5.398-5.395h116.76
					C259.869,167.382,262.286,169.799,262.286,172.777z"/>
				<path style="opacity:0.4;fill:#FFFFFF;" d="M251.288,167.382l-78.815,78.819h-32.346c-0.591,0-1.156-0.093-1.688-0.268
					l78.547-78.551H251.288z"/>
				<polygon style="opacity:0.4;fill:#FFFFFF;" points="184.207,167.382 134.729,216.856 134.729,205.572 172.919,167.382 				"/>
				<polygon style="opacity:0.4;fill:#FFFFFF;" points="262.286,196.82 262.286,208.104 224.189,246.201 212.905,246.201 				"/>
			</g>
			<g>
				<path style="fill:#CAE6FE;" d="M165.161,264.901h-25.757c-2.722,0-4.929-2.207-4.929-4.929l0,0c0-2.722,2.207-4.929,4.929-4.929
					h25.757c2.722,0,4.929,2.207,4.929,4.929l0,0C170.09,262.694,167.883,264.901,165.161,264.901z"/>
				<path style="fill:#CAE6FE;" d="M211.386,264.901h-25.757c-2.722,0-4.929-2.207-4.929-4.929l0,0c0-2.722,2.207-4.929,4.929-4.929
					h25.757c2.722,0,4.929,2.207,4.929,4.929l0,0C216.315,262.694,214.108,264.901,211.386,264.901z"/>
				<path style="fill:#CAE6FE;" d="M257.611,264.901h-25.757c-2.722,0-4.929-2.207-4.929-4.929l0,0c0-2.722,2.207-4.929,4.929-4.929
					h25.757c2.722,0,4.929,2.207,4.929,4.929l0,0C262.54,262.694,260.333,264.901,257.611,264.901z"/>
			</g>
			<g>
				<g>
					<path style="fill:#CAE6FE;" d="M167.015,296.143h-30.953c-1.527,0-2.764-1.368-2.764-3.056v-14.879
						c0-1.688,1.238-3.056,2.764-3.056h30.953c1.527,0,2.765,1.368,2.765,3.056v14.879
						C169.78,294.775,168.542,296.143,167.015,296.143z"/>
					<path style="fill:#CAE6FE;" d="M213.984,296.143h-30.953c-1.527,0-2.765-1.368-2.765-3.056v-14.879
						c0-1.688,1.238-3.056,2.765-3.056h30.953c1.527,0,2.765,1.368,2.765,3.056v14.879
						C216.748,294.775,215.511,296.143,213.984,296.143z"/>
					<path style="fill:#CAE6FE;" d="M260.952,296.143h-30.953c-1.527,0-2.764-1.368-2.764-3.056v-14.879
						c0-1.688,1.238-3.056,2.764-3.056h30.953c1.527,0,2.765,1.368,2.765,3.056v14.879
						C263.717,294.775,262.479,296.143,260.952,296.143z"/>
				</g>
				<g>
					<path style="fill:#CAE6FE;" d="M167.015,329.136h-30.953c-1.527,0-2.764-1.368-2.764-3.056v-14.879
						c0-1.688,1.238-3.056,2.764-3.056h30.953c1.527,0,2.765,1.368,2.765,3.056v14.879
						C169.78,327.768,168.542,329.136,167.015,329.136z"/>
					<path style="fill:#CAE6FE;" d="M213.984,329.136h-30.953c-1.527,0-2.765-1.368-2.765-3.056v-14.879
						c0-1.688,1.238-3.056,2.765-3.056h30.953c1.527,0,2.765,1.368,2.765,3.056v14.879
						C216.748,327.768,215.511,329.136,213.984,329.136z"/>
					<path style="fill:#CAE6FE;" d="M260.952,329.136h-30.953c-1.527,0-2.764-1.368-2.764-3.056v-14.879
						c0-1.688,1.238-3.056,2.764-3.056h30.953c1.527,0,2.765,1.368,2.765,3.056v14.879
						C263.717,327.768,262.479,329.136,260.952,329.136z"/>
				</g>
				<g>
					<path style="fill:#CAE6FE;" d="M167.015,362.129h-30.953c-1.527,0-2.764-1.368-2.764-3.056v-14.879
						c0-1.688,1.238-3.056,2.764-3.056h30.953c1.527,0,2.765,1.368,2.765,3.056v14.879
						C169.78,360.761,168.542,362.129,167.015,362.129z"/>
					<path style="fill:#CAE6FE;" d="M213.984,362.129h-30.953c-1.527,0-2.765-1.368-2.765-3.056v-14.879
						c0-1.688,1.238-3.056,2.765-3.056h30.953c1.527,0,2.765,1.368,2.765,3.056v14.879
						C216.748,360.761,215.511,362.129,213.984,362.129z"/>
					<path style="fill:#CAE6FE;" d="M260.952,362.129h-30.953c-1.527,0-2.764-1.368-2.764-3.056v-14.879
						c0-1.688,1.238-3.056,2.764-3.056h30.953c1.527,0,2.765,1.368,2.765,3.056v14.879
						C263.717,360.761,262.479,362.129,260.952,362.129z"/>
				</g>
				<g>
					<path style="fill:#007CE6;" d="M167.015,394.475h-30.953c-1.527,0-2.764-1.368-2.764-3.056v-14.879
						c0-1.688,1.238-3.056,2.764-3.056h30.953c1.527,0,2.765,1.368,2.765,3.056v14.879
						C169.78,393.107,168.542,394.475,167.015,394.475z"/>
					<path style="fill:#61B3FF;" d="M213.984,394.475h-30.953c-1.527,0-2.765-1.368-2.765-3.056v-14.879
						c0-1.688,1.238-3.056,2.765-3.056h30.953c1.527,0,2.765,1.368,2.765,3.056v14.879
						C216.748,393.107,215.511,394.475,213.984,394.475z"/>
					<path style="fill:#009EF3;" d="M260.952,394.475h-30.953c-1.527,0-2.764-1.368-2.764-3.056v-14.879
						c0-1.688,1.238-3.056,2.764-3.056h30.953c1.527,0,2.765,1.368,2.765,3.056v14.879
						C263.717,393.107,262.479,394.475,260.952,394.475z"/>
				</g>
			</g>
		</g>
	</g>
	<g>
		<g>
			<g>
				<g>
					<path style="fill:#FDA893;" d="M420.727,400.341l6.609,8.914c0,0-1.333,3.887-6.445,6.788l-7.914-10.264L420.727,400.341z"/>
					<g>
						<g>
							<path style="fill:#007CE6;" d="M422.084,413.357c0,0-3.171-0.733-4.285,0.301c-1.114,1.034-4.18,15.379-6.812,18.473
								c-2.632,3.094-0.093,4.827,1.467,5.502c1.561,0.675,24.632-20.49,24.632-20.49s-5.41-7.54-8.069-9.042
								C426.359,406.599,424.975,411.897,422.084,413.357z"/>
						</g>
						<g>
							<g>
								<path style="fill:#FFFFFF;" d="M421.374,421.32c0.139-0.055,0.255-0.161,0.314-0.306c0.114-0.281-0.03-0.599-0.323-0.709
									c-0.098-0.037-2.419-0.901-4.247-0.523c-2.433,0.501-2.99,2.487-3.013,2.571c-0.078,0.292,0.105,0.591,0.41,0.667
									c0.304,0.076,0.615-0.1,0.693-0.393c0.015-0.054,0.42-1.416,2.152-1.775c1.49-0.308,3.57,0.464,3.591,0.472
									C421.093,421.376,421.244,421.371,421.374,421.32z"/>
							</g>
							<g>
								<path style="fill:#FFFFFF;" d="M421.685,419.097c0.139-0.054,0.255-0.161,0.314-0.306c0.114-0.281-0.03-0.599-0.323-0.71
									c-0.098-0.037-2.419-0.902-4.247-0.523c-2.435,0.501-2.991,2.487-3.013,2.571c-0.079,0.292,0.105,0.591,0.409,0.667
									c0.304,0.076,0.615-0.1,0.693-0.393c0.016-0.054,0.421-1.417,2.152-1.776c1.496-0.309,3.57,0.465,3.591,0.472
									C421.404,419.153,421.554,419.148,421.685,419.097z"/>
							</g>
							<g>
								<path style="fill:#FFFFFF;" d="M420.405,423.682c0.139-0.055,0.255-0.161,0.314-0.306c0.114-0.281-0.03-0.599-0.323-0.71
									c-0.098-0.037-2.419-0.901-4.247-0.523c-2.435,0.501-2.991,2.487-3.013,2.572c-0.078,0.292,0.105,0.591,0.41,0.667
									c0.304,0.076,0.615-0.1,0.693-0.393c0.016-0.054,0.421-1.417,2.152-1.775c1.496-0.309,3.57,0.464,3.591,0.472
									C420.124,423.738,420.275,423.733,420.405,423.682z"/>
							</g>
						</g>
					</g>
				</g>
				<g>
					<path style="fill:#16162F;" d="M380.419,280.435l4.809,58.527c0,0,7.841,9.794,13.478,20.643
						c4.731,9.106,25.013,41.739,25.013,41.739l-10.245,7.993l-51.105-60.074l-10.002-70.067L380.419,280.435z"/>
				</g>
			</g>
			<g>
				<g>
					<path style="fill:#FDA893;" d="M367.173,415.226l-0.802,11.348c0,0-3.604,2.269-9.473,1.347l0.689-13.26L367.173,415.226z"/>
					<g>
						<g>
							<path style="fill:#007CE6;" d="M358.929,426.286c0,0-2.049-2.717-3.662-2.591c-1.613,0.126-14.004,10.099-18.264,10.942
								c-4.26,0.843-3.414,3.978-2.622,5.579c0.792,1.6,33.873-0.001,33.873-0.001s1.002-10.71-0.102-13.729
								C367.048,423.467,362.269,426.983,358.929,426.286z"/>
						</g>
						<g>
							<g>
								<path style="fill:#FFFFFF;" d="M352.611,432.237c0.142,0.049,0.303,0.042,0.447-0.032c0.28-0.144,0.389-0.487,0.246-0.766
									c-0.048-0.094-1.197-2.299-2.831-3.211c-2.172-1.215-3.957-0.033-4.032,0.018c-0.26,0.176-0.328,0.53-0.151,0.791
									c0.176,0.26,0.531,0.328,0.791,0.151c0.049-0.032,1.29-0.827,2.838,0.035c1.331,0.743,2.363,2.718,2.373,2.738
									C352.361,432.096,352.478,432.191,352.611,432.237z"/>
							</g>
							<g>
								<path style="fill:#FFFFFF;" d="M354.374,430.708c0.142,0.049,0.303,0.042,0.447-0.032c0.279-0.144,0.389-0.487,0.246-0.767
									c-0.048-0.094-1.197-2.3-2.831-3.211c-2.175-1.216-3.957-0.034-4.032,0.018c-0.26,0.176-0.328,0.53-0.151,0.791
									c0.176,0.26,0.531,0.328,0.791,0.151c0.049-0.032,1.291-0.828,2.838,0.035c1.336,0.746,2.363,2.718,2.373,2.738
									C354.124,430.566,354.24,430.661,354.374,430.708z"/>
							</g>
							<g>
								<path style="fill:#FFFFFF;" d="M350.258,433.44c0.142,0.049,0.303,0.043,0.447-0.032c0.279-0.144,0.389-0.487,0.246-0.767
									c-0.048-0.093-1.197-2.299-2.831-3.211c-2.174-1.216-3.957-0.033-4.033,0.018c-0.26,0.177-0.327,0.531-0.151,0.791
									c0.176,0.26,0.531,0.328,0.791,0.151c0.049-0.032,1.291-0.828,2.838,0.035c1.337,0.746,2.363,2.718,2.373,2.738
									C350.008,433.298,350.125,433.394,350.258,433.44z"/>
							</g>
						</g>
					</g>
				</g>
				<g>
					<g>
						<path style="fill:#2A3554;" d="M412.322,282.853c0,0-13.265,43.34-29.759,66.506c0,0-2.91,22.843-7.255,34.944
							c-1.908,5.293-7.16,36.968-7.16,36.968l-1.956-0.327l-1.159-0.203l-8.677-1.457l5.647-75.546l20.543-59.288l24.797-1.336
							l1.318-0.064L412.322,282.853z"/>
					</g>
					<g>
						<path style="fill:#16162F;" d="M408.662,283.051l-28.673,66.284c-0.014,0.082-4.472,18.152-7.043,30.87
							c-2.305,11.314-5.731,31.03-6.753,40.739l-1.159-0.203c1.036-9.803,4.396-29.191,6.753-40.774
							c2.584-12.729,7.054-30.823,7.094-31.01l28.463-65.842L408.662,283.051z"/>
					</g>
				</g>
			</g>
			<g>
				<path style="fill:#009EF3;" d="M346.793,183.792l-13.274,26.214l14.035-1.22C347.554,208.786,348.892,192.92,346.793,183.792z"
					/>
				<g>
					<g>
						<g>
							<path style="fill:#61B3FF;" d="M413.58,284.35c-6.99,2.56-14.04,4.44-21.15,5.64c-0.33,0.05-0.65,0.11-0.97,0.16
								c-0.17,0.03-0.35,0.05-0.52,0.08c-0.38,0.06-0.77,0.12-1.14,0.17c-0.43,0.06-0.85,0.12-1.28,0.18
								c-4.85,0.65-9.73,0.98-14.64,1.01c-1,0-1.98-0.01-2.98-0.03h-0.19c-0.25-0.01-0.5-0.01-0.76-0.02
								c-0.15-0.01-0.3-0.01-0.45-0.02c-5.73-0.18-11.5-0.8-17.3-1.83c-0.13-1.28-0.3-3.18-0.51-5.57
								c-0.04-0.45-0.08-0.91-0.11-1.39c-0.3-3.42-0.65-7.69-1.03-12.51c-0.03-0.41-0.06-0.83-0.1-1.25
								c-0.25-3.21-0.52-6.64-0.78-10.23c-0.03-0.42-0.07-0.83-0.1-1.25c-0.27-3.68-0.55-7.5-0.82-11.38
								c-0.17-2.37-0.33-4.76-0.49-7.15c-0.16-2.43-0.32-4.86-0.47-7.27c-0.03-0.53-0.07-1.05-0.1-1.58
								c-1.42-22.83-2.28-43.85-0.9-46.32c0.96-1.71,3.32-3.83,6.12-6c0.35-0.27,0.69-0.53,1.05-0.8c1.2-0.9,11.21-5.3,12.46-6.19
								l10.84-1.71c0.07,0.04,10.8,2.65,10.88,2.68c0.47,0.22,0.94,0.43,1.41,0.66c4.06,1.89,8.07,3.9,10.45,5.74
								c0.34,0.26,0.65,0.52,0.92,0.78c0.22,0.21,0.41,0.41,0.57,0.61c0.14,0.18,0.3,0.49,0.46,0.93c1.74,4.68,4.07,23.46,6.2,43.94
								c0.05,0.49,0.09,0.98,0.15,1.47c0.05,0.49,0.1,0.98,0.15,1.47c0.05,0.5,0.1,0.99,0.15,1.48c0.06,0.65,0.13,1.3,0.2,1.96
								c0.04,0.44,0.09,0.9,0.13,1.34c0.02,0.23,0.04,0.45,0.07,0.67c0.02,0.16,0.03,0.33,0.05,0.49c0.09,0.95,0.18,1.9,0.27,2.85
								c0.09,0.82,0.17,1.63,0.25,2.45c0.77,8.05,1.49,15.92,2.1,22.87c0.18,1.97,0.35,3.86,0.5,5.66c0.03,0.41,0.07,0.83,0.1,1.23
								C412.9,275.78,413.37,281.53,413.58,284.35z"/>
						</g>
					</g>
				</g>
				<path style="fill:#009EF3;" d="M411.67,261.48c-9.07,13.1-20.46,22.5-20.46,22.5l-2.627-18.823
					c3.667-7.407,12.18-23.477,19.717-39.257c0.05,0.49,0.1,0.98,0.15,1.47c0.05,0.5,0.1,0.99,0.15,1.48
					c0.06,0.65,0.13,1.3,0.2,1.96c0.04,0.44,0.09,0.9,0.13,1.34c0.02,0.23,0.04,0.45,0.07,0.67c0.02,0.16,0.03,0.33,0.05,0.49
					c0.09,0.95,0.18,1.9,0.27,2.85c0.09,0.82,0.17,1.63,0.25,2.45C410.34,246.66,411.06,254.53,411.67,261.48z"/>
				<path style="fill:#009EF3;" d="M364.843,202.995l-12.557,0.36c0,0,0.851,15.206,7.46,14.162
					C366.355,216.472,364.843,202.995,364.843,202.995z"/>
				<g>
					<path style="fill:#009EF3;" d="M398.969,267.617c-0.001,0-0.002,0-0.002,0c-11.786,0.972-22.308-3.515-29.059-7.451
						c-7.301-4.256-11.898-8.813-11.944-8.858c-0.222-0.222-0.222-0.582,0-0.804c0.222-0.222,0.582-0.223,0.805-0.001
						c0.045,0.045,4.557,4.514,11.74,8.696c6.604,3.846,16.886,8.23,28.365,7.284c0.313-0.026,0.588,0.207,0.614,0.52
						C399.513,267.316,399.281,267.59,398.969,267.617z"/>
				</g>
				<g>
					<path style="fill:#009EF3;" d="M387.039,272.688c-10.223,0.888-20.924-4.052-21.411-4.279
						c-0.284-0.133-0.407-0.472-0.274-0.757c0.133-0.285,0.472-0.407,0.757-0.274c0.126,0.059,12.717,5.867,23.257,3.842
						c0.313-0.063,0.607,0.143,0.666,0.451c0.059,0.309-0.143,0.607-0.451,0.666C388.742,272.499,387.892,272.613,387.039,272.688z"
						/>
				</g>
				<g>
					<polygon style="fill:#FFFFFF;" points="368.81,255.592 375.622,271.692 381.818,256.212 374.404,191.607 374.123,189.174 
						371.175,189.017 371.058,192.339 					"/>
					<polygon style="fill:#EDEDED;" points="371.058,192.339 372.609,193.96 374.404,191.607 374.123,189.174 371.175,189.017 					
						"/>
					<polygon style="fill:#FFFFFF;" points="377.557,185.406 372.334,191.49 368.04,184.911 371.187,178.29 					"/>
				</g>
				<path style="fill:#009EF3;" d="M378.831,168.344l1.744,1.027c0.479,0.282,0.949,0.581,1.396,0.912
					c1.347,0.997,1.858,1.721,1.7,3.699c-0.024,0.305-0.067,0.572-0.122,0.785l0,0l-1.818,15.303l-10.544-11.78
					C371.187,178.29,377.832,175.254,378.831,168.344z"/>
				<path style="fill:#009EF3;" d="M366.421,170.033c0,0-3.977,4.479-2.278,9.263l2.697,8.141l4.347-9.146
					C371.187,178.29,367.338,176.388,366.421,170.033z"/>
			</g>
			<g>
				<path style="fill:#1D3062;" d="M386.16,140.194c0.823,9.471-4.441,16.505-13.912,17.328s-16.682-5.621-17.505-15.093
					c-0.823-9.471,4.162-17.134,13.633-17.957C379.735,123.485,385.337,130.722,386.16,140.194z"/>
				<path style="fill:#1D3062;" d="M385.575,145.949c0,0,1.862-2.67,1.037-9.039c-0.825-6.369-3.135-7.998-3.135-7.998
					s2.294-4.809-0.313-5.939c-2.607-1.129-4.643,0.403-4.643,0.403s1.571-2.984-0.281-3.23c-1.852-0.246-4.321,1.663-4.321,1.663
					s-13.349-3.721-17.14-0.544c-3.792,3.177-0.366,11.359,0.782,12.211L385.575,145.949z"/>
				<g>
					<path style="fill:#FB876B;" d="M384.386,144.456c0,0,2.327-3.737,4.535-1.006c2.209,2.731,0.187,11.541-4.785,9.866
						L384.386,144.456z"/>
					<g>
						<path style="fill:#D45C48;" d="M384.953,150.577c0.177-0.015,0.329-0.146,0.364-0.33c0.513-2.71,3.16-4.021,3.187-4.034
							c0.202-0.098,0.286-0.341,0.189-0.542c-0.097-0.202-0.34-0.287-0.542-0.19c-0.124,0.06-3.043,1.494-3.633,4.615
							c-0.042,0.22,0.103,0.433,0.324,0.475C384.879,150.578,384.916,150.58,384.953,150.577z"/>
					</g>
					<g>
						<path style="fill:#D45C48;" d="M387.603,149.004c0.075-0.007,0.149-0.034,0.213-0.083c0.177-0.137,0.21-0.393,0.072-0.57
							c-0.023-0.03-0.572-0.727-1.626-1.093c-0.211-0.074-0.443,0.038-0.517,0.25c-0.073,0.212,0.039,0.444,0.251,0.517
							c0.815,0.283,1.246,0.817,1.249,0.823C387.334,148.961,387.47,149.015,387.603,149.004z"/>
					</g>
				</g>
				<g>
					<path style="fill:#FB876B;" d="M357.268,146.813c0,0-2.936-3.28-4.641-0.209c-1.705,3.071,1.807,11.4,6.415,8.892
						L357.268,146.813z"/>
					<g>
						<g>
							<g>
								<path style="fill:#D45C48;" d="M357.766,152.939c-0.177,0.015-0.349-0.088-0.415-0.262
									c-0.972-2.581-3.806-3.416-3.835-3.423c-0.215-0.062-0.341-0.286-0.28-0.502c0.061-0.215,0.285-0.341,0.501-0.28
									c0.132,0.037,3.255,0.947,4.374,3.919c0.079,0.21-0.027,0.445-0.237,0.523C357.839,152.928,357.802,152.936,357.766,152.939
									z"/>
							</g>
						</g>
					</g>
					<g>
						<g>
							<path style="fill:#D45C48;" d="M354.884,151.847c-0.075,0.007-0.153-0.008-0.224-0.045c-0.198-0.105-0.275-0.351-0.17-0.549
								c0.017-0.033,0.438-0.815,1.413-1.357c0.195-0.109,0.443-0.038,0.552,0.158c0.109,0.196,0.039,0.444-0.158,0.553
								c-0.754,0.419-1.086,1.02-1.089,1.026C355.141,151.759,355.017,151.835,354.884,151.847z"/>
						</g>
					</g>
				</g>
				<path style="fill:#FBA691;" d="M365.743,162.237l0.741,8.522c0,0-0.455,8.077,6.027,7.465c3.444-0.325,6.514-7.649,6.514-7.649
					l-0.767-8.821L365.743,162.237z"/>
				<path style="fill:#FB876B;" d="M365.743,162.237l0.329,3.781c2.528,2.359,6.68,2.642,12.663,1.221l-0.477-5.486L365.743,162.237
					z"/>
				<path style="fill:#FBA691;" d="M354.857,141.133c0.446,3.298,1.121,7.412,2.041,10.669c0.229,0.812,0.475,1.574,0.734,2.253
					c2.339,6.123,7.76,16.502,19.929,10.925c5.374-2.462,7.408-8.863,8.008-15.245c0.406-4.335,0.149-8.656-0.175-11.732
					c-0.334-3.14-2.3-5.866-5.172-7.178c-7.778-3.558-15.463-1.311-20.44,1.115C356.326,133.622,354.343,137.331,354.857,141.133z"
					/>
				<path style="fill:#1D3062;" d="M375.495,145.733c0.079,0.91,0.612,1.606,1.19,1.556c0.579-0.05,0.983-0.828,0.904-1.738
					c-0.079-0.91-0.612-1.606-1.19-1.556C375.82,144.046,375.416,144.824,375.495,145.733z"/>
				<path style="fill:#1D3062;" d="M363.346,146.789c0.079,0.91,0.612,1.606,1.19,1.556c0.578-0.05,0.983-0.828,0.904-1.738
					c-0.079-0.91-0.612-1.606-1.19-1.556C363.672,145.101,363.267,145.879,363.346,146.789z"/>
				<path style="fill:#1D3062;" d="M361.055,141.293c0,0,3.19-1.593,5.83-0.715l-0.132,1.437c0,0-3.761,0.009-5.576,0.935
					C360.962,142.42,360.889,141.872,361.055,141.293z"/>
				<path style="fill:#1D3062;" d="M380.305,139.621c0,0-3.417-1.019-5.866,0.301l0.377,1.393c0,0,3.706-0.64,5.654-0.041
					C380.592,140.714,380.569,140.162,380.305,139.621z"/>
				<g>
					<path style="fill:#FB876B;" d="M371.08,153.312c0.685,0.024,1.374-0.219,1.481-0.258c0.211-0.077,0.318-0.311,0.241-0.521
						c-0.077-0.21-0.311-0.319-0.521-0.241c-0.372,0.136-1.261,0.339-1.634,0.097c-0.072-0.047-0.169-0.138-0.186-0.385
						c-0.097-1.424,0.458-6.163,0.463-6.211c0.026-0.223-0.133-0.425-0.356-0.451c-0.224-0.027-0.424,0.133-0.451,0.356
						c-0.023,0.198-0.569,4.863-0.467,6.361c0.039,0.564,0.323,0.862,0.556,1.012C370.459,153.235,370.769,153.301,371.08,153.312z"
						/>
				</g>
				<path style="fill:#FFFFFF;" d="M376.826,155.26c-0.186,1.694-1.02,4.852-4.724,5.174c-3.714,0.323-4.998-2.386-5.524-4.283
					L376.826,155.26z"/>
				<g>
					<path style="fill:#FB876B;" d="M372.631,162.915c-1.048,0.091-1.982-0.362-2.022-0.382c-0.201-0.099-0.284-0.343-0.185-0.544
						c0.099-0.201,0.343-0.284,0.544-0.185c0.007,0.004,0.775,0.372,1.592,0.301c0.749-0.065,1.429-0.557,1.436-0.563
						c0.18-0.133,0.435-0.097,0.569,0.083c0.134,0.18,0.097,0.434-0.083,0.568C374.447,162.221,373.619,162.829,372.631,162.915z"/>
				</g>
				<path style="fill:#1D3062;" d="M355.8,147.013l1.835-0.159c-0.362-1.824,0.113-4.109,0.537-5.639
					c0.961-3.472-1.836-4.724,0.176-6.595c2.011-1.876,7.445-1.619,11.17-2.064c3.747-0.448,9.792-0.92,11.287-0.707
					c1.499,0.208,0.905,2.718,0.531,4.656c-0.379,1.933,2.147,3.819,2.709,5.74c0.161,0.551,0.211,1.387,0.199,2.298l1.529-0.133
					c-0.025-2.396-0.19-4.613-0.38-6.406c-0.334-3.14-2.3-5.866-5.172-7.178c-7.778-3.558-15.463-1.311-20.44,1.115
					c-3.455,1.683-5.438,5.392-4.924,9.194C355.102,142.939,355.415,144.991,355.8,147.013z"/>
				<g>
					<g>
						<path style="fill:#FFFFFF;" d="M364.788,152.499c-2.596,0.226-4.892-1.703-5.117-4.299c-0.226-2.596,1.703-4.892,4.299-5.117
							c2.596-0.226,4.892,1.703,5.117,4.299C369.312,149.978,367.384,152.273,364.788,152.499z M364.033,143.817
							c-2.191,0.19-3.819,2.128-3.629,4.32c0.19,2.191,2.128,3.819,4.319,3.629c2.192-0.19,3.819-2.128,3.629-4.32
							C368.162,145.254,366.225,143.626,364.033,143.817z"/>
					</g>
					<g>
						<path style="fill:#FFFFFF;" d="M377.657,151.381c-2.596,0.226-4.892-1.703-5.117-4.299c-0.226-2.596,1.703-4.891,4.299-5.117
							c2.596-0.226,4.892,1.703,5.117,4.299C382.181,148.86,380.252,151.155,377.657,151.381z M376.902,142.699
							c-2.191,0.191-3.819,2.128-3.629,4.32c0.19,2.191,2.128,3.819,4.319,3.629c2.191-0.19,3.819-2.128,3.629-4.32
							C381.031,144.136,379.093,142.508,376.902,142.699z"/>
					</g>
					<g>
						<path style="fill:#FFFFFF;" d="M360.334,146.615c-0.093,0.008-0.19-0.019-0.268-0.084l0,0
							c-0.023-0.019-2.342-1.908-5.091-1.01c-0.193,0.064-0.401-0.042-0.464-0.236c-0.063-0.193,0.042-0.401,0.236-0.464
							c3.143-1.027,5.685,1.055,5.792,1.145c0.156,0.131,0.177,0.363,0.046,0.519C360.52,146.562,360.429,146.606,360.334,146.615z"
							/>
					</g>
					<g>
						<path style="fill:#FFFFFF;" d="M381.115,144.809c-0.12,0.01-0.242-0.038-0.322-0.14c-0.125-0.16-0.098-0.391,0.062-0.517
							c0.132-0.104,3.277-2.543,6.152-2.322c0.203,0.016,0.355,0.193,0.339,0.396c-0.016,0.203-0.191,0.354-0.396,0.339
							c-2.588-0.199-5.611,2.143-5.641,2.167C381.252,144.777,381.184,144.803,381.115,144.809z"/>
					</g>
					<g>
						<path style="fill:#FFFFFF;" d="M372.706,146.002c-0.009-0.011-0.984-1.114-2.13-1.015c-1.135,0.099-1.821,1.344-1.828,1.357
							l-0.649-0.348c0.035-0.066,0.876-1.609,2.413-1.743c1.525-0.132,2.702,1.21,2.752,1.267L372.706,146.002z"/>
					</g>
				</g>
			</g>
			<g>
				<g>
					<path style="fill:#007CE6;" d="M401.423,206.808l-5.309,72.573c-0.239,3.263-3.081,5.715-6.344,5.477l-123.247-9.016
						c-1.469-0.107-2.778-0.745-3.746-1.708c-1.181-1.176-1.862-2.842-1.731-4.633l5.309-72.573
						c0.239-3.263,3.078-5.715,6.341-5.477l123.247,9.016C399.207,200.705,401.662,203.545,401.423,206.808z"/>
					
						<rect x="324.578" y="151.21" transform="matrix(0.073 -0.9973 0.9973 0.073 90.033 534.7061)" style="fill:#1D3062;" width="16.128" height="135.427"/>
					<polygon style="fill:#61B3FF;" points="386.721,273.673 354.952,271.349 355.766,260.219 387.536,262.543 387.536,262.543 
											"/>
					<g>
						<path style="fill:#61B3FF;" d="M280.575,242.382l-8.904-0.651c-0.391-0.029-0.685-0.369-0.656-0.76l0.34-4.654
							c0.029-0.391,0.369-0.685,0.76-0.657l8.904,0.651c0.391,0.029,0.685,0.369,0.657,0.76l-0.34,4.654
							C281.306,242.117,280.966,242.411,280.575,242.382z"/>
						<path style="fill:#61B3FF;" d="M298.753,243.712l-8.904-0.651c-0.391-0.028-0.685-0.369-0.656-0.76l0.34-4.654
							c0.029-0.391,0.369-0.685,0.76-0.656l8.904,0.651c0.391,0.029,0.685,0.369,0.656,0.76l-0.34,4.654
							C299.484,243.447,299.144,243.741,298.753,243.712z"/>
						<path style="fill:#61B3FF;" d="M316.931,245.042l-8.904-0.652c-0.391-0.029-0.685-0.369-0.656-0.76l0.34-4.654
							c0.029-0.391,0.369-0.685,0.76-0.656l8.904,0.651c0.391,0.029,0.685,0.369,0.656,0.76l-0.341,4.654
							C317.663,244.777,317.322,245.07,316.931,245.042z"/>
						<path style="fill:#61B3FF;" d="M335.11,246.372l-8.904-0.651c-0.391-0.029-0.685-0.369-0.656-0.76l0.34-4.654
							c0.029-0.391,0.369-0.685,0.76-0.656l8.904,0.651c0.391,0.029,0.685,0.369,0.656,0.76l-0.341,4.654
							C335.841,246.106,335.501,246.4,335.11,246.372z"/>
						<path style="fill:#61B3FF;" d="M353.288,247.701l-8.904-0.651c-0.391-0.029-0.685-0.369-0.656-0.76l0.341-4.654
							c0.029-0.391,0.369-0.685,0.76-0.657l8.904,0.652c0.391,0.028,0.685,0.369,0.656,0.76l-0.34,4.654
							C354.019,247.436,353.679,247.73,353.288,247.701z"/>
						<path style="fill:#61B3FF;" d="M371.466,249.031l-8.904-0.651c-0.391-0.029-0.685-0.369-0.656-0.76l0.34-4.654
							c0.029-0.391,0.369-0.685,0.76-0.656l8.904,0.651c0.391,0.029,0.685,0.369,0.656,0.76l-0.34,4.654
							C372.198,248.766,371.857,249.06,371.466,249.031z"/>
						<path style="fill:#61B3FF;" d="M389.645,250.361l-8.904-0.651c-0.391-0.029-0.685-0.369-0.657-0.76l0.341-4.654
							c0.029-0.391,0.369-0.685,0.76-0.656l8.904,0.651c0.391,0.029,0.685,0.369,0.656,0.76l-0.34,4.654
							C390.376,250.096,390.036,250.39,389.645,250.361z"/>
					</g>
					
						<rect x="332.195" y="136.186" transform="matrix(0.0729 -0.9973 0.9973 0.0729 106.0554 521.8887)" style="fill:#61B3FF;" width="3.092" height="135.427"/>
					<path style="fill:#61B3FF;" d="M285.008,267.826l-13.567-0.992c-1.273-0.093-2.23-1.201-2.137-2.474l0.993-13.567
						c0.093-1.273,1.201-2.23,2.474-2.137l13.567,0.993c1.273,0.093,2.23,1.201,2.137,2.474l-0.992,13.567
						C287.389,266.962,286.281,267.919,285.008,267.826z"/>
					<path style="fill:#61B3FF;" d="M349.2,267.851l-55.572-4.065c-0.905-0.066-1.584-0.853-1.518-1.758l0.127-1.732
						c0.066-0.905,0.853-1.584,1.758-1.518l55.573,4.065c0.905,0.066,1.584,0.853,1.518,1.758l-0.127,1.732
						C350.892,267.237,350.105,267.917,349.2,267.851z"/>
					<path style="opacity:0.2;fill:#FFFFFF;" d="M351.812,197.238l-89.034,76.896c-1.181-1.176-1.862-2.842-1.731-4.633l1.863-25.46
						l56.9-49.143L351.812,197.238z"/>
					<polygon style="opacity:0.2;fill:#FFFFFF;" points="395.692,200.448 305.128,278.665 289.47,277.52 380.034,199.302 					"/>
				</g>
			</g>
			<g>
				<path style="fill:#FB876B;" d="M312.255,276.288l-1.599,1.858c0,0-4.584-0.333-5.016-2.254
					c-0.157-0.703,0.009-1.469,0.576-1.791L312.255,276.288z"/>
				<path style="fill:#FBA691;" d="M313.888,286.594c-2.251,0.286-4.499-0.813-5.521-2.839c-0.542-1.076-0.777-2.455-0.261-4.17
					c1.549-5.144,4.425-8.763,6.412-7.693c0.746,0.402,0.599,3.442-0.419,5.639c0,0,1.464-2.376,2.172-5.126
					c0.708-2.751,4.112-1.417,3.245,2.048c-0.867,3.466-1.245,3.97-1.245,3.97s1.585-2.629,1.804-4.342
					c0.22-1.713,2.912-1.239,2.322,2.103c-0.274,1.549-0.599,3.324-0.599,3.324s0.779-2.205,1.193-3.347
					c0.415-1.142,1.99-1.854,2.218,0.65c0.179,1.971,0.297,7.33-2.355,8.211C321.052,285.623,316.568,286.253,313.888,286.594z"/>
			</g>
			<g>
				<path style="fill:#FBA691;" d="M359.791,283.164c-0.116-1.792,3.775-1.681,5.682-2.74c1.907-1.062,6.352-4.589,5.512-5.496
					c-0.839-0.908-2.122-1.577-2.976-2.148c-0.853-0.569-1.493-2.228-0.56-2.42c0.937-0.19,3.936,1.146,5.163,2.094
					c0.434,0.34,1.24,1.452,1.766,2.034c0.826,0.92,1.842,1.515,2.957,1.632c1.03-1.063,2.141-2.266,2.86-2.841
					c1.594,0.098,7.01,3.876,5.763,7.018c-1.39,1.909-3.49,4.091-3.49,4.091c-7.513,6.828-11.924,6.493-13.737,6.455
					c-1.817-0.037-2.171-1.979-2.171-1.979c-1.666-0.401-1.678-2.003-1.678-2.003c-2.584-0.653-2.215-2.395-2.215-2.395
					S359.907,284.956,359.791,283.164z"/>
				<g>
					<path style="fill:#61B3FF;" d="M415.25,248.76c0,0-6.58,19.98-28.17,31.77l-7.47-6.6c0,0,15.14-11.94,22.08-29.71
						c0.05-0.13,0.11-0.27,0.16-0.41l-0.09-0.61l-7.66-49.79c0,0,0.69-5.72,7.47-13.8C401.57,179.61,418.26,206.25,415.25,248.76z"
						/>
				</g>
				<g>
					<path style="fill:#009EF3;" d="M407.92,246.24c-0.09,0.16-0.26,0.24-0.43,0.24c-0.09,0-0.17-0.02-0.25-0.06
						c-1.49-0.86-3.92-1.69-5.55-2.2c0.05-0.13,0.11-0.27,0.16-0.41l-0.09-0.61c1.67,0.5,4.33,1.39,5.98,2.35
						C407.98,245.69,408.06,246,407.92,246.24z"/>
				</g>
			</g>
		</g>
	</g>
</g>
<g id="DESIGNED_BY_FREEPIK">
	<g>
		<g id="XMLID_1_">
			<g id="XMLID_20_">
				<path id="XMLID_28_" style="fill:#112129;" d="M260.104,465.465c-0.432,0.443-0.803,0.931-1.108,1.453l-0.465-0.241
					c-0.067-0.298-0.349-0.503-0.659-0.466c-0.331,0.039-0.568,0.339-0.529,0.67c0.039,0.331,0.339,0.568,0.67,0.529
					c0.065-0.008,0.127-0.026,0.183-0.052l0.452,0.234c-0.251,0.554-0.433,1.139-0.539,1.744l0.747,0.132
					c0.23-1.306,0.85-2.507,1.792-3.473L260.104,465.465z"/>
				<path id="XMLID_27_" style="fill:#112129;" d="M265.592,463.163c-0.171,0-0.341,0.006-0.51,0.017l-0.074-0.626
					c0.188-0.149,0.296-0.389,0.266-0.645c-0.046-0.393-0.402-0.674-0.795-0.628c-0.393,0.046-0.674,0.402-0.628,0.795
					c0.03,0.254,0.189,0.461,0.405,0.564l0.073,0.624c-0.714,0.116-1.403,0.332-2.06,0.646l0.327,0.684
					c0.934-0.447,1.942-0.673,2.995-0.673c0.496,0,0.993,0.053,1.475,0.158l0.161-0.741
					C266.692,463.222,266.142,463.163,265.592,463.163z"/>
				<path id="XMLID_26_" style="fill:#112129;" d="M272.194,465.711c0.331-0.04,0.566-0.341,0.526-0.672
					c-0.04-0.331-0.341-0.566-0.672-0.526c-0.309,0.038-0.535,0.304-0.53,0.609l-0.416,0.363c-0.418-0.43-0.89-0.813-1.408-1.139
					l-0.404,0.641c1.134,0.715,2.021,1.726,2.563,2.925l0.691-0.313c-0.251-0.554-0.568-1.072-0.942-1.545l0.402-0.351
					C272.065,465.716,272.129,465.719,272.194,465.711z"/>
				<path id="XMLID_25_" style="fill:#112129;" d="M265.044,473.372c-0.386,0.023-0.775,0.035-1.157,0.035
					c-0.88,0-1.733-0.061-2.478-0.179c-0.39-0.062-0.846-0.155-1.27-0.292c1.046,1.861,3.069,3.125,5.388,3.125
					c2.855,0,5.262-1.916,5.95-4.504c-0.682,0.449-1.505,0.825-2.459,1.123C267.839,473.047,266.464,473.286,265.044,473.372z"/>
				<path id="XMLID_21_" style="fill:#112129;" d="M265.592,464.68c-3.352,0-6.08,2.666-6.08,5.943c0,0.426,0.046,0.849,0.137,1.261
					c0.673,0.483,2.706,0.89,5.348,0.731c2.879-0.173,5.297-0.957,6.672-2.159c-0.005-0.195-0.021-0.39-0.045-0.582
					C271.244,466.913,268.65,464.68,265.592,464.68z M263.432,471.194c-1.02,0-1.85-0.83-1.85-1.85c0-1.02,0.83-1.85,1.85-1.85
					c1.02,0,1.85,0.83,1.85,1.85C265.282,470.365,264.452,471.194,263.432,471.194z M268.17,470.286c-0.75,0-1.36-0.61-1.36-1.36
					s0.61-1.361,1.36-1.361c0.75,0,1.361,0.61,1.361,1.361S268.92,470.286,268.17,470.286z"/>
			</g>
			<path id="XMLID_18_" style="fill:#112129;" d="M281.595,466.547c-0.295-0.116-0.805-0.309-1.382-0.237
				c-0.551,0.069-0.844,0.341-0.844,1.007v0.866h2.228v1.717h-2.228v5.455h-1.932v-5.455h-1.34v-1.717h1.34v-0.888
				c0-1.68,0.896-2.783,2.568-2.783c0.643,0,1.157,0.122,1.59,0.308L281.595,466.547z"/>
			<path id="XMLID_16_" style="fill:#112129;" d="M286.298,469.879c-0.177-0.03-0.358-0.046-0.526-0.046
				c-0.896,0-1.51,0.548-1.51,1.614v3.908h-1.932v-7.172h1.873v0.785c0.451-0.673,1.14-0.977,2.021-0.977
				c0.414,0,0.848,0.128,1.094,0.337L286.298,469.879z"/>
			<path id="XMLID_13_" style="fill:#112129;" d="M293.965,471.757c0,0.222-0.015,0.489-0.037,0.651h-5.085
				c0.207,1.036,0.933,1.488,1.843,1.488c0.622,0,1.295-0.252,1.813-0.688l1.132,1.243c-0.814,0.748-1.85,1.088-3.057,1.088
				c-2.198,0-3.723-1.495-3.723-3.753c0-2.258,1.48-3.797,3.627-3.797C292.544,467.99,293.958,469.522,293.965,471.757z
				 M288.851,471.091h3.175c-0.177-0.918-0.733-1.436-1.562-1.436C289.554,469.655,289.021,470.203,288.851,471.091z"/>
			<path id="XMLID_10_" style="fill:#112129;" d="M301.618,471.757c0,0.222-0.015,0.489-0.037,0.651h-5.085
				c0.207,1.036,0.933,1.488,1.843,1.488c0.622,0,1.295-0.252,1.813-0.688l1.132,1.243c-0.814,0.748-1.85,1.088-3.057,1.088
				c-2.198,0-3.723-1.495-3.723-3.753c0-2.258,1.48-3.797,3.627-3.797C300.197,467.99,301.611,469.522,301.618,471.757z
				 M296.504,471.091h3.175c-0.178-0.918-0.733-1.436-1.562-1.436C297.207,469.655,296.674,470.203,296.504,471.091z"/>
			<path id="XMLID_7_" style="fill:#112129;" d="M309.964,471.764c0,2.154-1.495,3.775-3.471,3.775
				c-0.962,0-1.643-0.378-2.109-0.933v3.708h-1.924v-10.133h1.887v0.792c0.466-0.585,1.155-0.984,2.139-0.984
				C308.469,467.99,309.964,469.61,309.964,471.764z M304.287,471.764c0,1.132,0.747,1.976,1.843,1.976
				c1.14,0,1.85-0.881,1.85-1.976c0-1.095-0.71-1.976-1.85-1.976C305.035,469.788,304.287,470.632,304.287,471.764z"/>
			<path id="XMLID_4_" style="fill:#112129;" d="M313.068,465.836c0,0.696-0.54,1.229-1.236,1.229c-0.696,0-1.229-0.533-1.229-1.229
				c0-0.696,0.533-1.243,1.229-1.243C312.527,464.592,313.068,465.14,313.068,465.836z M312.809,475.354h-1.932v-7.172h1.932
				V475.354z"/>
			<path id="XMLID_2_" style="fill:#112129;" d="M316.032,470.736l2.701-2.554h2.368l-3.479,3.375l3.501,3.797h-2.376l-2.716-2.901
				v2.901H314.1v-10.658h1.932V470.736z"/>
		</g>
		<g>
			<path style="fill:#112129;" d="M184.412,475.289v-1.055c-0.527,0.718-1.391,1.23-2.387,1.23c-1.846,0-3.149-1.406-3.149-3.706
				c0-2.256,1.289-3.721,3.149-3.721c0.952,0,1.816,0.469,2.387,1.245v-3.765h1.099v9.77H184.412z M184.412,473.37v-3.208
				c-0.395-0.615-1.245-1.143-2.124-1.143c-1.421,0-2.27,1.172-2.27,2.739c0,1.567,0.85,2.724,2.27,2.724
				C183.168,474.483,184.017,473.986,184.412,473.37z"/>
			<path style="fill:#112129;" d="M186.932,471.744c0-2.051,1.465-3.706,3.486-3.706c2.139,0,3.398,1.67,3.398,3.794v0.279h-5.727
				c0.088,1.333,1.025,2.446,2.549,2.446c0.805,0,1.626-0.322,2.182-0.894l0.527,0.718c-0.703,0.703-1.655,1.084-2.812,1.084
				C188.44,475.465,186.932,473.956,186.932,471.744z M190.403,468.947c-1.509,0-2.256,1.274-2.314,2.358h4.643
				C192.718,470.25,192.015,468.947,190.403,468.947z"/>
			<path style="fill:#112129;" d="M194.607,474.351l0.571-0.791c0.469,0.542,1.362,1.011,2.329,1.011c1.084,0,1.67-0.513,1.67-1.216
				c0-1.714-4.38-0.659-4.38-3.281c0-1.098,0.952-2.036,2.636-2.036c1.201,0,2.051,0.454,2.622,1.026l-0.513,0.762
				c-0.424-0.513-1.201-0.894-2.109-0.894c-0.967,0-1.567,0.483-1.567,1.113c0,1.552,4.38,0.527,4.38,3.281
				c0,1.187-0.952,2.138-2.783,2.138C196.306,475.465,195.325,475.113,194.607,474.351z"/>
			<path style="fill:#112129;" d="M201.477,466.471c0-0.41,0.337-0.747,0.732-0.747c0.41,0,0.747,0.337,0.747,0.747
				c0,0.41-0.337,0.732-0.747,0.732C201.814,467.203,201.477,466.881,201.477,466.471z M201.667,475.289v-7.075h1.099v7.075H201.667
				z"/>
			<path style="fill:#112129;" d="M204.582,477.105l0.556-0.82c0.586,0.703,1.289,0.967,2.3,0.967c1.172,0,2.27-0.571,2.27-2.124
				v-1.011c-0.513,0.718-1.377,1.26-2.373,1.26c-1.845,0-3.149-1.377-3.149-3.662c0-2.27,1.289-3.677,3.149-3.677
				c0.952,0,1.802,0.469,2.373,1.245v-1.069h1.098v6.87c0,2.344-1.641,3.076-3.369,3.076
				C206.237,478.16,205.417,477.926,204.582,477.105z M209.709,473.253v-3.091c-0.381-0.615-1.23-1.143-2.109-1.143
				c-1.421,0-2.27,1.128-2.27,2.695c0,1.553,0.849,2.695,2.27,2.695C208.478,474.41,209.328,473.868,209.709,473.253z"/>
			<path style="fill:#112129;" d="M217.413,475.289v-4.629c0-1.245-0.63-1.641-1.582-1.641c-0.865,0-1.685,0.527-2.095,1.099v5.17
				h-1.099v-7.075h1.099v1.025c0.498-0.586,1.465-1.201,2.519-1.201c1.48,0,2.256,0.747,2.256,2.285v4.966H217.413z"/>
			<path style="fill:#112129;" d="M219.932,471.744c0-2.051,1.465-3.706,3.486-3.706c2.139,0,3.398,1.67,3.398,3.794v0.279h-5.727
				c0.088,1.333,1.025,2.446,2.549,2.446c0.806,0,1.626-0.322,2.183-0.894l0.527,0.718c-0.703,0.703-1.655,1.084-2.812,1.084
				C221.441,475.465,219.932,473.956,219.932,471.744z M223.404,468.947c-1.509,0-2.256,1.274-2.314,2.358h4.643
				C225.718,470.25,225.015,468.947,223.404,468.947z"/>
			<path style="fill:#112129;" d="M233.35,475.289v-1.055c-0.527,0.718-1.392,1.23-2.388,1.23c-1.846,0-3.149-1.406-3.149-3.706
				c0-2.256,1.289-3.721,3.149-3.721c0.952,0,1.817,0.469,2.388,1.245v-3.765h1.098v9.77H233.35z M233.35,473.37v-3.208
				c-0.396-0.615-1.245-1.143-2.124-1.143c-1.421,0-2.27,1.172-2.27,2.739c0,1.567,0.849,2.724,2.27,2.724
				C232.105,474.483,232.954,473.986,233.35,473.37z"/>
			<path style="fill:#112129;" d="M239.692,475.289v-9.77h1.098v3.765c0.572-0.776,1.421-1.245,2.388-1.245
				c1.845,0,3.149,1.465,3.149,3.721c0,2.299-1.304,3.706-3.149,3.706c-0.996,0-1.86-0.513-2.388-1.23v1.055H239.692z
				 M242.9,474.483c1.436,0,2.285-1.157,2.285-2.724c0-1.568-0.85-2.739-2.285-2.739c-0.864,0-1.728,0.527-2.109,1.143v3.208
				C241.171,473.986,242.036,474.483,242.9,474.483z"/>
			<path style="fill:#112129;" d="M247.528,477.061c0.161,0.073,0.425,0.117,0.601,0.117c0.483,0,0.805-0.161,1.055-0.747
				l0.469-1.069l-2.959-7.148h1.187l2.358,5.8l2.344-5.8h1.201l-3.545,8.51c-0.425,1.025-1.143,1.421-2.08,1.435
				c-0.234,0-0.601-0.044-0.806-0.103L247.528,477.061z"/>
		</g>
	</g>
</g>
</svg>
