<?xml version="1.0" encoding="utf-8"?>
<!-- Generator: Adobe Illustrator 27.5.0, SVG Export Plug-In . SVG Version: 6.00 Build 0)  -->
<svg version="1.1" xmlns="http://www.w3.org/2000/svg" xmlns:xlink="http://www.w3.org/1999/xlink" x="0px" y="0px"
	 viewBox="0 0 3710 3710" style="enable-background:new 0 0 3710 3710;" xml:space="preserve">
<g id="Background">
	<g>
		<g>
			<rect style="fill:#FFFFFF;" width="3710" height="3710"/>
		</g>
	</g>
</g>
<g id="Illustration">
	<g>
		<linearGradient id="SVGID_1_" gradientUnits="userSpaceOnUse" x1="3325.7747" y1="3528.8206" x2="1327.9636" y2="1372.4529">
			<stop  offset="0" style="stop-color:#DAE3FE"/>
			<stop  offset="1" style="stop-color:#E9EFFD"/>
		</linearGradient>
		<path style="fill:url(#SVGID_1_);" d="M3047.367,2299.987c-274.514,641.644-999.142,917.245-1566.899,870.255
			c-155.021-12.83-466.926-38.646-710.465-268.951C302.305,2459.002,374.335,1534.497,822.056,990.2
			c57.657-70.094,456.753-539.719,1078.668-533.433c455.332,4.603,774.926,261.814,813.787,293.857
			c49.092,40.48,157.37,136.672,254.954,289.276C3198.755,1398.465,3218.91,1899.024,3047.367,2299.987z"/>
		<g>
			<path style="fill:#BDD0FB;" d="M3257.438,476.201c6.345-12.661-10.397-26.07-24.181-19.453
				c-139.971,67.181-489.693,284.898-538.039,799.449c-60.656,645.581-265.623,837.594-486.292,931.933
				c0,0,273.146-4.016,490.289-196.672C3232.352,1518.445,3144.615,701.316,3257.438,476.201z"/>
			<path style="fill:#FFFFFF;" d="M3121.691,650.017c-31.24,66.036-60.934,132.665-87.731,200.315
				c-27.207,67.491-52.011,135.812-74.295,204.857c-21.974,69.131-42.436,138.7-59.434,209.127
				c-17.364,70.335-31.208,141.447-44.82,212.904c-14.064,71.323-27.764,143.27-50.012,213.715
				c-22.127,70.319-54.373,138.887-100.365,199.411c-11.485,15.078-23.343,30.013-36.133,44.126
				c-12.482,14.345-25.729,28.166-39.27,41.756c-27.25,27.059-56.719,52.454-88.35,75.686
				c-63.419,46.322-135.488,83.646-211.745,111.6c-8.026,2.942-17.688-0.553-21.583-7.806c-3.823-7.121-0.661-15.219,7.053-18.295
				l0.054-0.022c18.293-7.273,36.455-14.727,54.12-22.889c8.919-3.954,17.592-8.258,26.365-12.412
				c8.56-4.451,17.343-8.601,25.719-13.289c33.896-18.229,66.131-38.614,96.325-61.094
				c60.596-44.635,113.284-97.908,157.343-155.651c21.647-29.121,40.699-59.736,56.897-91.692
				c16.171-31.971,29.478-65.247,40.576-99.342c22.213-68.227,36.452-139.302,51.108-210.498
				c14.766-71.189,30.169-142.604,48.947-213.155c9.278-35.3,19.29-70.407,30.027-105.297c5.251-17.478,10.896-34.841,16.502-52.212
				c5.801-17.313,11.712-34.589,17.786-51.81c24.446-68.838,51.329-136.848,80.685-203.873
				c29.732-66.879,61.534-132.925,96.27-197.613c0.994-1.849,3.563-2.541,5.74-1.545
				C3121.584,645.986,3122.547,648.198,3121.691,650.017z"/>
		</g>
		<g>
			<g>
				<path style="fill:#91B3FA;" d="M2593.997,1898.811c10.748,18.688,37.089,20.325,50.292,3.283
					c72.854-94.031,254.796-378.516,161.501-778.416c-78.783-337.697-89.411-528.297-88.24-615.157
					c0.247-18.367-23.097-26.375-34.204-11.745C2560.801,658.19,2204.529,1221.658,2593.997,1898.811z"/>
				<path style="fill:#FFFFFF;" d="M2622.773,1893.912c0.49,0.214,1.006,0.383,1.548,0.502c4.537,1.008,9.033-1.854,10.041-6.391
					c1.142-5.145,113.216-519.855,24.884-994.349c-0.852-4.566-5.244-7.582-9.817-6.735c-4.57,0.852-7.584,5.245-6.735,9.817
					c87.69,471.04-23.631,982.508-24.765,987.618C2617.041,1888.371,2619.155,1892.334,2622.773,1893.912z"/>
			</g>
		</g>
		<g>
			
				<linearGradient id="SVGID_00000155141695373188444180000005534518819542961310_" gradientUnits="userSpaceOnUse" x1="-5211.0264" y1="817.1981" x2="-4413.0967" y2="817.1981" gradientTransform="matrix(-1 0 0 1 -3425.2148 0)">
				<stop  offset="0" style="stop-color:#2B3582"/>
				<stop  offset="1" style="stop-color:#150E42"/>
			</linearGradient>
			<path style="fill:url(#SVGID_00000155141695373188444180000005534518819542961310_);" d="M996.422,1159.216
				c-0.11,0-0.22-0.002-0.33-0.007c-4.71-0.178-8.383-4.142-8.203-8.852c0.043-1.13,4.633-114.603,33.217-246.278
				c38.574-177.715,100.085-302.327,182.819-370.376c59.204-48.694,128.905-67.137,207.152-54.822
				c90.151,14.192,166.009,58.717,225.472,132.341c47.214,58.457,84.154,135.261,109.801,228.279
				c43.467,157.67,39.387,309.92,39.34,311.44c-0.143,4.708-3.943,8.408-8.79,8.268c-4.71-0.143-8.413-4.077-8.27-8.787
				c0.047-1.498,4.033-151.517-38.834-306.742c-25.034-90.663-60.914-165.315-106.645-221.882
				c-56.701-70.143-128.948-112.555-214.729-126.058c-73.234-11.533-138.381,5.678-193.659,51.144
				c-99.268,81.646-151.035,241.278-176.982,360.814c-28.267,130.221-32.797,242.191-32.84,243.308
				C1004.769,1155.606,1000.985,1159.216,996.422,1159.216z"/>
			
				<linearGradient id="SVGID_00000155839117700296888940000014714419787932657813_" gradientUnits="userSpaceOnUse" x1="751.0076" y1="1165.2256" x2="2539.6206" y2="3397.5801">
				<stop  offset="0" style="stop-color:#4F52FF"/>
				<stop  offset="1" style="stop-color:#4042E2"/>
			</linearGradient>
			<path style="fill:url(#SVGID_00000155839117700296888940000014714419787932657813_);" d="M2502.427,3053.095L2206.572,1012.87
				l-1156.889-14.75L774.638,3163.753l1631.552,2.736C2465.567,3166.488,2511.092,3112.848,2502.427,3053.095z"/>
			
				<linearGradient id="SVGID_00000152224575143968917020000006236519142266113724_" gradientUnits="userSpaceOnUse" x1="3192.3613" y1="721.5969" x2="1799.7025" y2="1520.3265">
				<stop  offset="0" style="stop-color:#4F52FF"/>
				<stop  offset="1" style="stop-color:#4042E2"/>
			</linearGradient>
			<path style="fill:url(#SVGID_00000152224575143968917020000006236519142266113724_);" d="M837.84,1016.46l211.843-18.339
				L774.638,3163.753l-251.996,2.736c-43.447,0-53.154-12.143-44.297-55.408L837.84,1016.46z"/>
			
				<linearGradient id="SVGID_00000107574413280653193560000007529090140559352465_" gradientUnits="userSpaceOnUse" x1="-5449.8457" y1="812.5266" x2="-4651.9131" y2="812.5266" gradientTransform="matrix(-1 0 0 1 -3425.2148 0)">
				<stop  offset="0" style="stop-color:#2B3582"/>
				<stop  offset="1" style="stop-color:#150E42"/>
			</linearGradient>
			<path style="fill:url(#SVGID_00000107574413280653193560000007529090140559352465_);" d="M1235.238,1154.545
				c-0.11,0-0.22-0.002-0.333-0.007c-4.707-0.18-8.38-4.142-8.2-8.852c0.043-1.13,4.633-114.603,33.217-246.278
				c38.574-177.714,100.084-302.327,182.819-370.374c59.207-48.697,128.928-67.137,207.156-54.824
				c90.151,14.192,166.008,58.719,225.472,132.342c47.214,58.457,84.154,135.263,109.801,228.281
				c43.467,157.668,39.387,309.918,39.34,311.438c-0.143,4.708-3.9,8.4-8.79,8.269c-4.71-0.143-8.414-4.077-8.27-8.787
				c0.047-1.498,4.033-151.517-38.834-306.742c-25.034-90.663-60.914-165.313-106.645-221.881
				c-56.701-70.142-128.948-112.556-214.729-126.06c-73.214-11.527-138.368,5.678-193.646,51.132
				c-99.221,81.598-150.985,241.108-176.939,360.552c-28.3,130.253-32.857,242.463-32.9,243.581
				C1243.581,1150.934,1239.798,1154.545,1235.238,1154.545z"/>
		</g>
		<g>
			
				<linearGradient id="SVGID_00000134966055795620796920000002803225614396731524_" gradientUnits="userSpaceOnUse" x1="2160.8313" y1="3067.0974" x2="2042.403" y2="-438.4426">
				<stop  offset="0" style="stop-color:#09005D"/>
				<stop  offset="1" style="stop-color:#1A0F91"/>
			</linearGradient>
			<path style="fill:url(#SVGID_00000134966055795620796920000002803225614396731524_);" d="M1327.636,1220.252
				c0-83.625,67.792-151.417,151.417-151.417h1287.657c71.039,0,129.616,55.671,133.228,126.618l95.048,1866.863
				c2.827,55.519-40.877,102.349-96.458,103.359l-1475.818,26.823c-52.226,0.949-95.074-41.127-95.074-93.362V1220.252z"/>
			<g>
				<path style="fill:#7D97F4;" d="M1433.128,1097.57c-0.158-26.755,23.372-47.463,49.885-43.867
					c175.841,23.846,780.513,97.596,1280.449,59.219c22.799-1.75,42.585,15.524,43.798,38.358l99.662,1875.184
					c1.366,25.712-18.267,47.699-43.97,49.22c-210.263,12.443-1076.195,60.545-1385.059,28.194
					c-18.798-1.969-33.067-17.796-33.179-36.697L1433.128,1097.57z"/>
				<path style="fill:#BDD0FB;" d="M1453.841,1144.561c-0.152-25.748,22.492-45.676,48.007-42.215
					c169.22,22.948,751.123,93.921,1232.233,56.989c21.94-1.684,40.981,14.94,42.149,36.913l95.909,1804.573
					c1.315,24.744-17.58,45.903-42.315,47.367c-202.346,11.975-1035.67,58.265-1332.904,27.132
					c-18.09-1.895-31.822-17.125-31.929-35.314L1453.841,1144.561z"/>
				<g style="opacity:0.6;">
					<path style="fill:#FFFFFF;" d="M2696.98,1320.656c2.524,0,4.529-2.064,4.455-4.587l-0.49-16.784
						c-0.074-2.523-2.198-4.624-4.722-4.669l-485.402-8.65c-2.523-0.045-3.902,1.866-3.064,4.246l9.198,26.115
						c0.838,2.381,3.589,4.328,6.113,4.328H2696.98z"/>
				</g>
				<g style="opacity:0.6;">
					<path style="fill:#FFFFFF;" d="M2210.821,1394.258c-2.523-0.045-3.902,1.866-3.064,4.246l9.198,26.115
						c0.838,2.381,3.589,4.328,6.113,4.328h473.912c2.524,0,4.529-2.064,4.455-4.587l-0.49-16.784
						c-0.074-2.523-2.198-4.624-4.722-4.669L2210.821,1394.258z"/>
				</g>
				<g style="opacity:0.6;">
					<path style="fill:#FFFFFF;" d="M2207.533,1609.767c-2.523-0.045-3.902,1.866-3.064,4.246l9.198,26.115
						c0.838,2.38,3.589,4.328,6.113,4.328h473.912c2.524,0,4.529-2.064,4.455-4.587l-0.49-16.784
						c-0.074-2.523-2.199-4.624-4.722-4.669L2207.533,1609.767z"/>
				</g>
				<g style="opacity:0.6;">
					<path style="fill:#FFFFFF;" d="M2210.821,1506.885c-2.523-0.045-3.902,1.866-3.064,4.246l9.198,26.115
						c0.838,2.38,3.589,4.328,6.113,4.328h473.912c2.524,0,4.529-2.064,4.455-4.587l-0.49-16.784
						c-0.074-2.523-2.198-4.624-4.722-4.669L2210.821,1506.885z"/>
				</g>
				<g style="opacity:0.6;">
					<path style="fill:#FFFFFF;" d="M2725.649,1897.737c2.524,0,4.448-2.06,4.275-4.578l-1.153-16.801
						c-0.173-2.518-2.379-4.594-4.903-4.613l-1152.676-8.744c-2.524-0.019-3.272,1.556-1.663,3.501l22.918,27.7
						c1.609,1.945,4.99,3.536,7.514,3.536H2725.649z"/>
				</g>
				<g style="opacity:0.6;">
					<path style="fill:#FFFFFF;" d="M1571.193,1974.58c-2.524-0.019-3.272,1.556-1.663,3.501l22.918,27.7
						c1.609,1.945,4.99,3.536,7.514,3.536h1125.688c2.524,0,4.448-2.06,4.275-4.578l-1.153-16.801
						c-0.173-2.518-2.379-4.594-4.903-4.613L1571.193,1974.58z"/>
				</g>
				<g>
					<g style="opacity:0.6;">
						<path style="fill:#FFFFFF;" d="M1581.269,2426.86c2.658,10.08,11.816,17.073,22.24,16.985l849.599-7.244
							c9.611-0.082,17.3-8.008,17.09-17.617c-0.204-9.342-7.814-16.821-17.158-16.864l-849.622-3.875
							C1588.421,2398.177,1577.443,2412.358,1581.269,2426.86z"/>
					</g>
					<g style="opacity:0.6;">
						<path style="fill:#FFFFFF;" d="M1579.004,2257.798c2.658,10.08,11.816,17.073,22.24,16.985l849.599-7.244
							c9.611-0.082,17.3-8.008,17.09-17.617c-0.204-9.342-7.814-16.821-17.158-16.864l-849.622-3.875
							C1586.157,2229.115,1575.179,2243.297,1579.004,2257.798z"/>
					</g>
					<g style="opacity:0.6;">
						<path style="fill:#FFFFFF;" d="M1581.269,2623.663c2.658,10.081,11.816,17.073,22.24,16.985l849.599-7.244
							c9.611-0.082,17.3-8.008,17.09-17.617c-0.204-9.342-7.814-16.821-17.158-16.863l-849.622-3.875
							C1588.421,2594.979,1577.443,2609.161,1581.269,2623.663z"/>
					</g>
					<g style="opacity:0.6;">
						<path style="fill:#FFFFFF;" d="M1591.132,2820.466c2.658,10.08,11.816,17.074,22.24,16.985l849.599-7.244
							c9.611-0.082,17.3-8.008,17.09-17.617c-0.204-9.342-7.814-16.821-17.158-16.863l-849.622-3.875
							C1598.285,2791.783,1587.307,2805.964,1591.132,2820.466z"/>
					</g>
					<g>
						<g>
							<path style="fill:#FFFFFF;" d="M2695.979,2294.263c-0.083,0.002-0.167,0.005-0.251,0.008l-91.808,1.926
								c-13.117,0.274-24.217-8.418-25.821-20.215l-10.423-76.761c-0.612-4.507,0.656-9.017,3.567-12.706
								c3.26-4.126,8.301-6.809,13.832-7.36l0,0c7.716-0.763,18.578-2.025,30.075-3.358c24.211-2.811,54.345-6.305,71.336-7.038
								c12.331-0.439,23.016,6.54,26.251,17.191c5.322,17.531,5.926,51.007,6.106,86.682
								C2718.902,2284.221,2708.668,2293.875,2695.979,2294.263z M2585.771,2186.175c-3.636,0.359-6.915,2.078-8.994,4.712
								c-1.716,2.171-2.466,4.794-2.115,7.384l10.423,76.761c1.12,8.246,9.154,14.314,18.687,14.116l91.808-1.926
								c0.06-0.002,0.122-0.004,0.184-0.006c8.894-0.272,16.067-6.764,16.028-14.547c-0.179-35.135-0.757-68.046-5.803-84.673
								c-2.262-7.45-10.238-12.438-19.198-12.192c-16.739,0.722-46.73,4.202-70.827,6.999
								C2604.435,2184.14,2593.544,2185.403,2585.771,2186.175L2585.771,2186.175z"/>
							<path style="opacity:0.6;fill:#FFFFFF;" d="M2595.887,2193.82c19.241-1.907,61.017-7.444,80.885-8.299
								c8.418-0.363,15.96,4.5,18.159,11.742c4.27,14.066,4.626,42.352,4.759,68.466c0.04,7.82-6.947,14.278-15.713,14.462
								l-73.367,1.539c-9.022,0.189-16.699-5.732-17.783-13.716l-8.33-61.342C2583.635,2200.327,2588.755,2194.528,2595.887,2193.82
								z"/>
						</g>
						<g>
							<path style="fill:#FFFFFF;" d="M2716.037,2483.839c-0.083,0.002-0.167,0.005-0.251,0.008l-91.808,1.926
								c-13.117,0.274-24.217-8.418-25.821-20.214l-10.423-76.761c-0.612-4.507,0.656-9.017,3.567-12.705
								c3.26-4.127,8.301-6.809,13.832-7.36l0,0c7.716-0.763,18.578-2.025,30.075-3.359c24.211-2.81,54.345-6.305,71.336-7.039
								c0.124-0.004,0.248-0.011,0.37-0.015c12.07-0.369,22.679,6.664,25.881,17.206c5.323,17.531,5.926,51.007,6.106,86.682
								C2738.961,2473.797,2728.727,2483.451,2716.037,2483.839z M2605.83,2375.751c-3.637,0.359-6.915,2.079-8.994,4.712
								c-1.716,2.171-2.466,4.794-2.115,7.384l10.423,76.761c1.12,8.246,9.154,14.314,18.688,14.116l91.808-1.926
								c0.06-0.002,0.122-0.004,0.184-0.006c8.894-0.272,16.067-6.764,16.028-14.547c-0.179-35.135-0.757-68.046-5.803-84.673
								c-2.263-7.447-10.355-12.604-19.2-12.192c-16.737,0.722-46.728,4.202-70.826,6.999
								C2624.493,2373.716,2613.603,2374.979,2605.83,2375.751L2605.83,2375.751z"/>
							<path style="opacity:0.6;fill:#FFFFFF;" d="M2615.946,2383.397c19.241-1.908,61.017-7.444,80.885-8.3
								c8.419-0.362,15.961,4.5,18.159,11.742c4.27,14.066,4.626,42.352,4.759,68.466c0.04,7.821-6.947,14.278-15.713,14.462
								l-73.367,1.539c-9.022,0.19-16.699-5.731-17.783-13.716l-8.33-61.342C2603.693,2389.903,2608.814,2384.104,2615.946,2383.397
								z"/>
						</g>
						<g>
							<path style="fill:#FFFFFF;" d="M2722.054,2680.55c-0.083,0.002-0.167,0.005-0.251,0.008l-91.808,1.926
								c-13.117,0.277-24.217-8.411-25.821-20.211l-10.423-76.761c-0.612-4.507,0.656-9.021,3.569-12.709
								c3.26-4.126,8.299-6.809,13.83-7.36l0,0c7.716-0.763,18.577-2.025,30.075-3.358c24.211-2.811,54.345-6.305,71.336-7.039
								c0.124-0.004,0.248-0.011,0.37-0.015c12.07-0.369,22.679,6.664,25.881,17.206c5.322,17.531,5.926,51.007,6.106,86.682
								C2744.978,2670.508,2734.743,2680.162,2722.054,2680.55z M2611.846,2572.462c-3.636,0.359-6.915,2.078-8.994,4.711
								c-1.716,2.171-2.466,4.794-2.115,7.388l10.423,76.761c1.12,8.246,9.154,14.314,18.686,14.112l91.81-1.926
								c0.06-0.002,0.122-0.004,0.184-0.006c8.894-0.272,16.067-6.764,16.028-14.547c-0.179-35.135-0.757-68.046-5.803-84.673
								c-2.263-7.447-10.356-12.631-19.2-12.192c-16.737,0.722-46.728,4.202-70.826,6.999
								C2630.51,2570.427,2619.619,2571.69,2611.846,2572.462L2611.846,2572.462z"/>
							<path style="opacity:0.6;fill:#FFFFFF;" d="M2621.962,2580.108c19.241-1.908,61.017-7.444,80.885-8.3
								c8.418-0.362,15.96,4.5,18.158,11.742c4.27,14.066,4.626,42.352,4.759,68.466c0.04,7.821-6.947,14.278-15.713,14.462
								l-73.367,1.539c-9.022,0.189-16.698-5.731-17.783-13.716l-8.33-61.342C2609.71,2586.614,2614.83,2580.815,2621.962,2580.108z
								"/>
						</g>
						<g>
							<path style="fill:#FFFFFF;" d="M2728.07,2877.261c-0.083,0.003-0.167,0.005-0.251,0.008l-91.808,1.926
								c-13.117,0.277-24.217-8.411-25.821-20.211l-10.423-76.761c-0.612-4.507,0.656-9.02,3.569-12.709
								c3.26-4.126,8.299-6.809,13.83-7.36l0,0c7.716-0.763,18.578-2.025,30.076-3.358c24.211-2.811,54.345-6.305,71.336-7.039
								c0.124-0.004,0.248-0.011,0.37-0.015c12.07-0.369,22.679,6.664,25.881,17.206c5.322,17.531,5.926,51.007,6.106,86.682
								C2750.994,2867.218,2740.76,2876.873,2728.07,2877.261z M2617.862,2769.173c-3.636,0.359-6.915,2.078-8.994,4.712
								c-1.716,2.17-2.466,4.794-2.115,7.387l10.423,76.761c1.12,8.246,9.154,14.314,18.686,14.112l91.81-1.926
								c0.06-0.002,0.122-0.004,0.184-0.006c8.894-0.272,16.067-6.763,16.028-14.547c-0.179-35.135-0.757-68.046-5.803-84.673
								c-2.263-7.447-10.357-12.655-19.2-12.192c-16.737,0.722-46.728,4.202-70.826,6.999
								C2636.526,2767.138,2625.635,2768.401,2617.862,2769.173L2617.862,2769.173z"/>
							<path style="opacity:0.6;fill:#FFFFFF;" d="M2627.979,2776.819c19.241-1.907,61.017-7.444,80.885-8.3
								c8.418-0.362,15.961,4.5,18.159,11.742c4.27,14.066,4.626,42.352,4.759,68.466c0.04,7.821-6.947,14.279-15.713,14.462
								l-73.367,1.539c-9.022,0.189-16.698-5.732-17.783-13.716l-8.33-61.342
								C2615.726,2783.325,2620.847,2777.526,2627.979,2776.819z"/>
						</g>
					</g>
				</g>
				<g>
					<g>
						<g style="opacity:0.8;">
							<path style="fill:#FFFFFF;" d="M2038.288,1373.74c-2.412-2.965-6.195-4.196-10.208-4.112l-365.338,7.664l-9.229-29.315
								c-1.283-4.084-5.123-6.699-9.467-6.585l-50.16,1.318c-5.379,0.141-9.735,3.881-9.735,9.25c0,5.368,4.356,8.891,9.735,8.764
								l42.865-1.013l77.563,247.848c1.306,4.172,5.222,7.041,9.662,7.1l256.429,3.443c6.018,0.081,10.904-3.696,10.904-9.386
								c0-5.689-4.886-9.585-10.904-9.65l-248.946-2.683l-19.98-64.352l273.571,0.415c5.601,0.009,10.539-3.657,12.108-8.74
								l43.177-139.607C2041.462,1380.457,2040.703,1376.707,2038.288,1373.74z"/>
							<path style="fill:#FFFFFF;" d="M1761.49,1629.947c-21.099-0.328-38.168,16.093-38.168,36.604s17.069,37.646,38.168,38.2
								c21.226,0.558,38.59-15.857,38.59-36.595C1800.08,1647.418,1782.715,1630.277,1761.49,1629.947z M1761.49,1684.803
								c-9.861-0.231-17.864-8.228-17.864-17.827c0-9.6,8.003-17.262,17.864-17.081c9.889,0.182,17.956,8.181,17.956,17.83
								C1779.446,1677.374,1771.379,1685.035,1761.49,1684.803z"/>
							<path style="fill:#FFFFFF;" d="M1932.428,1632.604c-22.144-0.344-40.057,16.47-40.057,37.482
								c0,21.011,17.913,38.574,40.057,39.156c22.281,0.585,40.511-16.223,40.511-37.472
								C1972.939,1650.521,1954.709,1632.951,1932.428,1632.604z M1932.428,1688.805c-10.35-0.242-18.749-8.44-18.749-18.274
								c0-9.835,8.399-17.681,18.749-17.49c10.38,0.191,18.848,8.39,18.848,18.276
								C1951.276,1681.203,1942.808,1689.048,1932.428,1688.805z"/>
						</g>
					</g>
					<path style="opacity:0.81;fill:#FFFFFF;" d="M1829.061,1802.38c-176.202,0-319.554-143.352-319.554-319.553
						s143.352-319.553,319.554-319.553s319.553,143.352,319.553,319.553S2005.263,1802.38,1829.061,1802.38z M1829.061,1190.58
						c-161.145,0-292.247,131.101-292.247,292.247s131.101,292.246,292.247,292.246s292.247-131.101,292.247-292.246
						S1990.206,1190.58,1829.061,1190.58z"/>
				</g>
			</g>
			
				<linearGradient id="SVGID_00000092429160462873271430000018444411861119719577_" gradientUnits="userSpaceOnUse" x1="2346.4065" y1="622.0925" x2="1754.1299" y2="1401.2185">
				<stop  offset="0" style="stop-color:#09005D"/>
				<stop  offset="1" style="stop-color:#1A0F91"/>
			</linearGradient>
			<path style="fill:url(#SVGID_00000092429160462873271430000018444411861119719577_);" d="M2202.744,814.298
				c-46.512-32.358-86.955-31.717-115.425-23.316c-25.971,7.663-42.803,32.737-40.333,59.702l12.278,134.011l146.101,12.966
				C2205.365,997.661,2293.961,877.756,2202.744,814.298z M2138.494,922.412c-20.119,0-36.429-16.31-36.429-36.43
				c0-20.12,16.31-36.43,36.429-36.43c20.12,0,36.43,16.31,36.43,36.43C2174.924,906.103,2158.614,922.412,2138.494,922.412z"/>
			<path style="fill:#FFFFFF;" d="M2073.858,928.322c-1.802,0-3.339-1.374-3.506-3.205l-1.956-21.342
				c-0.179-1.938,1.25-3.653,3.188-3.832c1.978-0.186,3.656,1.25,3.832,3.192l1.955,21.342c0.179,1.938-1.25,3.653-3.188,3.832
				C2074.073,928.319,2073.965,928.322,2073.858,928.322z M2070.026,886.499c-1.802,0-3.339-1.374-3.506-3.205l-1.486-16.202
				c-2.355-25.687,13.809-49.605,38.431-56.872c17.438-5.147,35.404-5.884,53.397-2.193c1.907,0.389,3.136,2.255,2.746,4.162
				c-0.391,1.904-2.24,3.123-4.161,2.744c-16.854-3.45-33.669-2.765-49.986,2.048c-21.403,6.318-35.453,27.122-33.406,49.47
				l1.485,16.202c0.179,1.938-1.25,3.653-3.188,3.832C2070.242,886.495,2070.133,886.499,2070.026,886.499z"/>
			
				<linearGradient id="SVGID_00000060027482054550790070000014833145548719445177_" gradientUnits="userSpaceOnUse" x1="2411.3748" y1="671.4784" x2="1819.0974" y2="1450.6053">
				<stop  offset="0" style="stop-color:#09005D"/>
				<stop  offset="1" style="stop-color:#1A0F91"/>
			</linearGradient>
			<path style="fill:url(#SVGID_00000060027482054550790070000014833145548719445177_);" d="M1859.863,1071.3v-67.377
				c0-23.258,19.277-41.887,42.522-41.091l464.534,15.916c20.615,0.706,37.311,16.979,38.546,37.57l3.882,64.739L1859.863,1071.3z"
				/>
			<path style="fill:#FFFFFF;" d="M2033.076,988.221h-19.977c-1.947,0-3.526-1.577-3.526-3.525c0-1.949,1.578-3.526,3.526-3.526
				h19.977c1.947,0,3.526,1.577,3.526,3.526C2036.602,986.644,2035.023,988.221,2033.076,988.221z"/>
			<path style="fill:#FFFFFF;" d="M1885.007,1050.144c-1.947,0-3.525-1.577-3.525-3.526v-27.257
				c0-21.06,17.133-38.192,38.193-38.192h73.446c1.947,0,3.526,1.577,3.526,3.526c0,1.949-1.578,3.525-3.526,3.525h-73.446
				c-17.171,0-31.142,13.971-31.142,31.141v27.257C1888.532,1048.567,1886.954,1050.144,1885.007,1050.144z"/>
			<path style="fill:#7D97F4;" d="M1670.585,1088.314c1.121-23.331,20.364-41.672,43.723-41.673l812.325-0.022
				c29.209-0.001,54.18,21.019,59.163,49.8l0.688,3.972c5.457,31.525-18.814,60.358-50.807,60.358h-833.398
				c-19.147,0-34.405-16.009-33.486-35.134L1670.585,1088.314z"/>
		</g>
		<g>
			<g>
				<g>
					
						<linearGradient id="SVGID_00000043431090336388152340000014867865428172051373_" gradientUnits="userSpaceOnUse" x1="1881.2861" y1="1748.7059" x2="1544.501" y2="1996.7433">
						<stop  offset="0" style="stop-color:#FEBBBA"/>
						<stop  offset="1" style="stop-color:#FF928E"/>
					</linearGradient>
					<path style="fill:url(#SVGID_00000043431090336388152340000014867865428172051373_);" d="M1595.644,1907.464
						c0,0-15.259-40.167-33.081-36.488c-17.823,3.679-37.32,17.37-37.32,17.37l-28.632,38.723c0,0,80.376,31.664,108.645,13.518
						c0,0,82.099,14.186,185.773-2.826c-15.008-31.685-23.953-63.407-29.205-88.03
						C1709.312,1879.453,1652.754,1901.655,1595.644,1907.464z"/>
					
						<linearGradient id="SVGID_00000179629227513206260680000015621250316391985083_" gradientUnits="userSpaceOnUse" x1="2224.2966" y1="1101.9265" x2="1787.3848" y2="2091.8037">
						<stop  offset="0" style="stop-color:#FF928E"/>
						<stop  offset="1" style="stop-color:#FE7062"/>
					</linearGradient>
					<path style="fill:url(#SVGID_00000179629227513206260680000015621250316391985083_);" d="M2030.527,1616.118
						c0,0-117.544,148.049-268.705,233.613c5.253,24.623,14.198,56.345,29.205,88.03c78.416-12.867,169.17-43.576,246.109-111.81
						L2030.527,1616.118z"/>
				</g>
				
					<linearGradient id="SVGID_00000126315209795215930720000000467636899747122353_" gradientUnits="userSpaceOnUse" x1="2521.823" y1="1233.2466" x2="2084.9109" y2="2223.124">
					<stop  offset="0" style="stop-color:#FF928E"/>
					<stop  offset="1" style="stop-color:#FE7062"/>
				</linearGradient>
				<path style="fill:url(#SVGID_00000126315209795215930720000000467636899747122353_);" d="M2177.118,2272.307
					c-22.987-109.188-45.975-172.402-122.944-379.367c-24.223-65.129-46.218-131.026-35.587-199.697l11.94-77.125
					c0,0,149.582-50.616,315.39-2.132c0,0,226.216,98.272,72.564,583.613C2349.224,2275.085,2268.17,2297.168,2177.118,2272.307z"/>
				
					<linearGradient id="SVGID_00000041263621454021220290000010445992423031518080_" gradientUnits="userSpaceOnUse" x1="865.2641" y1="1603.4875" x2="818.0526" y2="1461.8525" gradientTransform="matrix(1 0 0 1 1290.1023 0)">
					<stop  offset="0" style="stop-color:#FEBBBA"/>
					<stop  offset="1" style="stop-color:#FF928E"/>
				</linearGradient>
				<path style="fill:url(#SVGID_00000041263621454021220290000010445992423031518080_);" d="M2055.99,1517.685l38.787,93.182
					c2.45,5.885,7.746,10.079,14.029,11.157c22.362,3.836,76.449,9.826,111.969-13.53c4.233-2.784,5.309-8.536,2.415-12.693
					l-71.659-102.879L2055.99,1517.685z"/>
				<g>
					
						<linearGradient id="SVGID_00000165194695915040647900000015199337007701763514_" gradientUnits="userSpaceOnUse" x1="2045.0878" y1="1429.6759" x2="2214.7754" y2="1503.4532">
						<stop  offset="0" style="stop-color:#FEBBBA"/>
						<stop  offset="1" style="stop-color:#FF928E"/>
					</linearGradient>
					<path style="fill:url(#SVGID_00000165194695915040647900000015199337007701763514_);" d="M2096.103,1375.117
						c-1.629,1.533-68.748,133.341-68.748,133.341l76.074,36.724l82.175-115.473
						C2185.604,1429.708,2123.373,1349.446,2096.103,1375.117z"/>
					
						<linearGradient id="SVGID_00000054230914266836600230000013499823832071451039_" gradientUnits="userSpaceOnUse" x1="5068.1904" y1="5694.0659" x2="5270.8931" y2="5694.0659" gradientTransform="matrix(-0.6854 -0.7281 -0.7281 0.6854 9787.373 1318.7853)">
						<stop  offset="0" style="stop-color:#09005D"/>
						<stop  offset="1" style="stop-color:#1A0F91"/>
					</linearGradient>
					<path style="fill:url(#SVGID_00000054230914266836600230000013499823832071451039_);" d="M2151.032,1443.563l-37.942,63.247
						c-0.576,0.96-1.261,1.827-2.08,2.59c-4.516,4.204-19.97,16.431-31.917-0.216c-10.182-14.189-19.735-27.089-29.973-32.409
						c-5.978-3.106-13.335-0.626-16.37,5.389c-6.251,12.391-18.36,37.646-25.967,61.596c-1.906,6.003,1.192,12.447,7.029,14.812
						c15.405,6.241,45.849,17.528,72.865,21.256c4.438,0.612,8.831-1.26,11.472-4.878c11.623-15.923,44.384-60.422,55.565-71.56
						c10.387-10.348,29.558-6.447,38.197-3.964c3.279,0.943,6.771,0.489,9.694-1.271c8.764-5.28,24.06-18.426,10.067-40.684
						c-3.479-5.534-1.705-12.905,3.756-16.497c9.786-6.438,20.405-18.52,10.288-38.087c-10.241-19.807-28.529-21.586-40.986-20.063
						c-5.511,0.673-11.106-2.217-13.221-7.351c-0.94-2.283-2.799-4.23-6.261-4.932c-6.529-1.324-10.814-7.295-9.532-13.832
						c2.196-11.209,0.542-25.77-17.355-35.609c-32.823-18.047-61.575,11.359-68.886,36.182
						c-7.312,24.824,29.388,42.366,52.474,45.294c16.956,2.151,26.254,20.658,29.995,30.332
						C2153.302,1436.416,2152.968,1440.334,2151.032,1443.563z"/>
					
						<linearGradient id="SVGID_00000125589917834429282940000010701365536402523799_" gradientUnits="userSpaceOnUse" x1="2034.5135" y1="1453.9958" x2="2204.2012" y2="1527.7733">
						<stop  offset="0" style="stop-color:#FEBBBA"/>
						<stop  offset="1" style="stop-color:#FF928E"/>
					</linearGradient>
					<path style="fill:url(#SVGID_00000125589917834429282940000010701365536402523799_);" d="M2137.732,1522.324
						c0,0,16.327-38.415,35.009-36.847c18.683,1.568,33.387,20.18,10.233,41.102
						C2154.173,1552.606,2137.732,1522.324,2137.732,1522.324z"/>
				</g>
				<g>
					
						<linearGradient id="SVGID_00000021815557446476133750000000999361636753798840_" gradientUnits="userSpaceOnUse" x1="2386.4368" y1="3244.7996" x2="2597.3218" y2="3244.7996" gradientTransform="matrix(-1 0 0 1 4753.7588 0)">
						<stop  offset="0" style="stop-color:#09005D"/>
						<stop  offset="1" style="stop-color:#1A0F91"/>
					</linearGradient>
					<path style="fill:url(#SVGID_00000021815557446476133750000000999361636753798840_);" d="M2162.392,3234.6
						c36.127,3.123,98.828,8.195,148.258,10.371c29.712,1.308,46.819-1.602,56.671-5.545c-0.017,1.11-0.048,2.159-0.091,3.134
						c-0.234,5.201-4.461,9.363-9.715,9.656c-93.401,5.213-167.682,1.804-194.127,0.195c-5.468-0.334-8.727-6.276-5.931-10.938
						C2158.858,3239.142,2160.552,3236.857,2162.392,3234.6z"/>
					
						<linearGradient id="SVGID_00000094595362272680681920000015775546488521154212_" gradientUnits="userSpaceOnUse" x1="2876.3347" y1="3047.4968" x2="2112.74" y2="3265.1394">
						<stop  offset="0" style="stop-color:#4F52FF"/>
						<stop  offset="1" style="stop-color:#4042E2"/>
					</linearGradient>
					<path style="fill:url(#SVGID_00000094595362272680681920000015775546488521154212_);" d="M2310.65,3244.97
						c-49.43-2.176-112.131-7.248-148.258-10.371c35.519-43.577,148.258-72.949,148.258-72.949h31.841
						c21.9,31.568,25.07,61.623,24.83,77.774C2357.47,3243.368,2340.363,3246.278,2310.65,3244.97z"/>
					
						<linearGradient id="SVGID_00000036241873342676551850000009069576879120397466_" gradientUnits="userSpaceOnUse" x1="2405.906" y1="3145.7656" x2="2465.3086" y2="3145.7656" gradientTransform="matrix(-1 0 0 1 4753.7588 0)">
						<stop  offset="0" style="stop-color:#FEBBBA"/>
						<stop  offset="1" style="stop-color:#FF928E"/>
					</linearGradient>
					<path style="fill:url(#SVGID_00000036241873342676551850000009069576879120397466_);" d="M2347.853,3109.668l-2.98,58.964
						c-0.322,6.385-5.103,11.75-11.497,12.665c-6.362,0.91-14.883,1.026-23.918-1.981c-5.559-1.85-9.686-6.534-10.712-12.248
						l-10.296-57.399H2347.853z"/>
				</g>
				<g>
					<g>
						
							<linearGradient id="SVGID_00000027604117369895674840000018120823199972245684_" gradientUnits="userSpaceOnUse" x1="1966.02" y1="3240.2515" x2="2046.8342" y2="3240.2515" gradientTransform="matrix(-1 0 0 1 4753.7588 0)">
							<stop  offset="0" style="stop-color:#09005D"/>
							<stop  offset="1" style="stop-color:#1A0F91"/>
						</linearGradient>
						<path style="fill:url(#SVGID_00000027604117369895674840000018120823199972245684_);" d="M2761.423,3244.528
							c15.667-2.185,22.755-10.323,25.727-19.025c0.02,0.079,0.04,0.157,0.06,0.235c2.304,9.178-3.039,18.689-13.721,23.214
							c-12.913,5.468-27.03,6.4-37.991,5.948c-11.757-0.485-22.552-5.351-28.484-13.138l-0.089-0.118
							C2718.727,3247.485,2735.296,3248.173,2761.423,3244.528z"/>
						
							<linearGradient id="SVGID_00000004514571352763585020000003376340627759680396_" gradientUnits="userSpaceOnUse" x1="2450.6431" y1="3003.261" x2="2926.5061" y2="3313.1255">
							<stop  offset="0" style="stop-color:#4F52FF"/>
							<stop  offset="1" style="stop-color:#4042E2"/>
						</linearGradient>
						<path style="fill:url(#SVGID_00000004514571352763585020000003376340627759680396_);" d="M2687.556,3109.29h26.259
							c39.998-0.817,65.115,83.545,73.335,116.213c-2.971,8.702-10.06,16.84-25.727,19.025c-26.127,3.645-42.696,2.957-54.499-2.884
							c-21.608-28.435-32.323-70.081-37.471-94.387C2663.596,3119.615,2687.556,3109.29,2687.556,3109.29z"/>
					</g>
					
						<linearGradient id="SVGID_00000079479902657900620130000016395269811569331867_" gradientUnits="userSpaceOnUse" x1="2028.2645" y1="3096.2463" x2="2099.2559" y2="3096.2463" gradientTransform="matrix(-1 0 0 1 4753.7588 0)">
						<stop  offset="0" style="stop-color:#FEBBBA"/>
						<stop  offset="1" style="stop-color:#FF928E"/>
					</linearGradient>
					<path style="fill:url(#SVGID_00000079479902657900620130000016395269811569331867_);" d="M2710.44,3054.563l14.581,57.993
						c1.788,7.11-1.615,14.464-8.19,17.838c-8.157,4.186-19.641,8.585-30.195,7.312c-4.964-0.599-9.087-4.095-10.727-8.769
						l-21.406-61.014L2710.44,3054.563z"/>
				</g>
				
					<linearGradient id="SVGID_00000164513102895634199630000012879012329174555266_" gradientUnits="userSpaceOnUse" x1="2407.3047" y1="2087.96" x2="2482.5049" y2="3110.6748">
					<stop  offset="0" style="stop-color:#09005D"/>
					<stop  offset="1" style="stop-color:#1A0F91"/>
				</linearGradient>
				<path style="fill:url(#SVGID_00000164513102895634199630000012879012329174555266_);" d="M2727.833,3071.325
					c-18.141,16.092-77.147,18.216-77.147,18.216c-212.55-510.142-301.164-650.579-301.164-650.579
					c30.69,192.551,6.615,686.799,6.615,686.799c-35.075,15.477-80.295,0-80.295,0c-2.848-315.231-47.231-653.959-104.47-870.695
					c143.659-3.228,221.731-34.546,246.676-54.275C2537.797,2393.85,2727.833,3071.325,2727.833,3071.325z"/>
				<g>
					
						<linearGradient id="SVGID_00000092452910432959386140000008661551706289005240_" gradientUnits="userSpaceOnUse" x1="2393.5752" y1="2669.1895" x2="2393.5752" y2="2452.4404">
						<stop  offset="0" style="stop-color:#4F52FF"/>
						<stop  offset="1" style="stop-color:#4042E2"/>
					</linearGradient>
					<path style="fill:url(#SVGID_00000092452910432959386140000008661551706289005240_);" d="M2135.18,2397.625l26.434,164.412
						c4.61,28.669,31.166,48.555,60.124,45.023l395.638-48.259c19.355-2.361,34.033-18.522,34.42-37.927
						c0.847-42.482-0.823-118.087-18.651-186.97L2135.18,2397.625z"/>
					<path style="fill:#FFFFFF;" d="M2220.439,2596.86c-0.02,0-0.043,0-0.067-0.002c-3.183-0.178-6.37-0.65-9.47-1.402
						c-0.63-0.153-1.017-0.787-0.863-1.417c0.153-0.627,0.777-1.01,1.417-0.863c2.963,0.72,6.007,1.17,9.05,1.342
						c0.647,0.035,1.14,0.588,1.104,1.235C2221.575,2596.379,2221.059,2596.86,2220.439,2596.86z M2242.212,2595.03
						c-0.587,0-1.09-0.437-1.163-1.032c-0.08-0.642,0.38-1.227,1.02-1.305l9.31-1.135c0.703-0.085,1.23,0.38,1.307,1.021
						c0.08,0.644-0.38,1.227-1.02,1.305l-9.31,1.135C2242.305,2595.027,2242.259,2595.03,2242.212,2595.03z M2273.246,2591.243
						c-0.587,0-1.09-0.435-1.163-1.03c-0.08-0.643,0.38-1.227,1.02-1.305l9.31-1.135c0.703-0.078,1.23,0.378,1.307,1.022
						c0.08,0.643-0.38,1.227-1.02,1.305l-9.31,1.135C2273.339,2591.242,2273.292,2591.243,2273.246,2591.243z M2304.28,2587.46
						c-0.587,0-1.09-0.437-1.163-1.032c-0.08-0.643,0.38-1.227,1.02-1.305l9.31-1.135c0.703-0.093,1.23,0.38,1.307,1.022
						c0.08,0.642-0.38,1.227-1.02,1.305l-9.31,1.135C2304.373,2587.457,2304.326,2587.46,2304.28,2587.46z M2191.622,2586.043
						c-0.253,0-0.507-0.08-0.72-0.247c-2.52-1.96-4.873-4.162-6.997-6.542c-0.43-0.483-0.386-1.225,0.097-1.655
						c0.483-0.433,1.223-0.387,1.657,0.095c2.027,2.275,4.273,4.378,6.683,6.252c0.51,0.397,0.603,1.133,0.207,1.645
						C2192.315,2585.888,2191.972,2586.043,2191.622,2586.043z M2335.313,2583.673c-0.587,0-1.09-0.435-1.163-1.03
						c-0.08-0.642,0.38-1.227,1.02-1.305l9.31-1.137c0.703-0.083,1.23,0.38,1.307,1.022c0.08,0.642-0.38,1.227-1.02,1.305
						l-9.31,1.137C2335.406,2583.672,2335.36,2583.673,2335.313,2583.673z M2366.347,2579.888c-0.586,0-1.09-0.435-1.163-1.03
						c-0.08-0.642,0.38-1.227,1.02-1.305l9.31-1.137c0.703-0.098,1.23,0.378,1.307,1.022c0.08,0.642-0.38,1.227-1.02,1.305
						l-9.31,1.137C2366.44,2579.887,2366.394,2579.888,2366.347,2579.888z M2397.381,2576.104c-0.587,0-1.09-0.437-1.163-1.032
						c-0.08-0.644,0.38-1.227,1.02-1.305l9.31-1.135c0.703-0.092,1.23,0.38,1.307,1.022c0.08,0.643-0.38,1.227-1.02,1.305
						l-9.31,1.135C2397.474,2576.1,2397.427,2576.104,2397.381,2576.104z M2428.417,2572.317c-0.587,0-1.09-0.435-1.163-1.03
						c-0.08-0.643,0.38-1.227,1.02-1.305l9.31-1.135c0.7-0.083,1.23,0.38,1.307,1.022c0.08,0.643-0.38,1.227-1.02,1.305l-9.31,1.135
						C2428.511,2572.315,2428.464,2572.317,2428.417,2572.317z M2459.451,2568.533c-0.587,0-1.09-0.437-1.163-1.031
						c-0.08-0.643,0.38-1.227,1.02-1.305l9.31-1.135c0.7-0.098,1.23,0.38,1.307,1.022c0.08,0.643-0.38,1.227-1.02,1.305l-9.31,1.135
						C2459.544,2568.53,2459.498,2568.533,2459.451,2568.533z M2490.485,2564.747c-0.587,0-1.09-0.435-1.163-1.03
						c-0.08-0.642,0.38-1.227,1.02-1.305l9.31-1.137c0.7-0.09,1.23,0.38,1.307,1.021c0.08,0.642-0.38,1.227-1.02,1.305l-9.31,1.137
						C2490.578,2564.745,2490.531,2564.747,2490.485,2564.747z M2521.519,2560.963c-0.587,0-1.09-0.437-1.163-1.032
						c-0.08-0.642,0.38-1.227,1.02-1.305l9.31-1.137c0.7-0.082,1.23,0.378,1.307,1.022c0.08,0.642-0.38,1.227-1.02,1.305
						l-9.31,1.137C2521.612,2560.96,2521.565,2560.963,2521.519,2560.963z M2174.105,2560.74c-0.5,0-0.963-0.323-1.12-0.827
						c-0.723-2.33-1.287-4.748-1.677-7.19l-0.344-2.125c-0.103-0.638,0.33-1.242,0.97-1.344c0.65-0.123,1.24,0.332,1.343,0.97
						l0.343,2.127c0.373,2.333,0.913,4.644,1.603,6.868c0.19,0.618-0.153,1.275-0.773,1.467
						C2174.335,2560.721,2174.218,2560.74,2174.105,2560.74z M2552.552,2557.177c-0.587,0-1.09-0.437-1.163-1.032
						c-0.08-0.643,0.38-1.227,1.02-1.305l9.31-1.135c0.7-0.097,1.23,0.38,1.307,1.022c0.08,0.643-0.38,1.227-1.02,1.305l-9.31,1.135
						C2552.646,2557.173,2552.599,2557.177,2552.552,2557.177z M2583.586,2553.39c-0.587,0-1.09-0.435-1.163-1.03
						c-0.08-0.644,0.38-1.227,1.02-1.305l9.31-1.135c0.7-0.088,1.23,0.38,1.307,1.022c0.08,0.643-0.38,1.227-1.02,1.305l-9.31,1.135
						C2583.679,2553.388,2583.633,2553.39,2583.586,2553.39z M2614.433,2548.673c-0.48,0-0.93-0.297-1.103-0.775
						c-0.22-0.608,0.097-1.28,0.703-1.5c2.853-1.031,5.563-2.422,8.063-4.132c0.533-0.363,1.267-0.228,1.63,0.307
						c0.367,0.535,0.23,1.263-0.303,1.63c-2.664,1.82-5.553,3.3-8.59,4.398C2614.7,2548.65,2614.566,2548.673,2614.433,2548.673z
						 M2168.648,2529.978c-0.567,0-1.067-0.412-1.157-0.988l-1.487-9.258c-0.103-0.64,0.33-1.242,0.97-1.345
						c0.667-0.102,1.247,0.335,1.344,0.972l1.487,9.262c0.103,0.638-0.33,1.24-0.97,1.344
						C2168.771,2529.973,2168.708,2529.978,2168.648,2529.978z M2636.29,2527.618c-0.147,0-0.293-0.028-0.437-0.087
						c-0.603-0.242-0.893-0.925-0.65-1.525c1.133-2.812,1.903-5.758,2.29-8.757c0.083-0.644,0.66-1.097,1.313-1.013
						c0.643,0.083,1.097,0.672,1.013,1.313c-0.413,3.197-1.233,6.337-2.443,9.333
						C2637.193,2527.34,2636.753,2527.618,2636.29,2527.618z M2163.688,2499.109c-0.567,0-1.063-0.41-1.157-0.987l-1.49-9.26
						c-0.103-0.64,0.33-1.242,0.97-1.345c0.653-0.113,1.24,0.337,1.343,0.972l1.49,9.26c0.104,0.64-0.33,1.242-0.97,1.345
						C2163.811,2499.104,2163.748,2499.109,2163.688,2499.109z M2639.123,2496.701c-0.647,0-1.174-0.523-1.174-1.17
						c-0.003-3.022-0.023-6.148-0.066-9.368c-0.007-0.647,0.51-1.178,1.156-1.187c0.64,0.037,1.18,0.507,1.19,1.157
						c0.043,3.23,0.063,6.364,0.067,9.395C2640.296,2496.176,2639.773,2496.701,2639.123,2496.701L2639.123,2496.701z
						 M2158.725,2468.242c-0.567,0-1.063-0.412-1.157-0.987l-1.49-9.26c-0.103-0.64,0.33-1.242,0.97-1.343
						c0.673-0.13,1.24,0.335,1.343,0.97l1.49,9.26c0.104,0.64-0.33,1.242-0.97,1.344
						C2158.848,2468.237,2158.785,2468.242,2158.725,2468.242z M2638.5,2465.434c-0.626,0-1.147-0.495-1.17-1.127
						c-0.117-3.067-0.253-6.19-0.413-9.36c-0.033-0.647,0.463-1.197,1.11-1.23c0.67,0.003,1.2,0.467,1.23,1.113
						c0.16,3.18,0.297,6.31,0.413,9.387c0.027,0.648-0.48,1.192-1.127,1.217C2638.53,2465.434,2638.513,2465.434,2638.5,2465.434z
						 M2153.761,2437.375c-0.567,0-1.067-0.412-1.157-0.989l-1.487-9.262c-0.104-0.638,0.33-1.24,0.97-1.343
						c0.653-0.105,1.243,0.335,1.343,0.973l1.487,9.26c0.103,0.64-0.33,1.242-0.97,1.345
						C2153.885,2437.37,2153.821,2437.375,2153.761,2437.375z M2636.687,2434.215c-0.607,0-1.12-0.465-1.17-1.08
						c-0.243-3.082-0.503-6.195-0.79-9.332c-0.06-0.645,0.417-1.215,1.06-1.275c0.66-0.077,1.217,0.418,1.273,1.062
						c0.287,3.147,0.553,6.27,0.797,9.362c0.05,0.645-0.433,1.21-1.077,1.26C2636.747,2434.215,2636.717,2434.215,2636.687,2434.215
						z M2148.801,2406.507c-0.566,0-1.063-0.412-1.157-0.987l-1.49-9.26c-0.103-0.64,0.33-1.242,0.97-1.345
						c0.673-0.102,1.24,0.333,1.343,0.972l1.49,9.26c0.103,0.64-0.33,1.242-0.97,1.343
						C2148.925,2406.501,2148.861,2406.507,2148.801,2406.507z M2633.56,2403.106c-0.583,0-1.09-0.435-1.163-1.028
						c-0.383-3.083-0.79-6.178-1.22-9.285c-0.09-0.642,0.357-1.233,0.997-1.323c0.677-0.083,1.237,0.358,1.323,1
						c0.437,3.117,0.844,6.225,1.227,9.318c0.08,0.643-0.377,1.229-1.02,1.308
						C2633.656,2403.103,2633.606,2403.106,2633.56,2403.106z M2151.841,2396.667c-0.583,0-1.087-0.433-1.164-1.025
						c-0.083-0.642,0.374-1.228,1.013-1.312l9.303-1.19c0.743-0.095,1.23,0.377,1.313,1.015c0.083,0.642-0.373,1.228-1.013,1.312
						l-9.303,1.19C2151.938,2396.663,2151.888,2396.667,2151.841,2396.667z M2182.855,2392.698c-0.583,0-1.086-0.433-1.163-1.025
						c-0.083-0.642,0.373-1.229,1.013-1.312l9.303-1.19c0.733-0.087,1.23,0.377,1.313,1.015c0.083,0.642-0.373,1.229-1.013,1.312
						l-9.303,1.19C2182.951,2392.695,2182.902,2392.698,2182.855,2392.698z M2213.865,2388.729c-0.583,0-1.087-0.433-1.163-1.025
						c-0.083-0.642,0.373-1.228,1.013-1.312l9.303-1.19c0.73-0.078,1.23,0.375,1.313,1.015c0.083,0.642-0.374,1.228-1.013,1.312
						l-9.303,1.19C2213.962,2388.726,2213.912,2388.729,2213.865,2388.729z M2244.875,2384.761c-0.583,0-1.087-0.433-1.163-1.025
						c-0.083-0.642,0.373-1.229,1.013-1.312l9.303-1.19c0.723-0.094,1.23,0.376,1.313,1.015c0.083,0.642-0.373,1.228-1.013,1.312
						l-9.303,1.19C2244.972,2384.758,2244.922,2384.761,2244.875,2384.761z M2275.886,2380.793c-0.583,0-1.087-0.433-1.164-1.025
						c-0.083-0.642,0.373-1.228,1.013-1.312l9.303-1.19c0.72-0.085,1.233,0.377,1.313,1.015c0.083,0.642-0.373,1.228-1.013,1.312
						l-9.303,1.19C2275.982,2380.79,2275.933,2380.793,2275.886,2380.793z M2306.899,2376.824c-0.583,0-1.087-0.433-1.163-1.025
						c-0.083-0.642,0.374-1.228,1.013-1.312l9.303-1.19c0.71-0.077,1.233,0.377,1.313,1.015c0.083,0.642-0.373,1.229-1.013,1.312
						l-9.303,1.19C2306.996,2376.821,2306.946,2376.824,2306.899,2376.824z M2337.91,2372.854c-0.583,0-1.087-0.432-1.163-1.023
						c-0.083-0.642,0.373-1.228,1.013-1.312l9.303-1.19c0.707-0.09,1.23,0.377,1.313,1.015c0.083,0.642-0.373,1.228-1.013,1.312
						l-9.303,1.19C2338.007,2372.853,2337.957,2372.854,2337.91,2372.854z M2628.913,2372.183c-0.56,0-1.053-0.4-1.153-0.968
						c-0.547-3.067-1.123-6.134-1.723-9.197c-0.127-0.636,0.29-1.251,0.923-1.376c0.64-0.133,1.253,0.29,1.377,0.923
						c0.607,3.08,1.183,6.16,1.73,9.24c0.113,0.637-0.31,1.247-0.947,1.36C2629.05,2372.176,2628.98,2372.183,2628.913,2372.183z
						 M2368.92,2368.886c-0.583,0-1.087-0.432-1.163-1.023c-0.083-0.642,0.373-1.228,1.013-1.312l9.303-1.19
						c0.747-0.082,1.23,0.377,1.313,1.015c0.083,0.641-0.373,1.228-1.013,1.312l-9.303,1.19
						C2369.017,2368.885,2368.967,2368.886,2368.92,2368.886z M2399.93,2364.919c-0.583,0-1.086-0.433-1.163-1.025
						c-0.083-0.642,0.373-1.228,1.013-1.312l9.303-1.19c0.74-0.097,1.23,0.377,1.313,1.015c0.083,0.642-0.373,1.228-1.013,1.312
						l-9.303,1.19C2400.027,2364.916,2399.977,2364.919,2399.93,2364.919z M2430.941,2360.951c-0.583,0-1.087-0.433-1.163-1.025
						c-0.083-0.642,0.373-1.229,1.013-1.312l9.303-1.19c0.737-0.088,1.23,0.377,1.313,1.015c0.083,0.642-0.374,1.229-1.013,1.312
						l-9.303,1.19C2431.038,2360.948,2430.988,2360.951,2430.941,2360.951z M2461.955,2356.983c-0.583,0-1.087-0.433-1.163-1.025
						c-0.083-0.642,0.373-1.228,1.013-1.312l9.303-1.19c0.727-0.08,1.23,0.375,1.313,1.015c0.083,0.642-0.373,1.228-1.013,1.312
						l-9.303,1.19C2462.051,2356.979,2462.001,2356.983,2461.955,2356.983z M2492.965,2353.014c-0.583,0-1.087-0.434-1.163-1.025
						c-0.083-0.642,0.373-1.228,1.013-1.312l9.303-1.19c0.723-0.093,1.23,0.377,1.313,1.015c0.083,0.642-0.373,1.228-1.013,1.312
						l-9.303,1.19C2493.062,2353.011,2493.012,2353.014,2492.965,2353.014z M2523.975,2349.046c-0.583,0-1.086-0.433-1.163-1.025
						c-0.083-0.642,0.373-1.229,1.013-1.312l9.303-1.19c0.717-0.085,1.233,0.376,1.313,1.015c0.083,0.642-0.373,1.228-1.013,1.312
						l-9.303,1.19C2524.072,2349.042,2524.022,2349.046,2523.975,2349.046z M2554.986,2345.077c-0.583,0-1.087-0.433-1.163-1.025
						c-0.083-0.642,0.373-1.228,1.013-1.312l9.303-1.19c0.713-0.077,1.233,0.375,1.313,1.015c0.083,0.642-0.373,1.228-1.013,1.312
						l-9.303,1.19C2555.082,2345.074,2555.032,2345.077,2554.986,2345.077z M2622.469,2341.593c-0.526,0-1.007-0.358-1.14-0.893
						c-0.323-1.327-0.656-2.652-0.997-3.975l-3.173,0.406c-0.693,0.09-1.23-0.376-1.313-1.015c-0.08-0.642,0.373-1.23,1.013-1.312
						l5.227-0.667l0.257,0.998c0.433,1.663,0.853,3.332,1.267,5.003c0.153,0.628-0.23,1.263-0.86,1.418
						C2622.656,2341.581,2622.563,2341.593,2622.469,2341.593z M2585.999,2341.109c-0.583,0-1.087-0.433-1.163-1.025
						c-0.083-0.642,0.373-1.228,1.013-1.312l9.303-1.19c0.703-0.092,1.233,0.376,1.313,1.015c0.083,0.642-0.373,1.228-1.013,1.312
						l-9.303,1.19C2586.096,2341.106,2586.046,2341.109,2585.999,2341.109z"/>
					
						<linearGradient id="SVGID_00000090992999707581737580000017008154265919702933_" gradientUnits="userSpaceOnUse" x1="3554.2131" y1="-2677.9646" x2="3453.5176" y2="-2524.3616" gradientTransform="matrix(0.9919 -0.127 0.127 0.9919 1989.9969 -609.5969)">
						<stop  offset="0" style="stop-color:#4F52FF"/>
						<stop  offset="1" style="stop-color:#4042E2"/>
					</linearGradient>
					<path style="fill:url(#SVGID_00000090992999707581737580000017008154265919702933_);" d="M2235.705,2262.95l-0.44-12.885
						c0.954-3.212,3.466-5.72,6.693-6.666c12.066-3.537,42.171-10.891,58.285-1.782l4.09,14.515L2235.705,2262.95z"/>
					
						<linearGradient id="SVGID_00000018216036167980712140000012883191014938035108_" gradientUnits="userSpaceOnUse" x1="3538.6521" y1="-2688.3538" x2="3437.9543" y2="-2534.7471" gradientTransform="matrix(0.9919 -0.127 0.127 0.9919 1989.9969 -609.5969)">
						<stop  offset="0" style="stop-color:#4F52FF"/>
						<stop  offset="1" style="stop-color:#4042E2"/>
					</linearGradient>
					<path style="fill:url(#SVGID_00000018216036167980712140000012883191014938035108_);" d="M2272.612,2245.776
						c-2.748,1.055-5.588,1.416-8.524,1.081c-3.552-0.406-6.375-3.176-6.827-6.706l-5.101-39.869l20.289-2.596l5.098,39.839
						C2278.001,2241.071,2275.964,2244.489,2272.612,2245.776z"/>
					
						<linearGradient id="SVGID_00000008120649303662218960000015235108043551453113_" gradientUnits="userSpaceOnUse" x1="3692.7881" y1="-2587.1189" x2="3592.0925" y2="-2433.5156" gradientTransform="matrix(0.9919 -0.127 0.127 0.9919 1989.9969 -609.5969)">
						<stop  offset="0" style="stop-color:#4F52FF"/>
						<stop  offset="1" style="stop-color:#4042E2"/>
					</linearGradient>
					<path style="fill:url(#SVGID_00000008120649303662218960000015235108043551453113_);" d="M2432.222,2237.803l-0.44-12.885
						c0.954-3.211,3.466-5.72,6.693-6.666c12.065-3.537,42.171-10.892,58.284-1.782l4.091,14.514L2432.222,2237.803z"/>
					
						<linearGradient id="SVGID_00000137109140552561367880000009032592735076198325_" gradientUnits="userSpaceOnUse" x1="3676.2578" y1="-2598.146" x2="3575.5598" y2="-2444.5391" gradientTransform="matrix(0.9919 -0.127 0.127 0.9919 1989.9969 -609.5969)">
						<stop  offset="0" style="stop-color:#4F52FF"/>
						<stop  offset="1" style="stop-color:#4042E2"/>
					</linearGradient>
					<path style="fill:url(#SVGID_00000137109140552561367880000009032592735076198325_);" d="M2469.129,2220.629
						c-2.747,1.055-5.588,1.416-8.524,1.081c-3.552-0.406-6.375-3.176-6.827-6.706l-5.638-44.069l20.289-2.596l5.635,44.04
						C2474.518,2215.924,2472.482,2219.343,2469.129,2220.629z"/>
					
						<linearGradient id="SVGID_00000080905906451360607110000000611128277484057480_" gradientUnits="userSpaceOnUse" x1="3591.491" y1="-2653.5474" x2="3490.7957" y2="-2499.9443" gradientTransform="matrix(0.9919 -0.127 0.127 0.9919 1989.9969 -609.5969)">
						<stop  offset="0" style="stop-color:#4F52FF"/>
						<stop  offset="1" style="stop-color:#4042E2"/>
					</linearGradient>
					<path style="fill:url(#SVGID_00000080905906451360607110000000611128277484057480_);" d="M2251.35,2210.318l217.274-35.144
						c4.954-0.801,8.715-4.93,8.945-9.92c0.322-6.984,0.067-17.345-2.861-27.744c-3.33-11.826-14.845-19.454-27.122-18.18
						c-40.829,4.24-144.45,17.53-198.672,47.43c-5.734,3.163-9.554,8.898-10.278,15.382c-0.692,6.184-0.636,14.316,2.312,22.223
						C2242.515,2208.567,2246.904,2211.038,2251.35,2210.318z"/>
					<path style="fill:#BDD0FB;" d="M2245.996,2201.629c-1.42,0-2.707-0.975-3.043-2.42c-0.08-0.357-2.013-8.835-0.833-17.394
						c0.96-6.95,5.577-13.027,12.053-15.86c11.797-5.165,34.444-14.277,53.594-17.274c1.71-0.285,3.303,0.9,3.573,2.605
						c0.267,1.705-0.9,3.305-2.607,3.572c-19.14,2.997-42.781,12.764-52.054,16.824c-4.563,1.998-7.693,6.107-8.367,10.988
						c-1.023,7.427,0.713,15.049,0.733,15.125c0.39,1.682-0.657,3.362-2.34,3.752
						C2246.469,2201.603,2246.229,2201.629,2245.996,2201.629z"/>
					
						<linearGradient id="SVGID_00000168116450510062037660000009654131661436534697_" gradientUnits="userSpaceOnUse" x1="32.9575" y1="2806.8145" x2="-39.4926" y2="3483.0161" gradientTransform="matrix(0.9919 -0.127 0.127 0.9919 1989.9969 -609.5969)">
						<stop  offset="0" style="stop-color:#4F52FF"/>
						<stop  offset="1" style="stop-color:#4042E2"/>
					</linearGradient>
					<path style="fill:url(#SVGID_00000168116450510062037660000009654131661436534697_);" d="M2133.834,2270.945
						c70.377-9.922,374.916-52.147,464.865-52.795c7.744-0.056,14.682,4.728,17.29,11.984
						c8.262,22.993,25.826,76.616,31.552,131.265c0.778,7.437-3.858,14.389-11.002,16.711l-197.305,64.127l-71.825,9.191
						l-220.928-15.257c-7.787-0.537-14.208-6.253-15.586-13.9c-4.908-27.235-15.328-91.277-13.212-133.628
						C2118.131,2279.643,2124.871,2272.208,2133.834,2270.945z"/>
					<path style="fill:#FFFFFF;" d="M2367.04,2434.948l-9.587-0.64c-0.647-0.045-1.133-0.605-1.09-1.252
						c0.047-0.643,0.6-1.134,1.25-1.088l9.357,0.646l0.977-0.148c0.703-0.092,1.23,0.375,1.313,1.013
						c0.083,0.644-0.373,1.23-1.013,1.313L2367.04,2434.948z M2335.7,2432.803c-0.027,0-0.053,0-0.08-0.002l-9.357-0.647
						c-0.647-0.045-1.134-0.605-1.09-1.252c0.043-0.643,0.59-1.1,1.25-1.088l9.357,0.647c0.647,0.045,1.133,0.605,1.09,1.25
						C2336.826,2432.332,2336.313,2432.803,2335.7,2432.803z M2389.804,2432.027c-0.583,0-1.087-0.433-1.163-1.025
						c-0.083-0.642,0.374-1.228,1.013-1.312l9.303-1.19c0.743-0.085,1.23,0.377,1.313,1.015c0.083,0.642-0.373,1.228-1.013,1.312
						l-9.303,1.19C2389.9,2432.023,2389.85,2432.027,2389.804,2432.027z M2304.51,2430.648c-0.027,0-0.053,0-0.08-0.002
						l-9.357-0.645c-0.647-0.045-1.133-0.605-1.09-1.25c0.047-0.645,0.66-1.108,1.25-1.09l9.357,0.645
						c0.646,0.045,1.133,0.605,1.09,1.25C2305.636,2430.175,2305.123,2430.648,2304.51,2430.648z M2273.323,2428.495
						c-0.027,0-0.053,0-0.08-0.002l-9.357-0.647c-0.647-0.045-1.133-0.605-1.09-1.25c0.047-0.646,0.647-1.113,1.25-1.09l9.357,0.647
						c0.647,0.045,1.133,0.605,1.09,1.252C2274.449,2428.023,2273.936,2428.495,2273.323,2428.495z M2420.814,2428.058
						c-0.583,0-1.087-0.433-1.163-1.025c-0.083-0.642,0.373-1.229,1.013-1.312l9.303-1.19c0.737-0.077,1.23,0.375,1.313,1.015
						c0.083,0.642-0.373,1.229-1.013,1.312l-9.303,1.19C2420.911,2428.055,2420.861,2428.058,2420.814,2428.058z M2242.132,2426.342
						c-0.027,0-0.053,0-0.08-0.002l-9.357-0.647c-0.647-0.045-1.133-0.605-1.09-1.25c0.047-0.647,0.636-1.12,1.25-1.09l9.357,0.646
						c0.647,0.045,1.133,0.605,1.09,1.252C2243.259,2425.87,2242.746,2426.342,2242.132,2426.342z M2210.942,2424.187
						c-0.027,0-0.053,0-0.08-0.002l-9.357-0.647c-0.646-0.045-1.133-0.605-1.09-1.25c0.047-0.647,0.627-1.125,1.25-1.09l9.357,0.647
						c0.647,0.045,1.134,0.605,1.09,1.25C2212.069,2423.715,2211.555,2424.187,2210.942,2424.187z M2179.751,2422.033
						c-0.027,0-0.053,0-0.08-0.001l-9.357-0.647c-0.647-0.045-1.133-0.605-1.09-1.25c0.047-0.645,0.617-1.132,1.25-1.09l9.357,0.647
						c0.646,0.045,1.133,0.605,1.09,1.25C2180.878,2421.562,2180.365,2422.033,2179.751,2422.033z M2451.148,2421.068
						c-0.493,0-0.953-0.315-1.117-0.812c-0.2-0.615,0.14-1.277,0.753-1.477l8.92-2.898c0.617-0.198,1.277,0.135,1.477,0.753
						c0.203,0.615-0.137,1.277-0.75,1.477l-8.92,2.898C2451.391,2421.048,2451.268,2421.068,2451.148,2421.068z M2148.561,2419.878
						c-0.027,0-0.053,0-0.08-0.002l-1.38-0.094l-0.16-0.9c-0.463-2.578-0.983-5.53-1.547-8.797c-0.11-0.638,0.32-1.245,0.96-1.353
						c0.667-0.105,1.243,0.322,1.353,0.957c0.5,2.927,0.97,5.6,1.397,7.978c0.4,0.208,0.66,0.64,0.627,1.118
						C2149.688,2419.405,2149.175,2419.878,2148.561,2419.878z M2480.881,2411.405c-0.493,0-0.953-0.315-1.113-0.812
						c-0.203-0.615,0.137-1.277,0.75-1.477l8.92-2.9c0.613-0.193,1.28,0.137,1.477,0.753c0.203,0.615-0.136,1.277-0.75,1.477
						l-8.92,2.9C2481.125,2411.385,2481.001,2411.405,2480.881,2411.405z M2510.615,2401.741c-0.493,0-0.953-0.315-1.113-0.81
						c-0.203-0.617,0.137-1.278,0.75-1.478l8.92-2.9c0.62-0.198,1.277,0.138,1.477,0.752c0.203,0.617-0.136,1.278-0.75,1.479
						l-8.92,2.9C2510.858,2401.721,2510.735,2401.741,2510.615,2401.741z M2540.349,2392.076c-0.493,0-0.953-0.315-1.113-0.812
						c-0.203-0.615,0.137-1.277,0.75-1.477l8.917-2.898c0.617-0.195,1.277,0.137,1.477,0.753c0.203,0.615-0.137,1.277-0.75,1.477
						l-8.917,2.898C2540.592,2392.056,2540.469,2392.076,2540.349,2392.076z M2143.068,2389.438c-0.573,0-1.07-0.417-1.16-0.998
						c-0.453-3.005-0.91-6.112-1.36-9.295c-0.09-0.642,0.353-1.235,0.997-1.325c0.607-0.097,1.233,0.355,1.323,0.995
						c0.45,3.177,0.907,6.277,1.36,9.275c0.097,0.64-0.343,1.238-0.983,1.335
						C2143.184,2389.433,2143.125,2389.438,2143.068,2389.438z M2570.079,2382.413c-0.493,0-0.953-0.315-1.113-0.81
						c-0.203-0.617,0.136-1.278,0.75-1.478l8.92-2.9c0.614-0.198,1.28,0.135,1.477,0.753c0.203,0.615-0.137,1.277-0.75,1.477
						l-8.92,2.9C2570.323,2382.393,2570.199,2382.413,2570.079,2382.413z M2599.813,2372.75c-0.493,0-0.953-0.315-1.113-0.812
						c-0.203-0.615,0.137-1.277,0.75-1.477l8.92-2.9c0.62-0.195,1.277,0.137,1.477,0.753c0.203,0.615-0.137,1.277-0.75,1.477
						l-8.92,2.9C2600.056,2372.729,2599.933,2372.75,2599.813,2372.75z M2629.546,2363.084c-0.493,0-0.953-0.317-1.117-0.812
						c-0.13-0.407-0.027-0.835,0.233-1.135c-0.3-2.708-0.63-5.418-0.99-8.12c-0.083-0.642,0.367-1.23,1.01-1.315
						c0.613-0.117,1.23,0.368,1.317,1.008c0.393,2.978,0.753,5.965,1.083,8.952l0.103,0.948l-1.277,0.415
						C2629.786,2363.066,2629.667,2363.084,2629.546,2363.084z M2138.878,2358.434c-0.587,0-1.094-0.44-1.163-1.037
						c-0.363-3.092-0.713-6.21-1.047-9.339c-0.067-0.645,0.4-1.222,1.043-1.29c0.657-0.075,1.22,0.398,1.29,1.04
						c0.333,3.122,0.677,6.23,1.04,9.315c0.077,0.643-0.383,1.225-1.027,1.302
						C2138.968,2358.431,2138.921,2358.434,2138.878,2358.434z M2625.403,2332.417c-0.557,0-1.05-0.397-1.153-0.962
						c-0.567-3.09-1.16-6.157-1.777-9.19c-0.127-0.635,0.283-1.253,0.917-1.382c0.663-0.132,1.253,0.283,1.383,0.915
						c0.617,3.05,1.217,6.13,1.783,9.233c0.117,0.638-0.307,1.249-0.943,1.365
						C2625.543,2332.411,2625.473,2332.417,2625.403,2332.417z M2135.921,2327.292c-0.613,0-1.127-0.473-1.17-1.092
						c-0.217-3.163-0.4-6.3-0.547-9.394c-0.033-0.647,0.467-1.195,1.113-1.227c0.02,0,0.04,0,0.057,0c0.624,0,1.14,0.488,1.17,1.117
						c0.147,3.077,0.33,6.197,0.547,9.343c0.043,0.645-0.443,1.205-1.09,1.25
						C2135.974,2327.292,2135.948,2327.292,2135.921,2327.292z M2618.843,2301.842c-0.53,0-1.01-0.36-1.14-0.897
						c-0.75-3.087-1.517-6.115-2.287-9.082c-0.163-0.627,0.21-1.267,0.837-1.43c0.647-0.157,1.27,0.215,1.43,0.84
						c0.777,2.977,1.543,6.018,2.3,9.118c0.153,0.628-0.233,1.263-0.863,1.415
						C2619.026,2301.83,2618.933,2301.842,2618.843,2301.842z M2135.031,2296.035c-0.01,0-0.02,0-0.027,0
						c-0.65-0.015-1.16-0.552-1.147-1.2c0.043-1.828,0.11-3.622,0.197-5.373c0.057-1.18,0.907-2.12,2.067-2.285l2.287-0.323
						c0.673-0.088,1.237,0.358,1.323,0.998c0.09,0.642-0.356,1.233-0.997,1.325l-2.283,0.322c-0.143,1.812-0.203,3.585-0.247,5.393
						C2136.188,2295.529,2135.667,2296.035,2135.031,2296.035z M2160.258,2286.155c-0.577,0-1.08-0.425-1.16-1.012
						c-0.09-0.642,0.357-1.233,1-1.323l9.297-1.289c0.637-0.078,1.233,0.36,1.32,1.002c0.09,0.642-0.357,1.233-1,1.322l-9.297,1.288
						C2160.365,2286.15,2160.311,2286.155,2160.258,2286.155z M2191.245,2281.884c-0.58,0-1.08-0.427-1.16-1.015
						c-0.09-0.642,0.36-1.232,1-1.32l9.297-1.27c0.72-0.088,1.233,0.364,1.32,1.003c0.09,0.642-0.36,1.232-1,1.32l-9.297,1.27
						C2191.348,2281.878,2191.295,2281.884,2191.245,2281.884z M2222.235,2277.672c-0.58,0-1.083-0.428-1.163-1.017
						c-0.087-0.642,0.367-1.232,1.007-1.318l9.297-1.251c0.683-0.095,1.233,0.366,1.32,1.005c0.087,0.642-0.367,1.232-1.007,1.318
						l-9.297,1.252C2222.339,2277.667,2222.285,2277.672,2222.235,2277.672z M2253.232,2273.525c-0.58,0-1.083-0.43-1.164-1.02
						c-0.083-0.642,0.367-1.23,1.01-1.315l9.3-1.232c0.634-0.083,1.23,0.367,1.317,1.009c0.083,0.642-0.367,1.23-1.01,1.315
						l-9.3,1.232C2253.336,2273.52,2253.282,2273.525,2253.232,2273.525z M2610.683,2271.648c-0.507,0-0.973-0.33-1.123-0.84
						c-0.927-3.118-1.837-6.112-2.727-8.963c-0.193-0.618,0.153-1.275,0.77-1.468c0.617-0.184,1.277,0.152,1.47,0.771
						c0.89,2.862,1.807,5.865,2.733,8.993c0.183,0.62-0.17,1.273-0.79,1.457C2610.906,2271.632,2610.793,2271.648,2610.683,2271.648
						z M2284.243,2269.443c-0.58,0-1.087-0.43-1.163-1.02c-0.083-0.642,0.37-1.23,1.013-1.315l9.3-1.212
						c0.657-0.096,1.234,0.37,1.317,1.012c0.083,0.642-0.37,1.23-1.01,1.315l-9.307,1.212
						C2284.343,2269.442,2284.292,2269.443,2284.243,2269.443z M2315.256,2265.438c-0.583,0-1.087-0.433-1.163-1.025
						c-0.083-0.642,0.373-1.229,1.013-1.312l9.31-1.187c0.673-0.092,1.227,0.377,1.31,1.015c0.08,0.643-0.373,1.23-1.017,1.312
						l-9.303,1.187C2315.356,2265.435,2315.303,2265.438,2315.256,2265.438z M2346.277,2261.515c-0.583,0-1.09-0.435-1.163-1.028
						c-0.08-0.642,0.377-1.228,1.017-1.308l9.31-1.16c0.653-0.088,1.227,0.378,1.306,1.018c0.08,0.643-0.376,1.228-1.02,1.308
						l-9.303,1.16C2346.373,2261.512,2346.323,2261.515,2346.277,2261.515z M2377.304,2257.683c-0.587,0-1.09-0.435-1.163-1.03
						c-0.08-0.642,0.38-1.227,1.02-1.305l9.313-1.128c0.647-0.092,1.227,0.382,1.303,1.023c0.077,0.643-0.38,1.227-1.023,1.303
						l-9.307,1.128C2377.397,2257.681,2377.35,2257.683,2377.304,2257.683z M2408.347,2253.967c-0.587,0-1.094-0.44-1.163-1.037
						c-0.077-0.642,0.383-1.225,1.027-1.302l9.317-1.092c0.66-0.087,1.223,0.386,1.3,1.03c0.077,0.642-0.383,1.225-1.027,1.3
						l-9.317,1.092C2408.437,2253.963,2408.391,2253.967,2408.347,2253.967z M2439.408,2250.382c-0.59,0-1.097-0.444-1.163-1.042
						c-0.073-0.644,0.39-1.223,1.033-1.297l9.32-1.047c0.66-0.07,1.223,0.392,1.297,1.035c0.07,0.643-0.393,1.223-1.037,1.295
						l-9.32,1.047C2439.494,2250.378,2439.451,2250.382,2439.408,2250.382z M2470.485,2246.956c-0.593,0-1.1-0.445-1.167-1.047
						c-0.067-0.645,0.4-1.222,1.043-1.29l9.327-0.988c0.683-0.04,1.22,0.402,1.29,1.043c0.067,0.645-0.4,1.222-1.043,1.29
						l-9.327,0.985C2470.568,2246.955,2470.525,2246.956,2470.485,2246.956z M2501.588,2243.751c-0.597,0-1.107-0.452-1.167-1.057
						c-0.063-0.643,0.407-1.218,1.05-1.281c3.173-0.313,6.287-0.617,9.344-0.908c0.613-0.045,1.217,0.412,1.277,1.055
						c0.063,0.645-0.41,1.217-1.057,1.278c-3.05,0.292-6.164,0.595-9.33,0.908
						C2501.665,2243.75,2501.625,2243.751,2501.588,2243.751z M2601.093,2241.871c-0.487,0-0.94-0.305-1.107-0.788
						c-0.527-1.517-1.023-2.917-1.483-4.195c-1.08,0.008-2.207,0.025-3.367,0.045c-0.543,0.031-1.18-0.503-1.193-1.15
						c-0.01-0.648,0.503-1.182,1.153-1.193c1.283-0.023,2.523-0.04,3.723-0.048c0.787,0,1.48,0.448,1.733,1.115
						c0.507,1.415,1.06,2.965,1.647,4.657c0.213,0.612-0.11,1.28-0.723,1.492C2601.349,2241.85,2601.219,2241.871,2601.093,2241.871
						z M2532.715,2240.846c-0.603,0-1.113-0.46-1.167-1.07c-0.057-0.645,0.42-1.213,1.067-1.27c3.197-0.278,6.317-0.542,9.35-0.792
						c0.723-0.098,1.21,0.43,1.267,1.072c0.05,0.645-0.43,1.212-1.073,1.265c-3.033,0.25-6.147,0.513-9.34,0.792
						C2532.782,2240.846,2532.749,2240.846,2532.715,2240.846z M2563.889,2238.415c-0.613,0-1.127-0.473-1.17-1.094
						c-0.043-0.647,0.447-1.205,1.09-1.248c3.26-0.219,6.383-0.413,9.377-0.585c0.77-0.067,1.2,0.46,1.237,1.103
						c0.036,0.647-0.457,1.2-1.104,1.237c-2.987,0.172-6.103,0.367-9.35,0.585
						C2563.942,2238.415,2563.916,2238.415,2563.889,2238.415z"/>
					
						<linearGradient id="SVGID_00000002356525142509634320000006185047214965350287_" gradientUnits="userSpaceOnUse" x1="2906.491" y1="1792.2551" x2="2551.5002" y2="2235.9937">
						<stop  offset="0" style="stop-color:#09005D"/>
						<stop  offset="1" style="stop-color:#1A0F91"/>
					</linearGradient>
					<path style="fill:url(#SVGID_00000002356525142509634320000006185047214965350287_);" d="M2436.328,2473.257l-62.924,8.052
						c-8.246,1.055-15.975-4.191-17.996-12.215l-15.018-59.62c-2.393-9.497,4.089-18.95,13.848-20.2l75.594-9.673
						c9.562-1.223,18.11,5.977,18.477,15.564l2.35,61.241C2450.983,2464.865,2444.764,2472.177,2436.328,2473.257z"/>
					
						<linearGradient id="SVGID_00000138570468603742843910000001774666816531455900_" gradientUnits="userSpaceOnUse" x1="2763.2427" y1="1848.5754" x2="2445.7988" y2="2352.0479">
						<stop  offset="0" style="stop-color:#4F52FF"/>
						<stop  offset="1" style="stop-color:#4042E2"/>
					</linearGradient>
					<path style="fill:url(#SVGID_00000138570468603742843910000001774666816531455900_);" d="M2427.164,2463.111l-47.892,6.128
						c-6.276,0.803-12.159-3.19-13.698-9.297l-11.431-45.377c-1.82-7.229,3.113-14.423,10.541-15.374l57.534-7.362
						c7.277-0.931,13.783,4.549,14.063,11.847l1.789,46.611C2438.316,2456.723,2433.584,2462.289,2427.164,2463.111z"/>
				</g>
				
					<linearGradient id="SVGID_00000067237479178639355100000000223052236820564622_" gradientUnits="userSpaceOnUse" x1="2620.5366" y1="1354.1781" x2="2359.8323" y2="2223.1951">
					<stop  offset="0" style="stop-color:#FEBBBA"/>
					<stop  offset="1" style="stop-color:#FF928E"/>
				</linearGradient>
				<path style="fill:url(#SVGID_00000067237479178639355100000000223052236820564622_);" d="M2389.737,1980.588
					c14.844,61.329,15.236,121.327,12.978,143.173c-0.852,8.236-7.471,14.667-15.731,15.246c-9.383,0.657-22.152,1.518-33.564,2.176
					c-12.544,0.723-26.467-7.205-35.777-13.831c-4.753-3.383-10.902,1.885-8.247,7.08c4.573,8.948,12.518,15.996,20.403,21.988
					c4.743,3.604,20.509,10.007,19.409,17.104c-0.347,2.239-1.697,4.188-3.147,5.928c-8.762,10.512-22.017,16.127-35.099,20.143
					c-1.641,0.504-3.374,1.041-4.53,2.31c-0.325,8.461,25.699,17.859,32.416,20.089c10.063,3.34,20.735,4.755,31.303,3.642
					c26.187-2.758,50.369-20.833,64.473-42.625c37.705-58.26,57.198-128.611,64.32-182.415
					C2463.868,1965.532,2410.917,1974.42,2389.737,1980.588z"/>
				<g>
					
						<linearGradient id="SVGID_00000117645157648753232300000013535579367007465882_" gradientUnits="userSpaceOnUse" x1="2643.0308" y1="1286.7471" x2="2206.1187" y2="2276.625">
						<stop  offset="0" style="stop-color:#FF928E"/>
						<stop  offset="1" style="stop-color:#FE7062"/>
					</linearGradient>
					<path style="fill:url(#SVGID_00000117645157648753232300000013535579367007465882_);" d="M2498.942,2006.135
						c27.972-211.3-134.863-373.774-134.863-373.774l-96.882,112.945c73.554,91.682,108.519,175.695,124.491,241.68
						C2412.869,1980.817,2463.868,1971.072,2498.942,2006.135z"/>
					
						<linearGradient id="SVGID_00000018920579678686141740000000817437959831689103_" gradientUnits="userSpaceOnUse" x1="3082.8618" y1="959.5984" x2="2311.4441" y2="1877.7891">
						<stop  offset="0" style="stop-color:#FF928E"/>
						<stop  offset="1" style="stop-color:#FE7062"/>
					</linearGradient>
					<path style="fill:url(#SVGID_00000018920579678686141740000000817437959831689103_);" d="M2389.377,1985.952
						c-2.704,0-5.162-1.84-5.827-4.588c-19.687-81.341-61.186-161.868-123.336-239.336c-2.074-2.584-1.661-6.363,0.922-8.437
						c2.581-2.068,6.363-1.658,8.435,0.926c63.263,78.857,105.536,160.96,125.644,244.024c0.779,3.223-1.201,6.463-4.42,7.242
						C2390.32,1985.899,2389.845,1985.952,2389.377,1985.952z"/>
				</g>
			</g>
			<g>
				<g>
					
						<linearGradient id="SVGID_00000175311627460176040090000011422969003337429906_" gradientUnits="userSpaceOnUse" x1="-351.1758" y1="3189.3274" x2="-212.8331" y2="3189.3274" gradientTransform="matrix(1 0 0 1 1290.1023 0)">
						<stop  offset="0" style="stop-color:#09005D"/>
						<stop  offset="1" style="stop-color:#1A0F91"/>
					</linearGradient>
					<path style="fill:url(#SVGID_00000175311627460176040090000011422969003337429906_);" d="M1077.267,3238.586
						c0.016-1.03-0.053-2.074-0.317-3.125c-15.581-61.774-92.917-100.25-92.917-100.25l-30.645,2.402
						c-17.62,54.447-15.355,87.839-12.526,102.713c0.078,0.417,0.206,0.813,0.316,1.216
						C966.457,3243.802,1018.489,3245.276,1077.267,3238.586z"/>
					
						<linearGradient id="SVGID_00000034060989703355866090000004337629059079711105_" gradientUnits="userSpaceOnUse" x1="-4.8418" y1="3026.1221" x2="-508.1371" y2="3421.3108" gradientTransform="matrix(1 0 0 1 1290.1023 0)">
						<stop  offset="0" style="stop-color:#4F52FF"/>
						<stop  offset="1" style="stop-color:#4042E2"/>
					</linearGradient>
					<path style="fill:url(#SVGID_00000034060989703355866090000004337629059079711105_);" d="M941.178,3241.542
						c1.365,4.967,5.032,8.834,9.725,9.821c35.96,7.562,93.115,1.477,117.112-1.661c5.295-0.692,9.164-5.589,9.252-11.116
						C1018.489,3245.276,966.457,3243.802,941.178,3241.542z"/>
					
						<linearGradient id="SVGID_00000062182897341528815100000017731424360349251460_" gradientUnits="userSpaceOnUse" x1="-312.704" y1="3031.8303" x2="-339.1298" y2="3262.4565" gradientTransform="matrix(1 0 0 1 1290.1023 0)">
						<stop  offset="0" style="stop-color:#FEBBBA"/>
						<stop  offset="1" style="stop-color:#FF928E"/>
					</linearGradient>
					<path style="fill:url(#SVGID_00000062182897341528815100000017731424360349251460_);" d="M941.066,3091.969l12.979,62.482
						c0.951,4.578,4.468,8.007,8.73,8.406c5.216,0.49,12.641,0.777,20.108-0.32c6.695-0.984,11.358-7.788,10.172-15.09
						l-9.022-55.479H941.066z"/>
					
						<linearGradient id="SVGID_00000165232740131357939420000003860745791631472300_" gradientUnits="userSpaceOnUse" x1="84.5658" y1="3139.8237" x2="-418.7302" y2="3535.0132" gradientTransform="matrix(1 0 0 1 1290.1023 0)">
						<stop  offset="0" style="stop-color:#4F52FF"/>
						<stop  offset="1" style="stop-color:#4042E2"/>
					</linearGradient>
					<path style="fill:url(#SVGID_00000165232740131357939420000003860745791631472300_);" d="M1209.987,3240.752
						c-33.845-0.948-51.351-4.933-60.401-8.632c-0.021,3.365-0.002,6.79,0.108,10.338c0.117,3.79,2.923,6.817,6.377,6.795
						l185.832-1.2c5.931-0.038,9.396-6.916,6.826-12.354C1324.363,3237.712,1262.306,3242.216,1209.987,3240.752z"/>
					
						<linearGradient id="SVGID_00000121981140083363335780000000856694014792410504_" gradientUnits="userSpaceOnUse" x1="-140.5167" y1="3192.8435" x2="58.626" y2="3192.8435" gradientTransform="matrix(1 0 0 1 1290.1023 0)">
						<stop  offset="0" style="stop-color:#09005D"/>
						<stop  offset="1" style="stop-color:#1A0F91"/>
					</linearGradient>
					<path style="fill:url(#SVGID_00000121981140083363335780000000856694014792410504_);" d="M1348.728,3235.699
						c-0.224-0.473-0.416-0.955-0.736-1.401c-16.411-22.932-58.21-68.594-140.807-88.4l-39.623-1.25
						c0,0-17.644,30.666-17.977,87.472c9.05,3.699,26.556,7.685,60.401,8.632
						C1262.306,3242.216,1324.363,3237.712,1348.728,3235.699z"/>
					
						<linearGradient id="SVGID_00000066511381753137455750000015596701663326356380_" gradientUnits="userSpaceOnUse" x1="7.3528" y1="2996.8796" x2="-19.0734" y2="3227.5095" gradientTransform="matrix(0.998 -0.0629 0.0629 0.998 993.2088 65.7657)">
						<stop  offset="0" style="stop-color:#FEBBBA"/>
						<stop  offset="1" style="stop-color:#FF928E"/>
					</linearGradient>
					<path style="fill:url(#SVGID_00000066511381753137455750000015596701663326356380_);" d="M1158.45,3086.44
						c0.625,2.92,8.87,47.379,12.063,64.617c0.759,4.096,3.95,7.102,7.748,7.313c6.784,0.381,17.727,0.426,27.137-2.13
						c5.076-1.379,8.487-6.554,8.125-12.298l-4.433-70.323L1158.45,3086.44z"/>
					
						<linearGradient id="SVGID_00000080205579014731509650000011872501643792449461_" gradientUnits="userSpaceOnUse" x1="850.4708" y1="3366.4468" x2="1181.364" y2="2223.3584">
						<stop  offset="0" style="stop-color:#09005D"/>
						<stop  offset="1" style="stop-color:#1A0F91"/>
					</linearGradient>
					<path style="fill:url(#SVGID_00000080205579014731509650000011872501643792449461_);" d="M1128.425,2265.554
						c0,0,54.507,374.544,93.842,820.246c0.733,8.301-5.882,15.525-14.036,17.242c-12.017,2.531-29.68,5.536-44.303,5.126
						c-7.806-0.218-14.332-6.007-15.645-13.706c-13.4-78.584-109.021-500.337-134.117-593.16c0,0-28.827,394.292-19.613,598.853
						c0.229,5.086-3.495,9.499-8.553,10.083c-7.673,0.887-19.947,1.56-35.568-0.099c-5.93-0.63-10.713-5.112-11.56-11.015
						c-9.545-66.507-64.483-462.387-62.148-747.564c0.132-16.082,18.869-148.215,18.869-148.215L1128.425,2265.554z"/>
				</g>
				
					<linearGradient id="SVGID_00000088820976237070449070000010216502301501339781_" gradientUnits="userSpaceOnUse" x1="1853.1561" y1="-233.9439" x2="1115.8656" y2="653.5341" gradientTransform="matrix(0.991 -0.1339 0.1339 0.991 690.6002 157.8111)">
					<stop  offset="0" style="stop-color:#FF928E"/>
					<stop  offset="1" style="stop-color:#FE7062"/>
				</linearGradient>
				<path style="fill:url(#SVGID_00000088820976237070449070000010216502301501339781_);" d="M887.403,2287.141
					c-5.604-1.992-9.511-7.072-10.121-12.988c-7.248-70.322-42.344-506.346,179.222-685.708c0,0,12.706-33.245,117.147,48.475
					c104.441,81.718,48.523,167.374,23.52,285.518c-30.258,142.962-83.347,259.822-59.858,347.798
					c1.621,6.071-1.571,12.446-7.467,14.619C1048.715,2314.757,967.898,2315.746,887.403,2287.141z"/>
				
					<linearGradient id="SVGID_00000034810348260258218140000003997141797688159907_" gradientUnits="userSpaceOnUse" x1="-207.2817" y1="1687.6384" x2="-145.9073" y2="1520.0392" gradientTransform="matrix(1 0 0 1 1290.1023 0)">
					<stop  offset="0" style="stop-color:#FEBBBA"/>
					<stop  offset="1" style="stop-color:#FF928E"/>
				</linearGradient>
				<path style="fill:url(#SVGID_00000034810348260258218140000003997141797688159907_);" d="M1142.931,1457.803
					c-0.07,6.204-88.543,131.87-88.543,131.87s15.88,31.276,91.693,56.669l65.442-134.551L1142.931,1457.803z"/>
				<g>
					
						<linearGradient id="SVGID_00000144316208845132932840000007351625715249264023_" gradientUnits="userSpaceOnUse" x1="1208.6494" y1="1566.4329" x2="1124.4531" y2="1359.3552">
						<stop  offset="0" style="stop-color:#FEBBBA"/>
						<stop  offset="1" style="stop-color:#FF928E"/>
					</linearGradient>
					<path style="fill:url(#SVGID_00000144316208845132932840000007351625715249264023_);" d="M1212.589,1385.794
						c0,0,31.48,72.317,33.595,110.273c2.114,37.956,10.293,62.585-33.595,70.229c-43.887,7.643-80.859-14.22-100.888-52.029
						c0,0-31.382-58.259-24.343-82.118C1094.398,1408.29,1212.589,1385.794,1212.589,1385.794z"/>
					
						<linearGradient id="SVGID_00000170256392884066641410000011833396156063945407_" gradientUnits="userSpaceOnUse" x1="1487.2257" y1="293.5677" x2="1242.2076" y2="1074.5613">
						<stop  offset="0" style="stop-color:#09005D"/>
						<stop  offset="1" style="stop-color:#1A0F91"/>
					</linearGradient>
					<path style="fill:url(#SVGID_00000170256392884066641410000011833396156063945407_);" d="M1126.698,1487.083l2.498-1.101
						c3.18-1.402,4.542-5.188,2.944-8.275c-6.188-11.958-18.254-39.359-2.668-45.751c20.086-8.238,99.65-24.463,116.817-52.695
						c16.499-27.133,1.88-62.158-20.089-72.12c-1.47-0.667-3.204-0.137-3.958,1.29l-1.831,3.464
						c-1.254,2.372-4.757,2.012-5.502-0.565l0,0c-0.716-2.474-4.006-2.953-5.37-0.77c-5.277,8.446-19.523,22.14-57.619,29.17
						c-54.143,9.993-89.939,31.903-90.83,69.317c-0.057,2.376-2.585,3.698-4.616,2.461c-3.997-2.436-10.395-3.58-18.944,3.61
						c-14.87,12.503-8.785,44.936,23.811,71.614c1.549,1.267,1.536,3.685-0.141,4.776c-5.909,3.846-14.718,12.999,8.107,25.201
						c23.609,12.621,41.239,11.585,48.028,10.465c1.689-0.279,2.777-1.914,2.408-3.585l-7.245-32.883
						c-0.41-1.861,1.007-3.624,2.912-3.624H1126.698z"/>
					
						<linearGradient id="SVGID_00000065032764856398256840000013068248687787728781_" gradientUnits="userSpaceOnUse" x1="1150.9209" y1="1589.9045" x2="1066.7245" y2="1382.8265">
						<stop  offset="0" style="stop-color:#FEBBBA"/>
						<stop  offset="1" style="stop-color:#FF928E"/>
					</linearGradient>
					<path style="fill:url(#SVGID_00000065032764856398256840000013068248687787728781_);" d="M1128.061,1494.022
						c0,0-12.01-46.195-32.721-33.243c-20.711,12.952,10.748,51.76,27.398,53.488L1128.061,1494.022z"/>
				</g>
				<g>
					
						<linearGradient id="SVGID_00000016794257099161877650000005072635632982965390_" gradientUnits="userSpaceOnUse" x1="1072.0687" y1="1953.9475" x2="1331.4847" y2="1651.2957">
						<stop  offset="0" style="stop-color:#FF928E"/>
						<stop  offset="1" style="stop-color:#FE7062"/>
					</linearGradient>
					<path style="fill:url(#SVGID_00000016794257099161877650000005072635632982965390_);" d="M1207.25,1674.842l6.1,163.827
						c17.326,5.962,33.821,10.6,49.528,14.063c9.826-31.631,31.459-70.454,49.174-99.321
						C1246.965,1730.404,1207.25,1674.842,1207.25,1674.842z"/>
					
						<linearGradient id="SVGID_00000049935009478960229910000010433852775037945999_" gradientUnits="userSpaceOnUse" x1="1650.0776" y1="1658.2897" x2="1263.9938" y2="1850.345">
						<stop  offset="0" style="stop-color:#FEBBBA"/>
						<stop  offset="1" style="stop-color:#FF928E"/>
					</linearGradient>
					<path style="fill:url(#SVGID_00000049935009478960229910000010433852775037945999_);" d="M1532.205,1672.055
						c-89.284,96.398-161.549,102.072-220.153,81.356c-17.715,28.866-39.349,67.689-49.174,99.321
						c238.43,52.566,294.576-166.626,294.576-166.626L1532.205,1672.055z"/>
					
						<linearGradient id="SVGID_00000137816727370949524350000007700160479564919438_" gradientUnits="userSpaceOnUse" x1="1644.4258" y1="1610.1212" x2="1512.3647" y2="1748.0518">
						<stop  offset="0" style="stop-color:#FEBBBA"/>
						<stop  offset="1" style="stop-color:#FF928E"/>
					</linearGradient>
					<path style="fill:url(#SVGID_00000137816727370949524350000007700160479564919438_);" d="M1550.312,1661.816
						c0,0,10.285-11.044,29.32-7.573c19.035,3.471,35.978,10.084,47.838,0c11.86-10.084,16.029,3.449,16.029,3.449l-35.514,26.997
						L1550.312,1661.816z"/>
					
						<linearGradient id="SVGID_00000013874139654341958040000000651346394746078895_" gradientUnits="userSpaceOnUse" x1="1651.913" y1="1656.0134" x2="1265.8303" y2="1848.0681">
						<stop  offset="0" style="stop-color:#FEBBBA"/>
						<stop  offset="1" style="stop-color:#FF928E"/>
					</linearGradient>
					<path style="fill:url(#SVGID_00000013874139654341958040000000651346394746078895_);" d="M1529.071,1680.697
						c0,0,7.048-29.467,28.284-25.428s69.449,30.258,81.874,25.428c12.425-4.83,28.313-16.391,36.465-12.304l-14.358,17.851
						c0,0,36.911-21.293,43.265-8.21l-61.418,34.562C1643.183,1712.595,1553.327,1703.599,1529.071,1680.697z"/>
				</g>
				
					<linearGradient id="SVGID_00000126308122862399522250000018436469681529489572_" gradientUnits="userSpaceOnUse" x1="1572.1504" y1="2024.4778" x2="1039.6654" y2="1751.4082">
					<stop  offset="0" style="stop-color:#FEBBBA"/>
					<stop  offset="1" style="stop-color:#FF928E"/>
				</linearGradient>
				<path style="fill:url(#SVGID_00000126308122862399522250000018436469681529489572_);" d="M1108.138,1889.258
					c0,0,167.857,140.581,349.115,79.24c11.242-3.805,23.535-2.978,34.03,2.564l52.11,27.522
					c21.872,11.55,48.958,3.968,61.65-17.262c7.239-12.11,13.417-25.942,14.646-39.193l-101.965-41.278l7.518-12.503
					c0,0-49.784-4.218-62.814,31.461c0,0-94.823,39.441-254.737-136.451C1207.692,1783.357,1135.125,1845.059,1108.138,1889.258z"/>
				
					<linearGradient id="SVGID_00000176741396864984353700000005135646397147888307_" gradientUnits="userSpaceOnUse" x1="2474.9182" y1="133.3143" x2="-16.8425" y2="3082.4683">
					<stop  offset="0" style="stop-color:#E1473D"/>
					<stop  offset="1" style="stop-color:#E9605A"/>
				</linearGradient>
				<path style="fill:url(#SVGID_00000176741396864984353700000005135646397147888307_);" d="M1099.102,1887.803
					c-0.553,0-1.114-0.157-1.605-0.494c-70.678-47.753-103.927-124.828-104.255-125.603c-0.618-1.465,0.064-3.148,1.523-3.766
					c1.465-0.623,3.146,0.057,3.768,1.521c0.32,0.758,32.952,76.312,102.179,123.089c1.316,0.887,1.661,2.671,0.771,3.991
					C1100.931,1887.36,1100.025,1887.803,1099.102,1887.803z"/>
				
					<linearGradient id="SVGID_00000120520770753551737860000011177453122983975049_" gradientUnits="userSpaceOnUse" x1="2456.2502" y1="117.5455" x2="-35.5105" y2="3066.6995">
					<stop  offset="0" style="stop-color:#E1473D"/>
					<stop  offset="1" style="stop-color:#E9605A"/>
				</linearGradient>
				<path style="fill:url(#SVGID_00000120520770753551737860000011177453122983975049_);" d="M1204.379,1780.972
					c-0.943,0-1.869-0.466-2.418-1.32c-0.214-0.331-21.806-33.941-62.931-107.583c-12.647-22.644-29.267-36.984-49.4-42.619
					c-33.341-9.316-65.473,8.559-65.79,8.738c-1.383,0.763-3.132,0.303-3.917-1.077c-0.783-1.38-0.303-3.132,1.077-3.917
					c1.386-0.785,34.436-19.277,70.125-9.288c21.685,6.05,39.492,21.31,52.922,45.356c41.022,73.457,62.532,106.949,62.746,107.28
					c0.859,1.33,0.474,3.109-0.859,3.969C1205.45,1780.826,1204.912,1780.972,1204.379,1780.972z"/>
			</g>
		</g>
	</g>
</g>
</svg>
