<?xml version="1.0" encoding="utf-8"?>
<!-- Generator: Adobe Illustrator 27.5.0, SVG Export Plug-In . SVG Version: 6.00 Build 0)  -->
<svg version="1.1" id="_x3C_Layer_x3E_" xmlns="http://www.w3.org/2000/svg" xmlns:xlink="http://www.w3.org/1999/xlink" x="0px"
	 y="0px" viewBox="0 0 2760 1840" style="enable-background:new 0 0 2760 1840;" xml:space="preserve">
<rect style="fill:#FFFFFF;" width="2760" height="1840"/>
<g>
	<g>
		<path style="fill:#DAEBE8;" d="M2319.664,1708.264c-212.024,25.728-430.462,15.008-876.789-11.914
			c-250.623-15.117-754.538,9.929-1006.067,11.914c-183.376,1.447-332.046-131.258-332.046-293.174V921.224V405.33
			c0-161.915,148.979-302.698,332.046-293.174c170.007,8.845,420.066,43.859,680.735,22.42
			c310.026-25.5,898.478-47.168,1202.122-22.42c182.607,14.883,332.046,131.258,332.046,293.174v1009.76
			C2651.71,1577.006,2501.34,1686.219,2319.664,1708.264z"/>
	</g>
	<g>
		<g>
			<g>
				<g>
					<path style="fill:#ACC9C5;" d="M716.152,914.787l-3.816-1.225c-18.648-40.57-46.465-88.402-87.627-136.629
						c-0.721-0.841-1.448-1.692-2.179-2.528c-13.671-15.851-28.788-31.724-45.501-47.368c-3.602-3.39-7.287-6.763-11.043-10.123
						l1.931-2.313c3.696,3.306,7.315,6.613,10.867,9.943c33.366,31.232,60.425,63.311,82.315,94.35
						c0.682,0.943,1.351,1.9,2.013,2.854C686.162,854.812,703.373,886.593,716.152,914.787z"/>
				</g>
			</g>
			<g>
				<g>
					<path style="fill:#ACC9C5;" d="M611.972,779.826c-29.725,4.384-54.31-7.699-54.592-7.841l1.289-2.751
						c0.313,0.157,31.814,15.594,66.135,4.474l0.884,2.918C621.046,778.131,616.448,779.166,611.972,779.826z"/>
				</g>
			</g>
			<g>
				<g>
					<path style="fill:#ACC9C5;" d="M561.707,700.323c17.474,12.165,19.901,20.042,16.483,25.296
						c-3.418,5.254-11.386,5.895-28.86-6.27c-31.832-22.16-41.028-42.382-41.028-42.382S529.412,677.841,561.707,700.323z"/>
				</g>
			</g>
			<g>
				<g>
					<path style="fill:#ACC9C5;" d="M563.88,761.041c20.206,6.148,24.816,12.902,23.089,18.977s-9.138,9.172-29.344,3.023
						c-36.809-11.2-51.471-27.613-51.471-27.613S526.535,749.678,563.88,761.041z"/>
				</g>
			</g>
			<g>
				<g>
					<path style="fill:#ACC9C5;" d="M635.257,727.189c5.673,15.054,2.736,21.396-2.967,23.696
						c-5.703,2.3-12.014-0.313-17.687-15.367c-10.333-27.422-5-44.84-5-44.84S624.773,699.367,635.257,727.189z"/>
				</g>
			</g>
		</g>
	</g>
	<g>
		<ellipse style="fill:#B8D5DC;" cx="1322.326" cy="1434.85" rx="993.835" ry="119.407"/>
	</g>
	<g style="opacity:0.6;">
		<path style="fill:#ACC9C5;" d="M1975.684,962.796c60.538-159.468,156.328-358.466,248.938-328.407
			c111.598,36.221-44.628,211.26-151.408,367.299C2034.91,1057.662,1937.104,1064.424,1975.684,962.796z"/>
	</g>
	<g>
		<g>
			<path style="fill:#CCD39C;" d="M1959.891,1177.964c0,0,301.541-484.606,456.637-395.323
				c155.095,89.283-288.604,278.579-371.009,422.518L1959.891,1177.964z"/>
		</g>
		<g>
			<g>
				<path style="fill:#C2C68E;" d="M2007.657,1193.599c55.102-100.441,149.039-189.778,218.139-247.035
					c74.914-62.073,137.547-100.836,138.171-101.221l-2.401-3.896c-0.626,0.385-63.534,39.317-138.691,101.593
					c-69.406,57.511-163.781,147.284-219.23,248.357L2007.657,1193.599z"/>
			</g>
		</g>
	</g>
	<g>
		<g>
			<g>
				<path style="fill:#ACC9C5;" d="M2448.2,1215.671c-67.065,15.297-54.761,116.936-131.581,98.911
					c-64.971-15.283-70.491-21.198-92.712-2.283c-7.617,6.484-14.16,14.118-19.665,22.47c-6.597,10.01-19.387,24.793-39.027,28.464
					c-119.983,22.432-286.332-153.521-162.004-252.89c8.978-7.176,22.131-10.046,36.7-12.495
					c79.035-13.234,104.109,22.833,165.438-71.162c61.35-94.021,147.492,38.836,200.534,33.538
					c53.042-5.3,99.656-21.743,141.653,34.058C2589.541,1150.129,2515.271,1200.42,2448.2,1215.671z"/>
			</g>
		</g>
		<g style="opacity:0.5;">
			<g>
				<g>
					<path style="fill:#68A1BF;" d="M2042.952,1239.262l-2.566-3.725c1.641-1.132,168.315-113.384,516.859-125.385l0.156,4.523
						C2210.166,1126.632,2044.587,1238.137,2042.952,1239.262z"/>
				</g>
			</g>
			<g>
				<g>
					<path style="fill:#68A1BF;" d="M2258.379,1102.234c-46.442-40.878-54.897-73.644-55.235-75.018l4.394-1.081
						c0.08,0.324,8.576,32.869,53.833,72.703L2258.379,1102.234z"/>
				</g>
			</g>
			<g>
				<g>
					<path style="fill:#68A1BF;" d="M2266.882,1150.954c-13.169-22.627-12.309-55.453,2.488-94.928
						c11.08-29.563,26.236-52.817,26.388-53.047l3.782,2.479c-0.594,0.906-59.029,91.194-28.746,143.223L2266.882,1150.954z"/>
				</g>
			</g>
			<g>
				<g>
					<path style="fill:#68A1BF;" d="M2358.55,1142.074c-5.523-4.52-8.514-7.464-8.649-7.599l3.199-3.197
						c0.625,0.626,63.68,62.561,155.692,58.771l0.185,4.518C2434.835,1197.621,2379.127,1158.913,2358.55,1142.074z"/>
				</g>
			</g>
			<g>
				<g>
					<path style="fill:#68A1BF;" d="M2404.915,1246.188c-21.263-23.203-27.515-46.555-29.015-62.058
						c-1.633-16.876,1.773-28.144,1.918-28.617l4.324,1.335c-0.133,0.433-12.822,43.802,26.11,86.285L2404.915,1246.188z"/>
				</g>
			</g>
		</g>
	</g>
	<g style="opacity:0.6;">
		<path style="fill:#ACC9C5;" d="M2422.357,995.275c16.243-2.674,21.924,1.692,22.972,8.058c1.048,6.366-2.934,12.323-19.177,14.997
			c-29.589,4.871-45.788-4.303-45.788-4.303S2392.336,1000.216,2422.357,995.275z"/>
	</g>
	<g style="opacity:0.6;">
		<path style="fill:#ACC9C5;" d="M2385.883,959.97c8.828-12.721,15.496-13.699,20.482-10.239c4.986,3.46,6.402,10.049-2.427,22.77
			c-16.082,23.172-32.882,28.107-32.882,28.107S2369.567,983.48,2385.883,959.97z"/>
	</g>
	<g>
		<g>
			<path style="fill:#ACC9C5;" d="M746.69,1098.983c0,0-108.335-310.118-191.38-277.56
				c-83.045,32.558,118.638,191.722,147.315,282.998L746.69,1098.983z"/>
		</g>
		<g>
			<g>
				<path style="fill:#92BCB5;" d="M787.037,1152.174c0,0-280.739-345.559-392.039-261.301
					c-111.301,84.259,250.586,187.379,328.43,290.718L787.037,1152.174z"/>
			</g>
			<g>
				<g>
					<path style="fill:#68A1BF;" d="M751.599,1168.943c-52.463-72.345-133.895-132.3-192.968-169.856
						c-64.044-40.715-116.306-64.591-116.827-64.827l1.477-3.25c0.522,0.237,53.013,24.216,117.265,65.064
						c59.336,37.723,141.15,97.972,193.942,170.772L751.599,1168.943z"/>
				</g>
			</g>
		</g>
		<g>
			<g>
				<g>
					<path style="fill:#CCD39C;" d="M764.247,1367.89c-16.485,39.667-93.55,51.269-127.93,33.102
						c-9.813-5.186-55.906-47.964-136.988-32.402c-58.163,11.133-65.714-40.124-90.98-76.955c-0.455-0.674-0.925-1.339-1.396-2.005
						c-9.741-13.629-22.163-25.025-40.875-30.12c-19.85-5.391-40.18-13.785-58.023-24.371c-1.482-0.87-2.948-1.765-4.399-2.682
						c-35.388-22.207-59.461-53.115-47.172-85.606c0.286-0.77,0.596-1.54,0.929-2.303c2.317-5.379,5.642-10.802,10.085-16.226
						c46.317-56.506,94.326-37.304,149.54-29.464c30.528,4.329,73.449-35.036,115.885-54.056c0.606-0.274,1.22-0.541,1.826-0.807
						c33.696-14.631,66.97-15.843,93.347,28.477c0,0.008,0.008,0.008,0.008,0.016c0.536,0.899,1.072,1.791,1.6,2.667
						C688.635,1172.742,867.302,997.857,764.247,1367.89z"/>
				</g>
			</g>
			<g>
				<g>
					<g>
						<path style="fill:#C2C68E;" d="M788.647,1301.713l2.843-3.782c-1.666-1.255-171.025-125.805-534.827-153.441l-0.359,4.721
							C618.741,1176.744,786.987,1300.467,788.647,1301.713z"/>
					</g>
				</g>
				<g>
					<g>
						<path style="fill:#C2C68E;" d="M462.971,1186.46c5.969-4.485,9.223-7.433,9.37-7.569l-3.206-3.48
							c-0.68,0.627-69.272,62.635-165.285,54.69l-0.389,4.714C380.827,1241.218,440.733,1203.17,462.971,1186.46z"/>
					</g>
				</g>
				<g>
					<g>
						<path style="fill:#C2C68E;" d="M409.998,1293.279c23.23-23.333,30.776-47.471,33.016-63.611
							c2.438-17.569-0.635-29.495-0.766-29.995l-4.578,1.208c0.12,0.458,11.506,46.34-31.029,89.06L409.998,1293.279z"/>
					</g>
				</g>
			</g>
		</g>
	</g>
	<g style="opacity:0.4;">
		<path style="fill:#FFFFFF;" d="M1811.059,352.012c0,0,20.579-39.594,72.651-34.633c52.072,4.961,45.873,44.65,70.669,40.93
			c24.796-3.721,59.511,0,66.95,24.806c7.439,24.806,40.914,11.163,42.154,32.247s-38.434,35.968-84.307,17.364
			c-45.873-18.604-68.19,14.453-132.66,8.467c-64.47-5.986-72.457-13.428-110.617-9.707c-38.16,3.721-37.254-22.417-19.896-39.782
			C1733.361,374.339,1803.62,375.992,1811.059,352.012z"/>
	</g>
	<g style="opacity:0.6;">
		<path style="fill:#FFFFFF;" d="M1235.525,495.573c0,0,11.633-22.383,41.07-19.578c29.436,2.805,25.932,25.241,39.949,23.138
			s33.642,0,37.847,14.023c4.205,14.023,23.129,6.31,23.829,18.229c0.701,11.919-21.727,20.333-47.659,9.816
			c-25.932-10.517-38.548,8.17-74.993,4.786c-36.445-3.384-40.96-7.591-62.532-5.487s-21.06-12.672-11.247-22.489
			S1231.319,509.129,1235.525,495.573z"/>
	</g>
	<g style="opacity:0.6;">
		<path style="fill:#FFFFFF;" d="M1582.05,253.939c0,0,12.835-24.695,45.313-21.601c32.478,3.094,28.611,27.849,44.077,25.528
			c15.466-2.321,37.117,0,41.757,15.472c4.64,15.471,25.518,6.962,26.291,20.113c0.773,13.151-23.972,22.434-52.583,10.83
			c-28.611-11.604-42.53,9.014-82.741,5.281c-40.21-3.734-45.192-8.375-68.993-6.055c-23.801,2.321-23.236-13.982-12.409-24.812
			C1533.589,267.865,1577.41,268.896,1582.05,253.939z"/>
	</g>
	<g style="opacity:0.6;">
		<path style="fill:#FFFFFF;" d="M763.749,332.69c0,0,16.707-32.145,58.982-28.117c42.275,4.028,37.242,36.25,57.373,33.229
			c20.131-3.021,48.314,0,54.353,20.139c6.039,20.139,33.216,9.063,34.223,26.18c1.006,17.118-31.203,29.201-68.445,14.097
			c-37.242-15.104-55.36,11.734-107.7,6.874c-52.34-4.86-58.825-10.902-89.805-7.881c-30.98,3.021-30.245-18.199-16.153-32.297
			C700.669,350.816,757.71,352.159,763.749,332.69z"/>
	</g>
	<g>
		<g>
			<path style="fill:#764678;" d="M2058.89,1411.428l43.261-0.282c25.914,3.281,48.402-22.455,48.402-55.394V563.103
				c0-32.795-22.302-58.484-48.119-55.428h-53.511c-22.622,2.678-347.062,69.381-347.062,98.117v704.298
				C1701.86,1338.689,2036.39,1408.579,2058.89,1411.428z"/>
		</g>
		<g>
			<path style="fill:#764678;" d="M1687.981,1365.484l360.658,45.661c25.914,3.281,48.402-22.455,48.402-55.394V563.103
				c0-32.795-22.302-58.484-48.119-55.428l-360.658,42.689c-22.622,2.678-39.916,26.692-39.916,55.428v704.298
				C1648.349,1338.689,1665.482,1362.636,1687.981,1365.484z"/>
		</g>
		<g>
			<path style="fill:#68A1BF;" d="M1670.042,618.613v637.181c0,25.877,15.13,47.544,35.009,50.119l180.94,23.464l137.614,17.846
				c22.89,2.965,42.758-20.314,42.758-50.12V579.987c0-29.675-19.7-52.912-42.505-50.152l-245.872,29.816l-72.692,8.81
				c-17.225,2.089-30.955,18.539-34.409,39.708C1670.326,611.546,1670.042,615.041,1670.042,618.613z"/>
		</g>
		<g>
			<path style="fill:#331832;" d="M2053.031,1411.875c-1.481,0-2.964-0.094-4.448-0.281l0.113-0.897
				c10.317,1.304,20.674-2.095,29.163-9.578c11.728-10.337,18.73-27.296,18.73-45.367V563.103c0-17.986-6.95-34.9-18.592-45.245
				c-8.433-7.494-18.736-10.948-29.021-9.734l-0.106-0.898c10.545-1.249,21.1,2.288,29.728,9.956
				c11.832,10.513,18.895,27.68,18.895,45.921v792.649c0,18.326-7.116,35.539-19.036,46.045
				C2070.989,1408.38,2062.099,1411.875,2053.031,1411.875z"/>
		</g>
		<g>
			<path style="fill:#86C5DF;" d="M1777.984,559.651l288.378,225.359V579.987c0-29.675-19.7-52.912-42.505-50.152L1777.984,559.651z
				"/>
		</g>
		<g>
			<path style="fill:#86C5DF;" d="M1670.042,618.613V831.19l396.321,134.384V870.65l-395.479-262.48
				C1670.326,611.546,1670.042,615.041,1670.042,618.613z"/>
		</g>
	</g>
	<g>
		<g>
			<path style="fill:#EF8062;" d="M1847.837,1015.004c33.838-37.45,87.706-61.26,145.213-9.3
				c37.45,33.838,40.645,94.762,10.746,135.427c-36.345,49.431-88.656,52.082-147.851,8.764
				C1815.212,1120.089,1805.532,1061.823,1847.837,1015.004z"/>
		</g>
		<g>
			<path style="fill:#FFB27D;" d="M1932.595,1168.017c-20.785,0.001-43.694-8.82-67.875-26.516
				c-17.792-13.019-28.79-31.89-30.966-53.136c-2.342-22.848,6.059-46.156,23.655-65.631l2.036,1.839l-2.036-1.839
				c11.671-12.916,30.822-29.184,55.784-33.336c24.469-4.072,48.552,4.42,71.583,25.23c32.098,29.002,36.363,82.308,9.51,118.831
				C1977.368,1156.47,1956.372,1168.015,1932.595,1168.017z M1861.48,1026.413c-16.542,18.307-24.45,40.111-22.269,61.394
				c2.017,19.68,12.227,37.177,28.748,49.268c24.585,17.991,47.594,26.522,68.379,25.326c20.679-1.179,38.688-12.009,53.526-32.191
				c25.233-34.318,21.299-84.341-8.768-111.509c-21.728-19.633-44.274-27.667-67.005-23.889
				C1890.691,998.703,1872.565,1014.145,1861.48,1026.413L1861.48,1026.413z"/>
		</g>
		<g>
			<g>
				<path style="fill:#FFB27D;" d="M1887.751,1121.394l3.493-5.302c1.271-1.928,0.852-4.483-0.926-5.957
					c-4.188-3.472-7.734-7.662-9.985-11.661c-1.092-1.941-0.569-4.392,1.199-5.745l1.222-0.935c2.139-1.637,5.215-1.029,6.59,1.287
					c2.653,4.471,6.56,8.921,11.597,12.239c8.583,5.655,16.295,2.465,20.965-4.624c4.506-6.84,4.029-12.259-2.46-21.885
					c-9.054-13.099-17.479-26.863-10.351-37.682c6.213-9.43,18.294-15.131,32.83-6.193c1.735,1.067,4.055-0.081,5.176-1.782
					l3.826-5.807c1.364-2.07,4.147-2.642,6.217-1.279l0,0c2.07,1.364,2.642,4.148,1.279,6.218l-3.19,4.841
					c-1.246,1.891-0.897,4.427,0.837,5.883c3.487,2.927,5.928,5.874,7.692,8.637c1.264,1.98,0.751,4.605-1.14,5.999l-1.195,0.881
					c-2.083,1.536-5.006,0.964-6.413-1.208c-1.976-3.05-5.069-6.746-10.099-10.06c-9.309-6.133-16.584-2.722-19.862,2.252
					c-4.26,6.467,1.848,11.38,9.416,22.786c9.011,13.427,12.029,25.969,5.793,37.665c-6.652,12.477-18.971,16.137-35.642,8.487
					c-1.853-0.85-4.06,0.078-5.182,1.78l-4.073,6.181c-1.364,2.07-4.147,2.643-6.217,1.279l-0.121-0.08
					C1886.96,1126.247,1886.388,1123.464,1887.751,1121.394z"/>
			</g>
		</g>
	</g>
	<g>
		<g>
			<polygon style="fill:#DA6F59;" points="1648.522,1550.065 1648.522,1533.817 1886.24,1532.345 1885.901,1550.065 			"/>
		</g>
		<g>
			<path style="fill:#DA6F59;" d="M1657.838,1533.361c21.631-17.999,70.976-33.828,155.874-23.014
				c55.289,7.042,84.172,28.427,68.213,47.043c-19.399,22.629-75.843,30.67-159,23.18
				C1665.705,1575.417,1630.795,1555.863,1657.838,1533.361z"/>
		</g>
		<g>
			<path style="fill:#EF8062;" d="M1657.838,1517.712c21.631-17.999,70.976-33.828,155.874-23.014
				c55.289,7.042,84.172,28.427,68.213,47.043c-19.399,22.629-75.843,30.669-159,23.18
				C1665.705,1559.768,1630.795,1540.214,1657.838,1517.712z"/>
		</g>
		<g>
			<path style="fill:#FFB27D;" d="M1777.349,1563.875c-14.448,0-30.334-0.776-47.571-2.329
				c-35.851-3.228-60.525-12.943-64.392-25.353c-1.283-4.117-0.932-10.588,8.029-18.043l0,0
				c11.61-9.661,47.902-30.943,133.97-19.983c33.487,4.265,57.389,14.959,62.377,27.908c1.98,5.14,0.873,10.37-3.203,15.123
				c-8.489,9.903-24.777,16.661-48.41,20.086C1806.23,1563.011,1792.59,1563.875,1777.349,1563.875z M1675.77,1520.98
				c-5.938,4.94-8.249,9.69-6.869,14.117c3.364,10.794,27.389,19.736,61.207,22.782c70.218,6.324,117.686-0.451,133.654-19.077
				c3.184-3.714,4.047-7.551,2.562-11.402c-4.433-11.507-27.751-21.548-59.407-25.579c-32.849-4.184-61.743-3.989-85.881,0.58
				C1696.497,1507.045,1682.876,1515.068,1675.77,1520.98L1675.77,1520.98z"/>
		</g>
		<g>
			<g>
				<path style="fill:#FFB27D;" d="M1746.048,1550.402l1.635-2.372c0.595-0.863-0.93-1.721-3.5-2.008
					c-6.052-0.676-11.699-1.695-15.84-2.823c-2.01-0.547-2.455-1.496-1.073-2.22l0.955-0.501c1.672-0.876,5.309-1.075,7.786-0.432
					c4.78,1.242,10.932,2.306,17.854,2.811c11.797,0.862,18.953-1.326,21.139-4.498c2.109-3.06-0.673-4.937-11.819-7.504
					c-15.415-3.464-30.414-7.251-27.078-12.092c2.908-4.219,13.824-7.899,33.537-6.668c2.352,0.147,4.427-0.579,4.951-1.34
					l1.791-2.598c0.638-0.926,3.462-1.508,6.307-1.301l0,0c2.845,0.208,4.634,1.127,3.995,2.053l-1.493,2.166
					c-0.583,0.846,0.856,1.707,3.37,1.993c5.055,0.576,8.968,1.3,12.058,2.051c2.215,0.538,2.744,1.547,1.244,2.303l-0.948,0.478
					c-1.652,0.832-5.105,1.024-7.558,0.436c-3.444-0.824-8.386-1.729-15.298-2.234c-12.794-0.935-19.377,1.273-20.912,3.499
					c-1.994,2.893,6.771,3.825,19.846,6.884c15.504,3.587,24.046,7.67,22.057,12.703c-2.122,5.37-14.151,8.35-35.675,7.871
					c-2.392-0.053-4.434,0.578-4.959,1.34l-1.906,2.766c-0.638,0.926-3.462,1.509-6.307,1.301l-0.166-0.012
					C1747.198,1552.248,1745.409,1551.328,1746.048,1550.402z"/>
			</g>
		</g>
	</g>
	<g>
		<g>
			<g>
				<polygon style="fill:#DA6F59;" points="1858.629,1453.128 1858.533,1435.594 2115.068,1432.6 2114.806,1451.726 				"/>
			</g>
			<g>
				<path style="fill:#DA6F59;" d="M1868.584,1435.047c23.238-19.552,76.396-36.926,168.082-25.758
					c59.708,7.273,91.005,30.181,73.893,50.365c-20.802,24.536-81.668,33.546-171.454,25.956
					C1877.323,1480.386,1839.533,1459.49,1868.584,1435.047z"/>
			</g>
			<g>
				<path style="fill:#EF8062;" d="M1868.492,1418.158c23.238-19.552,76.396-36.926,168.082-25.758
					c59.708,7.273,91.005,30.181,73.893,50.365c-20.802,24.536-81.668,33.546-171.454,25.956
					C1877.23,1463.498,1839.44,1442.601,1868.492,1418.158z"/>
			</g>
			<g>
				<path style="fill:#FFB27D;" d="M1995.317,1467.277c-14.94,0-31.277-0.746-48.929-2.238
					c-38.71-3.273-65.395-13.611-69.642-26.981c-1.408-4.435-1.067-11.42,8.558-19.518c12.472-10.494,51.516-33.681,144.46-22.358
					c36.165,4.404,62.022,15.804,67.482,29.749c2.167,5.535,1.003,11.186-3.367,16.34c-9.103,10.737-26.641,18.126-52.125,21.961
					C2028.274,1466.262,2012.747,1467.277,1995.317,1467.277z M1983.17,1397.148c-16.937,0-32.503,1.371-46.564,4.113
					c-26.456,5.158-41.109,13.896-48.742,20.319l0,0c-6.378,5.366-8.844,10.505-7.329,15.274
					c3.694,11.629,29.674,21.137,66.189,24.224c75.818,6.409,127.003-1.182,144.125-21.377c3.414-4.028,4.322-8.173,2.698-12.321
					c-4.853-12.392-30.076-23.09-64.262-27.254C2012.978,1398.14,1997.578,1397.148,1983.17,1397.148z"/>
			</g>
		</g>
		<g>
			<g>
				<polygon style="fill:#DA6F59;" points="1858.524,1433.806 1858.427,1416.271 2114.962,1413.278 2114.7,1432.403 				"/>
			</g>
			<g>
				<path style="fill:#DA6F59;" d="M1868.478,1415.724c23.238-19.552,76.396-36.926,168.082-25.758
					c59.708,7.273,91.005,30.181,73.892,50.365c-20.802,24.536-81.668,33.546-171.454,25.956
					C1877.217,1461.064,1839.427,1440.168,1868.478,1415.724z"/>
			</g>
			<g>
				<path style="fill:#EF8062;" d="M1868.386,1398.836c23.238-19.552,76.396-36.926,168.082-25.758
					c59.708,7.273,91.005,30.181,73.893,50.365c-20.802,24.536-81.668,33.546-171.454,25.956
					C1877.124,1444.175,1839.334,1423.279,1868.386,1398.836z"/>
			</g>
			<g>
				<path style="fill:#FFB27D;" d="M1995.211,1447.955c-14.94,0-31.277-0.746-48.929-2.238
					c-38.71-3.273-65.394-13.611-69.642-26.982c-1.408-4.435-1.067-11.42,8.558-19.519l1.279,1.52l-1.279-1.52
					c12.471-10.494,51.516-33.681,144.46-22.357c36.165,4.404,62.023,15.805,67.482,29.749c2.167,5.535,1.003,11.185-3.367,16.339
					c-9.103,10.738-26.64,18.127-52.125,21.962C2028.168,1446.94,2012.641,1447.955,1995.211,1447.955z M1983.062,1377.826
					c-16.936,0-32.501,1.371-46.562,4.112c-26.455,5.158-41.108,13.897-48.742,20.319c-6.378,5.366-8.844,10.505-7.33,15.275
					c3.694,11.628,29.674,21.138,66.189,24.225c75.816,6.41,127.002-1.182,144.125-21.378c3.414-4.027,4.322-8.172,2.698-12.32
					c-4.852-12.392-30.076-23.09-64.262-27.254C2012.872,1378.818,1997.47,1377.826,1983.062,1377.826z"/>
			</g>
		</g>
		<g>
			<g>
				<polygon style="fill:#DA6F59;" points="1880.002,1407.044 1879.906,1389.509 2136.441,1386.515 2136.179,1405.641 				"/>
			</g>
			<g>
				<path style="fill:#DA6F59;" d="M1889.957,1388.962c23.238-19.552,76.396-36.926,168.082-25.758
					c59.708,7.273,91.005,30.181,73.893,50.365c-20.802,24.536-81.668,33.546-171.454,25.956
					C1898.696,1434.301,1860.906,1413.405,1889.957,1388.962z"/>
			</g>
			<g>
				<path style="fill:#EF8062;" d="M1889.865,1372.073c23.238-19.552,76.397-36.926,168.082-25.758
					c59.708,7.273,91.005,30.181,73.893,50.365c-20.802,24.536-81.668,33.546-171.454,25.956
					C1898.603,1417.413,1860.813,1396.517,1889.865,1372.073z"/>
			</g>
			<g>
				<path style="fill:#FFB27D;" d="M2016.69,1421.192c-14.94,0-31.277-0.746-48.929-2.238c-38.71-3.273-65.395-13.611-69.641-26.982
					c-1.409-4.434-1.067-11.42,8.558-19.519l0,0c12.473-10.494,51.52-33.678,144.46-22.357
					c36.165,4.404,62.022,15.804,67.483,29.749c2.167,5.535,1.003,11.185-3.367,16.34c-9.103,10.737-26.64,18.126-52.125,21.961
					C2049.647,1420.177,2034.12,1421.192,2016.69,1421.192z M1909.236,1375.494c-6.378,5.367-8.844,10.506-7.329,15.275
					c3.694,11.629,29.674,21.137,66.189,24.224c75.819,6.409,127.002-1.182,144.126-21.377c3.414-4.028,4.321-8.173,2.698-12.321
					c-4.853-12.392-30.076-23.09-64.261-27.254c-35.477-4.321-66.657-3.94-92.679,1.134
					C1931.523,1360.333,1916.87,1369.072,1909.236,1375.494L1909.236,1375.494z"/>
			</g>
		</g>
		<g>
			<g>
				<polygon style="fill:#DA6F59;" points="1861.233,1374.205 1861.137,1356.67 2117.672,1353.677 2117.409,1372.802 				"/>
			</g>
			<g>
				<path style="fill:#DA6F59;" d="M1871.188,1356.123c23.238-19.552,76.396-36.926,168.082-25.758
					c59.708,7.273,91.005,30.181,73.892,50.365c-20.802,24.536-81.668,33.546-171.454,25.956
					C1879.927,1401.463,1842.136,1380.566,1871.188,1356.123z"/>
			</g>
			<g>
				<path style="fill:#EF8062;" d="M1871.095,1339.234c23.238-19.552,76.396-36.926,168.082-25.758
					c59.708,7.273,91.005,30.181,73.893,50.365c-20.802,24.536-81.668,33.546-171.454,25.956
					C1879.834,1384.574,1842.044,1363.678,1871.095,1339.234z"/>
			</g>
			<g>
				<path style="fill:#FFB27D;" d="M1997.921,1388.354c-14.94,0-31.277-0.746-48.929-2.238
					c-38.71-3.273-65.394-13.611-69.642-26.982c-1.408-4.435-1.067-11.42,8.558-19.519l1.279,1.52l-1.279-1.52
					c12.472-10.494,51.517-33.682,144.46-22.357c36.165,4.404,62.023,15.804,67.483,29.749c2.167,5.535,1.003,11.186-3.367,16.339
					c-9.103,10.738-26.64,18.127-52.125,21.962C2030.878,1387.339,2015.351,1388.354,1997.921,1388.354z M1985.771,1318.224
					c-16.936,0-32.501,1.371-46.563,4.112c-26.455,5.158-41.108,13.897-48.742,20.319c-6.378,5.366-8.844,10.505-7.329,15.275
					c3.694,11.629,29.675,21.138,66.189,24.225c75.817,6.409,127.002-1.182,144.125-21.378c3.414-4.027,4.322-8.172,2.698-12.32
					c-4.852-12.392-30.076-23.09-64.262-27.254C2015.582,1319.217,2000.18,1318.224,1985.771,1318.224z"/>
			</g>
			<g>
				<g>
					<path style="fill:#FFB27D;" d="M1966.484,1373.992l1.751-2.57c0.637-0.935-1.014-1.852-3.788-2.146
						c-6.536-0.693-12.635-1.761-17.111-2.953c-2.172-0.578-2.658-1.599-1.171-2.389l1.028-0.546
						c1.799-0.955,5.723-1.192,8.399-0.513c5.166,1.312,11.811,2.424,19.285,2.928c12.737,0.86,20.446-1.543,22.786-4.979
						c2.259-3.315-0.755-5.324-12.799-8.028c-16.656-3.647-32.866-7.645-29.293-12.889c3.114-4.571,14.872-8.606,36.153-7.394
						c2.539,0.145,4.774-0.651,5.336-1.475l1.917-2.814c0.684-1.003,3.728-1.648,6.799-1.441l0,0
						c3.072,0.208,5.007,1.189,4.324,2.192l-1.599,2.346c-0.624,0.916,0.934,1.837,3.649,2.131c5.458,0.591,9.686,1.35,13.025,2.142
						c2.394,0.567,2.97,1.654,1.356,2.478l-1.02,0.521c-1.778,0.908-5.504,1.135-8.154,0.516c-3.722-0.869-9.06-1.816-16.523-2.32
						c-13.813-0.933-20.904,1.488-22.547,3.9c-2.135,3.134,7.33,4.088,21.459,7.312c16.753,3.78,25.995,8.135,23.878,13.579
						c-2.259,5.808-15.222,9.095-38.454,8.705c-2.582-0.043-4.782,0.65-5.344,1.475l-2.041,2.996
						c-0.683,1.003-3.728,1.648-6.799,1.441l-0.179-0.012C1967.736,1375.977,1965.8,1374.995,1966.484,1373.992z"/>
				</g>
			</g>
		</g>
		<g>
			<g>
				<polygon style="fill:#DA6F59;" points="1863.864,1343.801 1863.768,1326.266 2120.302,1323.272 2120.04,1342.398 				"/>
			</g>
			<g>
				<path style="fill:#DA6F59;" d="M1873.819,1325.719c23.238-19.552,76.396-36.926,168.082-25.758
					c59.708,7.273,91.005,30.181,73.893,50.365c-20.802,24.536-81.668,33.547-171.454,25.956
					C1882.557,1371.059,1844.767,1350.162,1873.819,1325.719z"/>
			</g>
			<g>
				<path style="fill:#EF8062;" d="M1873.726,1308.83c23.238-19.552,76.396-36.926,168.082-25.758
					c59.708,7.273,91.005,30.181,73.893,50.365c-20.802,24.536-81.668,33.546-171.454,25.956
					C1882.465,1354.17,1844.675,1333.274,1873.726,1308.83z"/>
			</g>
			<g>
				<path style="fill:#FFB27D;" d="M2000.552,1357.95c-14.94,0-31.277-0.746-48.929-2.238c-38.71-3.273-65.395-13.611-69.641-26.982
					c-1.409-4.435-1.067-11.42,8.558-19.519l0,0c12.473-10.494,51.52-33.68,144.46-22.357c36.165,4.404,62.023,15.804,67.483,29.749
					c2.167,5.535,1.003,11.186-3.367,16.339c-9.103,10.738-26.641,18.127-52.125,21.962
					C2033.508,1356.934,2017.981,1357.95,2000.552,1357.95z M1893.098,1312.252c-6.378,5.366-8.844,10.505-7.329,15.274
					c3.694,11.629,29.675,21.138,66.189,24.225c75.816,6.41,127.002-1.182,144.125-21.378c3.414-4.027,4.322-8.172,2.698-12.32
					c-4.852-12.392-30.076-23.09-64.262-27.254c-35.477-4.32-66.657-3.94-92.679,1.134
					C1915.384,1297.09,1900.732,1305.829,1893.098,1312.252L1893.098,1312.252z"/>
			</g>
			<g>
				<g>
					<path style="fill:#FFB27D;" d="M1969.115,1343.588l1.751-2.57c0.637-0.935-1.014-1.852-3.789-2.146
						c-6.536-0.693-12.635-1.761-17.111-2.953c-2.172-0.578-2.659-1.599-1.171-2.389l1.028-0.546c1.799-0.955,5.723-1.192,8.4-0.512
						c5.166,1.312,11.811,2.423,19.285,2.928c12.737,0.86,20.446-1.543,22.786-4.979c2.258-3.315-0.755-5.323-12.799-8.028
						c-16.656-3.647-32.866-7.645-29.293-12.889c3.114-4.571,14.872-8.606,36.153-7.395c2.539,0.145,4.774-0.651,5.336-1.475
						l1.917-2.814c0.683-1.003,3.728-1.648,6.799-1.441l0,0c3.072,0.208,5.008,1.189,4.324,2.192l-1.599,2.347
						c-0.624,0.916,0.934,1.837,3.649,2.131c5.458,0.591,9.686,1.35,13.025,2.142c2.394,0.568,2.97,1.654,1.356,2.478l-1.02,0.521
						c-1.778,0.908-5.504,1.135-8.154,0.516c-3.722-0.87-9.06-1.816-16.523-2.32c-13.813-0.933-20.904,1.488-22.547,3.9
						c-2.135,3.134,7.33,4.088,21.459,7.312c16.753,3.78,25.996,8.135,23.878,13.579c-2.259,5.808-15.222,9.095-38.454,8.705
						c-2.582-0.043-4.782,0.65-5.344,1.475l-2.041,2.996c-0.684,1.003-3.728,1.648-6.799,1.441l-0.179-0.012
						C1970.367,1345.573,1968.431,1344.591,1969.115,1343.588z"/>
				</g>
			</g>
		</g>
		<g>
			<g>
				<polygon style="fill:#DA6F59;" points="1839.061,1305.766 1838.965,1288.231 2095.5,1285.238 2095.238,1304.363 				"/>
			</g>
			<g>
				<path style="fill:#DA6F59;" d="M1849.016,1287.684c23.238-19.552,76.396-36.926,168.082-25.758
					c59.708,7.273,91.005,30.181,73.893,50.365c-20.802,24.536-81.668,33.546-171.454,25.956
					C1857.755,1333.024,1819.964,1312.127,1849.016,1287.684z"/>
			</g>
			<g>
				<path style="fill:#EF8062;" d="M1848.924,1270.795c23.238-19.552,76.396-36.926,168.082-25.758
					c59.708,7.273,91.005,30.181,73.892,50.365c-20.802,24.536-81.668,33.546-171.454,25.956
					C1857.662,1316.135,1819.872,1295.239,1848.924,1270.795z"/>
			</g>
			<g>
				<path style="fill:#FFB27D;" d="M1975.749,1319.914c-14.94,0-31.278-0.746-48.929-2.238
					c-38.71-3.273-65.396-13.611-69.642-26.981c-1.408-4.435-1.066-11.42,8.558-19.519c12.471-10.494,51.512-33.682,144.459-22.358
					c36.165,4.404,62.023,15.804,67.483,29.749c2.167,5.535,1.003,11.186-3.367,16.34c-9.103,10.737-26.64,18.126-52.125,21.961
					C2008.706,1318.899,1993.179,1319.914,1975.749,1319.914z M1963.602,1249.785c-16.937,0-32.503,1.371-46.564,4.113
					c-26.456,5.158-41.109,13.896-48.742,20.319l0,0c-6.378,5.366-8.844,10.505-7.329,15.274
					c3.694,11.629,29.674,21.138,66.189,24.224c75.819,6.41,127.003-1.182,144.126-21.377c3.414-4.028,4.322-8.173,2.698-12.321
					c-4.853-12.392-30.077-23.09-64.263-27.254C1993.409,1250.778,1978.009,1249.785,1963.602,1249.785z"/>
			</g>
		</g>
		<g>
			<g>
				<polygon style="fill:#DA6F59;" points="1883.102,1280.346 1883.006,1262.811 2139.54,1259.818 2139.278,1278.943 				"/>
			</g>
			<g>
				<path style="fill:#DA6F59;" d="M1893.057,1262.264c23.238-19.552,76.396-36.926,168.082-25.758
					c59.708,7.273,91.005,30.181,73.893,50.365c-20.802,24.536-81.668,33.546-171.454,25.956
					C1901.795,1307.604,1864.005,1286.708,1893.057,1262.264z"/>
			</g>
			<g>
				<path style="fill:#EF8062;" d="M1892.964,1245.376c23.238-19.552,76.396-36.926,168.082-25.758
					c59.708,7.273,91.005,30.181,73.893,50.365c-20.802,24.536-81.668,33.546-171.454,25.956
					C1901.703,1290.715,1863.913,1269.819,1892.964,1245.376z"/>
			</g>
			<g>
				<path style="fill:#FFB27D;" d="M2019.79,1294.495c-14.94,0-31.277-0.746-48.929-2.238c-38.71-3.273-65.396-13.611-69.642-26.981
					c-1.408-4.435-1.066-11.42,8.558-19.518l1.28,1.52l-1.28-1.52c12.472-10.494,51.515-33.681,144.46-22.358
					c36.165,4.404,62.022,15.804,67.483,29.749c2.167,5.535,1.003,11.186-3.367,16.34c-9.103,10.737-26.64,18.126-52.125,21.961
					C2052.746,1293.48,2037.22,1294.495,2019.79,1294.495z M2007.642,1224.365c-16.936,0-32.503,1.371-46.564,4.113
					c-26.455,5.157-41.108,13.896-48.742,20.319c-6.378,5.366-8.844,10.505-7.329,15.274c3.694,11.629,29.675,21.138,66.189,24.225
					c75.82,6.41,127.003-1.181,144.126-21.378c3.414-4.028,4.322-8.173,2.698-12.321c-4.853-12.392-30.076-23.09-64.262-27.254
					C2037.45,1225.358,2022.05,1224.365,2007.642,1224.365z"/>
			</g>
			<g>
				<g>
					<path style="fill:#FFB27D;" d="M1988.353,1280.133l1.751-2.57c0.637-0.935-1.014-1.852-3.788-2.146
						c-6.536-0.694-12.635-1.761-17.111-2.953c-2.172-0.578-2.659-1.599-1.171-2.39l1.028-0.546
						c1.799-0.955,5.723-1.192,8.399-0.513c5.166,1.312,11.811,2.423,19.285,2.928c12.737,0.86,20.446-1.543,22.786-4.979
						c2.259-3.315-0.755-5.323-12.799-8.028c-16.656-3.647-32.866-7.645-29.293-12.889c3.114-4.571,14.872-8.606,36.153-7.394
						c2.539,0.145,4.774-0.651,5.336-1.475l1.917-2.814c0.683-1.003,3.727-1.648,6.799-1.441l0,0
						c3.072,0.208,5.007,1.189,4.324,2.192l-1.599,2.346c-0.624,0.916,0.934,1.837,3.649,2.131c5.458,0.591,9.686,1.35,13.025,2.142
						c2.394,0.568,2.97,1.654,1.356,2.478l-1.02,0.521c-1.778,0.908-5.504,1.135-8.154,0.516c-3.722-0.869-9.06-1.816-16.523-2.32
						c-13.813-0.933-20.904,1.488-22.547,3.899c-2.135,3.134,7.33,4.088,21.459,7.312c16.753,3.78,25.995,8.135,23.878,13.579
						c-2.259,5.808-15.222,9.095-38.454,8.705c-2.582-0.043-4.782,0.65-5.344,1.475l-2.041,2.996
						c-0.683,1.003-3.728,1.648-6.799,1.441l-0.179-0.012C1989.605,1282.118,1987.669,1281.137,1988.353,1280.133z"/>
				</g>
			</g>
		</g>
	</g>
	<g>
		<g>
			<path style="fill:#366F90;" d="M768.92,1423.403l-43.261-0.282c-25.914,3.281-48.402-22.456-48.402-55.394V575.078
				c0-32.795,22.302-58.484,48.119-55.428h53.511c22.622,2.678,347.063,69.381,347.063,98.117v704.299
				C1125.95,1350.665,791.42,1420.554,768.92,1423.403z"/>
		</g>
		<g>
			<path style="fill:#366F90;" d="M1139.829,1377.46l-360.658,45.661c-25.914,3.281-48.401-22.456-48.401-55.394V575.078
				c0-32.795,22.302-58.484,48.119-55.428l360.658,42.689c22.622,2.678,39.916,26.692,39.916,55.428v704.299
				C1179.462,1350.665,1162.328,1374.611,1139.829,1377.46z"/>
		</g>
		<g>
			<path style="fill:#68A1BF;" d="M1157.769,630.588v637.181c0,25.877-15.13,47.544-35.009,50.119l-180.94,23.464l-137.614,17.847
				c-22.89,2.965-42.758-20.314-42.758-50.12V591.962c0-29.675,19.7-52.912,42.505-50.152l245.872,29.816l72.692,8.81
				c17.225,2.089,30.955,18.539,34.409,39.708C1157.484,623.521,1157.769,627.017,1157.769,630.588z"/>
		</g>
		<g>
			<path style="fill:#331832;" d="M774.779,1423.85c-9.069,0-17.958-3.495-25.427-10.078c-11.92-10.505-19.036-27.719-19.036-46.045
				V575.079c0-18.241,7.063-35.407,18.894-45.921c8.63-7.668,19.191-11.203,29.729-9.957l-0.106,0.898
				c-10.282-1.214-20.589,2.24-29.023,9.735c-11.641,10.345-18.591,27.259-18.591,45.245v792.649c0,18.07,7.002,35.03,18.73,45.367
				c8.489,7.482,18.843,10.88,29.163,9.578l0.113,0.897C777.744,1423.757,776.258,1423.85,774.779,1423.85z"/>
		</g>
		<g>
			<path style="fill:#86C5DF;" d="M1049.826,571.627L761.448,796.986V591.962c0-29.675,19.7-52.912,42.505-50.152L1049.826,571.627z
				"/>
		</g>
		<g>
			<path style="fill:#86C5DF;" d="M1157.769,630.588v212.578L761.448,977.55v-94.925l395.479-262.481
				C1157.484,623.521,1157.769,627.017,1157.769,630.588z"/>
		</g>
	</g>
	<g>
		<path style="fill:#331832;" d="M967.162,507.933c-0.084,0-0.17-0.021-0.248-0.066c-0.243-0.138-0.328-0.445-0.191-0.688
			c0.022-0.038,2.209-3.882,6.842-10.136c0.165-0.224,0.482-0.272,0.706-0.105c0.224,0.166,0.271,0.482,0.105,0.706
			c-4.591,6.198-6.753,9.994-6.774,10.032C967.509,507.841,967.338,507.933,967.162,507.933z M981.497,488.336
			c-0.115,0-0.23-0.039-0.324-0.119c-0.213-0.179-0.241-0.498-0.062-0.711c2.544-3.027,5.256-6.086,8.062-9.093
			c0.19-0.204,0.51-0.214,0.713-0.025c0.203,0.19,0.215,0.51,0.024,0.714c-2.794,2.994-5.494,6.04-8.027,9.054
			C981.784,488.275,981.641,488.336,981.497,488.336z M998.022,470.599c-0.131,0-0.262-0.051-0.362-0.153
			c-0.195-0.199-0.19-0.519,0.009-0.714c2.858-2.786,5.846-5.572,8.881-8.28c0.208-0.185,0.526-0.168,0.712,0.04
			c0.186,0.208,0.168,0.527-0.04,0.712c-3.024,2.698-6.001,5.474-8.848,8.25C998.276,470.551,998.149,470.599,998.022,470.599z
			 M1016.098,454.462c-0.146,0-0.291-0.063-0.391-0.185c-0.177-0.216-0.145-0.534,0.07-0.71c3.098-2.538,6.309-5.06,9.544-7.497
			c0.222-0.168,0.54-0.123,0.706,0.099c0.168,0.223,0.124,0.539-0.099,0.707c-3.224,2.429-6.424,4.943-9.512,7.471
			C1016.324,454.424,1016.211,454.462,1016.098,454.462z M1035.444,439.88c-0.16,0-0.317-0.076-0.415-0.217
			c-0.159-0.229-0.102-0.544,0.127-0.702c3.294-2.285,6.692-4.546,10.099-6.722c0.235-0.151,0.547-0.081,0.697,0.154
			c0.15,0.235,0.081,0.547-0.154,0.697c-3.397,2.169-6.784,4.424-10.068,6.701C1035.643,439.851,1035.543,439.88,1035.444,439.88z
			 M1055.854,426.84c-0.173,0-0.341-0.089-0.436-0.249c-0.141-0.24-0.061-0.549,0.18-0.691c3.455-2.031,7.01-4.035,10.566-5.957
			c0.246-0.133,0.552-0.041,0.684,0.204c0.133,0.245,0.041,0.551-0.204,0.684c-3.545,1.915-7.089,3.914-10.534,5.939
			C1056.029,426.818,1055.941,426.84,1055.854,426.84z M1077.156,415.322c-0.186,0-0.364-0.103-0.453-0.281
			c-0.124-0.249-0.022-0.552,0.228-0.676c3.588-1.781,7.274-3.531,10.953-5.204c0.255-0.114,0.554-0.003,0.669,0.251
			c0.115,0.254,0.003,0.553-0.251,0.668c-3.67,1.667-7.344,3.413-10.923,5.189C1077.308,415.305,1077.231,415.322,1077.156,415.322z
			 M1513.816,413.091c-0.065,0-0.129-0.013-0.193-0.039c-3.702-1.53-7.486-3.037-11.247-4.479c-0.261-0.1-0.391-0.392-0.291-0.652
			c0.1-0.26,0.394-0.391,0.652-0.291c3.769,1.445,7.561,2.955,11.272,4.489c0.257,0.107,0.38,0.402,0.273,0.659
			C1514.202,412.974,1514.014,413.091,1513.816,413.091z M1099.199,405.298c-0.198,0-0.385-0.117-0.466-0.311
			c-0.107-0.257,0.015-0.553,0.273-0.66c3.689-1.532,7.482-3.036,11.271-4.47c0.26-0.098,0.552,0.033,0.651,0.293
			c0.098,0.261-0.033,0.552-0.293,0.651c-3.78,1.43-7.562,2.93-11.241,4.458C1099.329,405.285,1099.264,405.298,1099.199,405.298z
			 M1491.192,404.416c-0.056,0-0.113-0.009-0.169-0.029c-3.777-1.34-7.63-2.652-11.453-3.901c-0.264-0.087-0.409-0.371-0.323-0.636
			c0.086-0.265,0.371-0.41,0.637-0.323c3.829,1.251,7.691,2.567,11.477,3.909c0.262,0.093,0.4,0.382,0.307,0.645
			C1491.595,404.286,1491.4,404.416,1491.192,404.416z M1468.17,396.89c-0.047,0-0.097-0.007-0.145-0.022
			c-3.833-1.15-7.746-2.273-11.631-3.338c-0.269-0.074-0.427-0.352-0.353-0.62c0.075-0.269,0.349-0.426,0.621-0.354
			c3.892,1.068,7.813,2.193,11.653,3.345c0.268,0.08,0.419,0.361,0.339,0.628C1468.588,396.749,1468.387,396.89,1468.17,396.89z
			 M1121.846,396.728c-0.21,0-0.406-0.132-0.478-0.341c-0.09-0.264,0.05-0.551,0.314-0.642c3.788-1.299,7.666-2.564,11.526-3.759
			c0.263-0.086,0.549,0.066,0.631,0.333c0.083,0.266-0.066,0.549-0.333,0.631c-3.851,1.193-7.719,2.454-11.496,3.75
			C1121.955,396.72,1121.9,396.728,1121.846,396.728z M1444.812,390.481c-0.04,0-0.081-0.005-0.122-0.015
			c-3.868-0.965-7.829-1.905-11.774-2.795c-0.271-0.061-0.442-0.332-0.381-0.603c0.062-0.272,0.331-0.443,0.604-0.381
			c3.952,0.892,7.921,1.834,11.796,2.801c0.27,0.067,0.435,0.341,0.368,0.612C1445.245,390.328,1445.039,390.481,1444.812,390.481z
			 M1144.974,389.563c-0.221,0-0.424-0.146-0.486-0.37c-0.075-0.269,0.083-0.547,0.351-0.622c3.854-1.071,7.799-2.107,11.725-3.078
			c0.269-0.067,0.543,0.097,0.611,0.369c0.067,0.271-0.098,0.545-0.369,0.611c-3.916,0.969-7.851,2.003-11.697,3.071
			C1145.064,389.557,1145.019,389.563,1144.974,389.563z M1421.183,385.147c-0.033,0-0.067-0.003-0.101-0.01
			c-3.917-0.794-7.915-1.561-11.885-2.279c-0.274-0.05-0.456-0.312-0.407-0.587c0.05-0.275,0.315-0.453,0.587-0.407
			c3.976,0.719,7.982,1.487,11.906,2.284c0.273,0.055,0.449,0.322,0.395,0.595C1421.629,384.982,1421.418,385.147,1421.183,385.147z
			 M1168.476,383.741c-0.232,0-0.441-0.161-0.493-0.397c-0.059-0.272,0.113-0.541,0.385-0.601c3.908-0.854,7.903-1.672,11.875-2.431
			c0.274-0.048,0.538,0.128,0.591,0.401c0.052,0.274-0.128,0.538-0.401,0.591c-3.963,0.757-7.949,1.573-11.849,2.426
			C1168.548,383.737,1168.512,383.741,1168.476,383.741z M1397.349,380.832c-0.027,0-0.054-0.002-0.081-0.007
			c-3.946-0.631-7.973-1.234-11.969-1.793c-0.276-0.039-0.468-0.294-0.429-0.57c0.039-0.275,0.29-0.465,0.569-0.43
			c4.003,0.56,8.036,1.164,11.989,1.796c0.275,0.044,0.463,0.303,0.419,0.578C1397.807,380.655,1397.592,380.832,1397.349,380.832z
			 M1192.259,379.195c-0.243,0-0.457-0.176-0.498-0.423c-0.045-0.275,0.141-0.535,0.416-0.58c3.94-0.648,7.972-1.26,11.983-1.818
			c0.286-0.034,0.532,0.155,0.569,0.43c0.038,0.276-0.154,0.531-0.43,0.57c-4.003,0.557-8.027,1.167-11.959,1.814
			C1192.314,379.192,1192.286,379.195,1192.259,379.195z M1373.358,377.474c-0.02,0-0.04-0.001-0.061-0.004
			c-3.975-0.479-8.023-0.929-12.029-1.339c-0.278-0.028-0.479-0.276-0.451-0.553c0.028-0.277,0.287-0.479,0.553-0.451
			c4.013,0.41,8.066,0.862,12.047,1.341c0.277,0.034,0.474,0.285,0.441,0.561C1373.828,377.286,1373.61,377.474,1373.358,377.474z
			 M1216.241,375.855c-0.253,0-0.472-0.19-0.501-0.447c-0.032-0.277,0.167-0.527,0.444-0.559c3.976-0.456,8.032-0.874,12.056-1.242
			c0.283-0.02,0.523,0.18,0.548,0.457c0.025,0.278-0.179,0.523-0.457,0.548c-4.016,0.367-8.064,0.784-12.032,1.239
			C1216.28,375.853,1216.26,375.855,1216.241,375.855z M1349.26,375.009c-0.014,0-0.029-0.001-0.043-0.002
			c-3.964-0.336-8.025-0.645-12.069-0.919c-0.278-0.019-0.488-0.26-0.469-0.538c0.018-0.278,0.245-0.493,0.538-0.469
			c4.05,0.275,8.116,0.584,12.086,0.92c0.278,0.024,0.484,0.268,0.46,0.546C1349.741,374.81,1349.52,375.009,1349.26,375.009z
			 M1240.354,373.648c-0.263,0-0.485-0.204-0.503-0.47c-0.019-0.278,0.191-0.519,0.469-0.538c3.99-0.275,8.061-0.511,12.099-0.701
			c0.271-0.012,0.515,0.202,0.528,0.48c0.014,0.279-0.202,0.515-0.48,0.528c-4.031,0.19-8.094,0.425-12.078,0.7
			C1240.378,373.648,1240.366,373.648,1240.354,373.648z M1325.092,373.368c-0.009,0-0.018,0-0.026-0.001
			c-3.989-0.205-8.057-0.384-12.093-0.53c-0.279-0.01-0.496-0.244-0.486-0.523c0.01-0.279,0.233-0.492,0.523-0.486
			c4.04,0.147,8.114,0.325,12.108,0.531c0.279,0.014,0.492,0.252,0.478,0.53C1325.582,373.159,1325.359,373.368,1325.092,373.368z
			 M1264.546,372.505c-0.272,0-0.497-0.217-0.504-0.492c-0.008-0.279,0.212-0.51,0.491-0.518c3.94-0.103,7.967-0.169,11.97-0.195
			l0.155-0.001c0.279,0,0.505,0.226,0.505,0.505c0,0.279-0.226,0.505-0.505,0.505l-0.147,0.001
			c-3.997,0.026-8.018,0.091-11.951,0.194C1264.555,372.505,1264.551,372.505,1264.546,372.505z M1300.883,372.49
			c-0.004,0-0.007,0-0.011,0c-3.984-0.086-8.057-0.144-12.104-0.174c-0.279-0.002-0.503-0.23-0.501-0.508
			c0.002-0.279,0.195-0.484,0.509-0.501c4.052,0.03,8.13,0.089,12.119,0.174c0.279,0.006,0.5,0.237,0.494,0.515
			C1301.381,372.27,1301.157,372.49,1300.883,372.49z"/>
	</g>
	<g>
		<g>
			<path style="fill:#EF8062;" d="M1423.11,467.337c-12.367-51.081-1.249-111.391,77.188-130.381
				c51.081-12.367,105.368,20.625,122.811,70.203c21.204,60.266-7.204,106.824-79.197,132.337
				C1494.375,557.051,1438.571,531.197,1423.11,467.337z"/>
		</g>
		<g>
			<path style="fill:#FFB27D;" d="M1514.59,531.797c-12.723,0-25.21-3.122-36.63-9.306c-21.03-11.39-36.154-32.291-42.584-58.854
				l0,0c-4.266-17.617-7.026-43.635,4.047-67.545c10.853-23.436,32.285-39.176,63.699-46.782
				c43.776-10.599,92.141,17.003,107.808,61.53c18.5,52.577-6.037,93.838-69.091,116.183
				C1532.838,530.213,1523.654,531.797,1514.59,531.797z M1522.362,352.746c-5.987,0-11.983,0.685-17.896,2.116
				c-29.636,7.175-49.775,21.854-59.858,43.629c-10.38,22.415-7.73,47.067-3.679,63.801l0,0
				c6.046,24.97,20.164,44.565,39.753,55.174c18.115,9.81,39.157,11.291,59.249,4.171c29.9-10.596,50.728-25.389,61.902-43.968
				c11.117-18.482,12.364-40.329,3.708-64.933C1592.941,376.927,1557.909,352.746,1522.362,352.746z"/>
		</g>
		<g>
			<g>
				<path style="fill:#FFB27D;" d="M1538.052,495.411l-2.512-6.116c-0.914-2.224-3.357-3.363-5.668-2.698
					c-5.444,1.566-11.129,2.159-15.89,1.749c-2.311-0.199-4.112-2.086-4.239-4.402l-0.087-1.6c-0.153-2.801,2.174-5.09,4.973-4.914
					c5.403,0.34,11.523-0.411,17.333-2.797c9.901-4.067,11.68-12.573,8.322-20.749c-3.24-7.889-8.183-10.658-20.271-10.722
					c-16.58,0.104-33.364-0.721-38.49-13.201c-4.468-10.878-2.285-24.615,13.931-31.876c1.935-0.867,2.309-3.536,1.503-5.497
					l-2.751-6.698c-0.981-2.388,0.16-5.118,2.547-6.099l0,0c2.388-0.981,5.118,0.16,6.099,2.548l2.294,5.584
					c0.896,2.18,3.282,3.369,5.552,2.731c4.564-1.283,8.531-1.654,11.943-1.55c2.445,0.074,4.402,2.055,4.493,4.5l0.057,1.545
					c0.099,2.693-2.108,4.872-4.802,4.808c-3.784-0.089-8.777,0.404-14.578,2.786c-10.737,4.41-12.071,12.67-9.714,18.408
					c3.064,7.459,10.874,5.086,25.127,5.267c16.838,0.125,29.398,4.887,35.802,17.112c6.832,13.042,2.753,25.787-13.608,35.641
					c-1.818,1.095-2.315,3.538-1.508,5.502l2.928,7.13c0.981,2.388-0.16,5.118-2.547,6.099l-0.139,0.057
					C1541.763,498.94,1539.033,497.799,1538.052,495.411z"/>
			</g>
		</g>
	</g>
	<g>
		<g>
			<path style="fill:#EF8062;" d="M1109.957,344.946c12.577-35.309,42.773-66.951,96.992-47.637
				c35.309,12.577,54.811,53.471,45.85,89.867c-10.893,44.242-46.032,60.923-98.955,48.02
				C1117.428,426.316,1094.233,389.089,1109.957,344.946z"/>
		</g>
		<g>
			<path style="fill:#FFB27D;" d="M1185.4,430.608c-8.535,0-17.858-1.212-27.92-3.666c-15.906-3.878-28.813-13.701-36.343-27.659
				c-8.099-15.012-8.957-33.391-2.416-51.753l1.919,0.684l-1.919-0.684c4.337-12.177,12.856-28.781,28.803-38.721
				c15.632-9.743,34.568-10.762,56.283-3.026c30.262,10.779,48.335,46.142,40.286,78.831
				C1236.654,414.832,1216.179,430.606,1185.4,430.608z M1176.709,304.741c-9.945,0-18.982,2.51-27.03,7.526
				c-14.951,9.319-23,25.063-27.121,36.63l0,0c-6.148,17.261-5.38,34.468,2.164,48.451c6.975,12.93,18.952,22.034,33.722,25.635
				c21.98,5.358,40.186,4.669,54.112-2.05c13.854-6.684,23.133-19.232,27.58-37.295c7.563-30.716-9.348-63.921-37.697-74.019
				C1193.305,306.368,1184.713,304.741,1176.709,304.741z"/>
		</g>
		<g>
			<g>
				<path style="fill:#FFB27D;" d="M1167.57,406.603l0.891-4.63c0.324-1.684-0.69-3.318-2.328-3.824
					c-3.86-1.192-7.484-3.06-10.164-5.164c-1.301-1.021-1.638-2.851-0.809-4.283l0.573-0.989c1.003-1.731,3.286-2.188,4.887-0.989
					c3.09,2.314,7.036,4.257,11.434,5.103c7.496,1.441,11.881-2.938,13.071-9.129c1.149-5.973-0.719-9.556-7.906-14.317
					c-9.934-6.415-19.625-13.465-17.808-22.914c1.584-8.236,8.253-15.579,20.766-13.577c1.493,0.239,2.759-1.208,3.045-2.693
					l0.975-5.071c0.348-1.808,2.095-2.991,3.903-2.644l0,0c1.808,0.348,2.991,2.095,2.644,3.903l-0.813,4.228
					c-0.318,1.651,0.642,3.293,2.245,3.798c3.224,1.018,5.737,2.346,7.732,3.741c1.43,1,1.824,2.946,0.922,4.44l-0.57,0.944
					c-0.993,1.646-3.161,2.083-4.743,0.993c-2.223-1.531-5.395-3.188-9.787-4.033c-8.13-1.563-12.152,2.844-12.988,7.188
					c-1.086,5.647,4.501,7.283,12.934,12.959c9.997,6.653,15.631,14.401,14.676,24.197c-1.019,10.451-8.432,16.462-22.044,15.949
					c-1.513-0.057-2.764,1.207-3.05,2.694l-1.038,5.398c-0.348,1.808-2.095,2.991-3.903,2.644l-0.105-0.02
					C1168.406,410.158,1167.222,408.41,1167.57,406.603z"/>
			</g>
		</g>
	</g>
	<g>
		<g>
			<g>
				<path style="fill:#CCD39C;" d="M934.168,953.08c28.523,5.381,84.904,16.409,127.051-13.048
					c23.795-16.63,42.765-39.85,43.556-40.425l-31.162-44.273l15.581,22.137l-15.536-22.169
					c-16.226,11.701-43.073,47.389-80.687,38.204c-17.077-4.175-36.95-6.755-57.522-37.069l-54.281,18.928
					C898.234,909.368,893.257,947.028,934.168,953.08z"/>
			</g>
		</g>
		<g>
			<path style="fill:#FFB27D;" d="M1031.037,905.47c0,0,17.72-26.194,35.732-34.261c18.011-8.067,29.432-1.375,29.432-1.375
				l19.328-7.659c0,0,2.771,72.765-47.463,59.945C1064.101,921.108,1031.037,905.47,1031.037,905.47z"/>
		</g>
		<g>
			<path style="fill:#331832;" d="M1112.652,824.245l-18.462,105.474c-1.208,6.903-7.92,11.454-14.839,10.063l-49.468-9.944
				c-6.652-1.337-11.023-7.685-9.862-14.322l18.195-103.942c1.182-6.754,7.647-11.286,14.457-10.134l49.735,8.413
				C1109.248,811.01,1113.839,817.461,1112.652,824.245z"/>
		</g>
		<g>
			<path style="fill:#DAEBE8;" d="M1104.919,820.965c-0.051-1.811-1.572-3.239-3.397-3.189c-1.826,0.05-3.264,1.56-3.213,3.372
				c0.051,1.812,1.572,3.239,3.397,3.189C1103.531,824.286,1104.97,822.777,1104.919,820.965z"/>
		</g>
		<g>
			<g>
				<path style="fill:#FFB27D;" d="M1124.04,864.651c0,0,6.508-14.168-6.565-19.972c-16.657-7.396-44.554-0.76-34.064,4.07
					c9.3,4.282,23.978,7.224,23.978,7.224s-37.424-6.964-36.224,1.242c1.2,8.206,33.461,13.76,33.461,13.76
					s-37.078-3.369-33.415,4.018c3.663,7.388,32.924,12.612,32.924,12.612s-36.059-5.231-31.601,3.252
					c4.457,8.483,23.655,7.437,31.891,8.838c7.782,1.324,11.162-3.226,11.911-10.767c0,0,5.144-7.078,4.379-12.127
					c-0.293-1.936,1.776-3.458,2.172-4.78C1123.642,869.49,1124.04,864.651,1124.04,864.651z"/>
			</g>
		</g>
		<g>
			<path style="fill:#331832;" d="M742.385,1068.407c0.197,7.63,46.689,10.66,104.19,8.88c57.502-1.78,103.451-9.671,103.255-17.302
				c-0.197-7.63-46.466-12.11-103.967-10.329C788.361,1051.436,742.189,1060.777,742.385,1068.407z"/>
		</g>
		<g>
			<path style="fill:#CCD39C;" d="M756.461,852.394c0,0,10.168-39.993,85.189-40.399c108.188-0.585,98.17,98.066,108.18,247.991
				c0,0-65.592-27.175-207.445,8.421C742.385,1068.407,732.969,913.502,756.461,852.394z"/>
		</g>
		<g>
			<path style="fill:#CCD39C;" d="M730.08,853.25l47.688,20.313c0,0,109.623,23.999,138.104,19.343
				c28.481-4.657,33.959-16.206,33.959-16.206s-30.335-54.683-81.894-62.999c-4.844-0.788-9.868-1.366-15.078-1.702
				c-8.745-0.559-17.456,0.183-26.062,0.514C770.089,814.695,730.08,853.25,730.08,853.25z"/>
		</g>
		<g>
			<path style="fill:#FFB27D;" d="M831.336,802.842L837,784.704l1.648-5.28l9.692-31.048l1.275,30.884l0.763,18.537l0.242,5.868
				c0.164,3.983,2.611,4.82,5.588,8.282c1.206,1.402,8.926,9.906,0.165,13.747c-10.914,4.786-31.317-2.46-39.075-11.952
				C817.358,813.728,829.506,808.703,831.336,802.842z"/>
		</g>
		<g>
			<path style="fill:#5C305D;" d="M873.28,736.718c0,0,1.976,7.515,0,16.938c-1.976,9.422-11.633-13.738-11.633-13.738
				L873.28,736.718z"/>
		</g>
		<g>
			
				<ellipse transform="matrix(0.9908 -0.1357 0.1357 0.9908 -95.2787 121.9266)" style="fill:#FFB27D;" cx="846.861" cy="759.965" rx="27.799" ry="33.275"/>
		</g>
		<g>
			<g>
				<path style="fill:#080435;" d="M848.324,758.571c0.145-0.091,0.246-0.245,0.261-0.427c0.026-0.307-0.204-0.577-0.514-0.603
					c-0.182-0.015-4.381-0.76-6.496,3.669c-0.133,0.279-0.026,0.613,0.253,0.75c0.279,0.138,0.56-0.011,0.756-0.251
					c1.963-2.405,5.242-3.065,5.393-3.053C848.104,758.666,848.224,758.634,848.324,758.571z"/>
			</g>
		</g>
		<g>
			<path style="fill:#080435;" d="M845.88,765.746c0.354,1.288,1.404,2.125,2.346,1.87c0.941-0.255,1.418-1.505,1.064-2.793
				c-0.354-1.288-1.404-2.125-2.346-1.87C846.003,763.208,845.527,764.458,845.88,765.746z"/>
		</g>
		<g>
			<g>
				<path style="fill:#080435;" d="M869.175,756.911c0.13-0.023,0.246-0.12,0.305-0.279c0.1-0.267,0.002-0.605-0.219-0.756
					c-0.13-0.089-3.023-2.487-5.746,0.648c-0.172,0.198-0.18,0.543-0.011,0.782c0.169,0.239,0.415,0.22,0.622,0.083
					c2.078-1.367,4.664-0.617,4.772-0.544C868.988,756.906,869.085,756.926,869.175,756.911z"/>
			</g>
		</g>
		<g>
			<path style="fill:#080435;" d="M864.035,762.643c-0.167,1.324,0.483,2.495,1.451,2.616c0.968,0.12,1.889-0.856,2.056-2.18
				c0.167-1.324-0.483-2.495-1.451-2.616C865.123,760.342,864.202,761.318,864.035,762.643z"/>
		</g>
		<g>
			<path style="fill:#5C305D;" d="M800.775,754.915c0,0,9.292,19.904,22.472,21.364c0,0-10.657-15.168,11.805-24.412
				C835.052,751.867,814.429,748.647,800.775,754.915z"/>
		</g>
		<g>
			<path style="fill:#FFB27D;" d="M819.354,765.899c2.819,1.78,6.403,1.196,8.005-1.304c1.603-2.5,0.617-5.969-2.202-7.748
				c-2.819-1.78-6.403-1.196-8.005,1.304C815.55,760.65,816.536,764.12,819.354,765.899z"/>
		</g>
		<g>
			<path style="fill:#5C305D;" d="M835.052,751.867c0,0-1.799,16.703,1.627,19.86s26.045,4.516,36.601,0.468l0,0
				c0.176,10.727-7.443,20.197-18.104,21.974c-3.527,0.588-7.175,0.592-10.799-0.036l0,0c-7.39-1.282-14.574-4.315-17.621-11.118
				c-0.927-2.07,1.77-14.805,1.77-14.805s1.014-7.474-3.367-11.362C825.158,756.847,830.216,752.336,835.052,751.867z"/>
		</g>
		<g>
			<path style="fill:#331832;" d="M835.052,751.867c0,0-1.857-11.68,7.369-12.512c9.226-0.832,19.749-2.372,23.369,0
				c3.619,2.373,7.943,11.685,7.943,11.685s5.061-17.512-4.214-25.003c-9.275-7.491-38.841-17.349-57.712-4.305
				c-18.872,13.044-11.032,33.183-11.032,33.183S814.253,750.838,835.052,751.867z"/>
		</g>
		<g>
			<path style="fill:#331832;" d="M822.256,721.732c0,0-13.91-11.401-10.764-19.831c3.145-8.43,17.869-5.761,23.56-4.443
				c5.691,1.319,6.654,11.403,2.084,17.91S822.256,721.732,822.256,721.732z"/>
		</g>
		<g>
			<path style="fill:#366F90;" d="M843.676,1436.048c6.674-0.362,12.869,3.071,16.145,8.852c1.54,2.718,3.783,5.188,7.049,6.539
				c10.042,4.154,39.137,7.903,28.265,17.372c-6.238,5.433-35.638,1.922-43.938,1.922c-8.301,0-16.094,3.59-22.263-1.924
				c-3.695-3.302-3.366-13.756-2.299-22.594c0.769-6.376,6.566-11.099,12.984-10.283c0.972,0.124,1.955,0.186,2.921,0.161
				C842.926,1436.083,843.305,1436.068,843.676,1436.048z"/>
		</g>
		<g>
			<path style="fill:#366F90;" d="M741.136,1432.554c0,0,0.372,14.728,10.413,18.882c10.042,4.154,39.137,7.903,28.265,17.372
				c-6.238,5.433-35.638,1.922-43.938,1.922c-8.301,0-16.094,3.59-22.263-1.924c-6.786-6.066,0.001-36.253,0.001-36.253
				s7.163,3.703,13.604,3.537C736.501,1435.851,741.136,1432.554,741.136,1432.554z"/>
		</g>
		<g>
			<path style="fill:#331832;" d="M918.704,1062.092c4.538,0.48,8.135,3.998,8.683,8.495c1.093,8.965,1.27,27.903-4.143,67.198
				c-7.953,57.729-38.023,268.391-43.018,296.468c-1.787,10.043-3.832,16.225-18.501,18.343l-19.482-0.38
				c-15.861,2.29-21.97-14.607-22.082-25.417l12.754-324.512l-50.7-38.387c0,0,37.946-4.813,80.842-4.779
				C887.286,1059.14,908.419,1061.004,918.704,1062.092z"/>
		</g>
		<g>
			<path style="fill:#331832;" d="M870.997,1072.859l-111.749,356.243c-4.677,14.912-18.205,25.129-33.616,25.391l-6.717,0.114
				c-15.859,0.269-27.982-14.284-25.09-30.119l61.13-334.737c0.888-3.979,3.16-21.565,7.027-22.672
				C782.942,1061.081,873.055,1058.126,870.997,1072.859z"/>
		</g>
		<g>
			<path style="fill:#020202;" d="M821.049,1232.089l-1.778-0.589l24.032-72.502c5.55-16.743,16.968-30.719,32.151-39.351
				l0.925,1.628c-14.778,8.403-25.894,22.009-31.298,38.312L821.049,1232.089z"/>
		</g>
		<g>
			<path style="fill:#5C305D;" d="M826.755,783.014c0,0,0.089,11.484,8.297,17.935c8.207,6.451,2.778,12.069,10.001,21.225
				c7.223,9.156-1.374,9.364,11.417,16.023c12.791,6.659,22.436,0.624,19.92-9.572c-2.516-10.196,8.597-7.491,3.355-20.393
				s-9.058-4.994-4.634-18.728c4.424-13.734-1.831-17.31-1.831-17.31s-7.069,0.48-12.779,1.495c-5.71,1.014-10.841-0.768-14.828,0.5
				C841.686,775.458,826.755,783.014,826.755,783.014z"/>
		</g>
		<g>
			<path style="fill:#FFFFFF;" d="M867.708,778.219c0,0-8.667,2.327-18.136,1.417c0,0,1.39,8.702,10.972,6.969
				C866.115,785.597,867.708,778.219,867.708,778.219z"/>
		</g>
		<g>
			<path style="fill:#5C305D;" d="M863.011,959.631c0-2.022,1.652-3.661,3.689-3.661c2.037,0,3.689,1.639,3.689,3.661
				c0,2.022-1.651,3.661-3.689,3.661C864.662,963.292,863.011,961.653,863.011,959.631z"/>
		</g>
		<g>
			<path style="fill:#5C305D;" d="M863.011,1012.497c0-2.022,1.652-3.661,3.689-3.661c2.037,0,3.689,1.639,3.689,3.661
				s-1.651,3.661-3.689,3.661C864.662,1016.158,863.011,1014.519,863.011,1012.497z"/>
		</g>
		<g>
			<g>
				<path style="fill:#331832;" d="M942.839,956.027c-2.057-33.223-18.692-75.903-18.859-76.328l1.747-0.678
					c0.175,0.426,16.914,43.373,18.986,76.88L942.839,956.027z"/>
			</g>
		</g>
		<g>
			<g>
				<path style="fill:#EF8062;" d="M1016.249,1314.115l-434.88-129.28c-23.386-6.952-36.847-31.402-30.216-54.881l65.608-232.295
					c7.123-25.222,34.352-38.896,58.837-29.548l436.338,166.59c22.473,8.58,34.095,33.433,26.271,56.18l-67.066,194.985
					C1063.366,1308.468,1039.159,1320.926,1016.249,1314.115z"/>
			</g>
			<g>
				<path style="fill:#D96048;" d="M589.198,1132.372l-1.241,3.609c-1.067,3.103,1.386,6.759,5.479,8.167l83.662,28.776
					c4.093,1.408,8.276,0.034,9.343-3.069l0,0c1.025-2.979-1.196-6.495-5.061-8.013l-82.421-32.385
					C594.771,1127.811,590.309,1129.143,589.198,1132.372z"/>
			</g>
			<g>
				<path style="fill:#D96048;" d="M703.696,1171.754l-1.241,3.609c-1.067,3.103,1.386,6.759,5.479,8.167l83.662,28.776
					c4.093,1.408,8.276,0.034,9.344-3.069l0,0c1.025-2.979-1.196-6.495-5.061-8.013l-82.421-32.385
					C709.269,1167.193,704.807,1168.526,703.696,1171.754z"/>
			</g>
			<g>
				<path style="fill:#D96048;" d="M666.34,908.093l-1.73,5.03c-1.487,4.324,1.931,9.42,7.635,11.382l116.598,40.104
					c5.704,1.962,11.534,0.047,13.022-4.277l0,0c1.428-4.151-1.667-9.052-7.053-11.168l-114.867-45.135
					C674.107,901.737,667.888,903.594,666.34,908.093z"/>
			</g>
			<g>
				<path style="fill:#D96048;" d="M825.913,962.979l-1.73,5.03c-1.487,4.324,1.931,9.42,7.635,11.382l116.598,40.104
					c5.704,1.962,11.534,0.047,13.022-4.277l0,0c1.428-4.151-1.667-9.051-7.053-11.168l-114.867-45.135
					C833.68,956.623,827.46,958.48,825.913,962.979z"/>
			</g>
			<g>
				<polygon style="fill:#331832;" points="603.417,953.673 584.637,1011.4 1100.759,1199.754 1123.832,1132.673 				"/>
			</g>
			<g>
				<path style="fill:#331832;" d="M1023.851,1294.577l-43.645-12.982c-4.62-1.374-7.28-6.203-5.973-10.843l9.856-34.984
					c1.44-5.112,7.04-7.8,11.929-5.727l43.887,18.607c4.264,1.808,6.403,6.607,4.896,10.986l-10.098,29.359
					C1033.166,1293.461,1028.38,1295.924,1023.851,1294.577z"/>
			</g>
		</g>
		<g>
			<path style="fill:#FFB27D;" d="M770.458,1056.349c-9.876-9.916-18.708-24.551-18.708-24.551s12.851-20.477,15.815-20.695
				c11.441-0.841,26.09,4.433,32.944,4.558c2.972,0.054,12.95,0.926,13.279,3.89c0.286,2.576-7.987,5.655-12.098,6.647
				c15.845,11.51,33.79,35.429-1.174,13.733c-0.011,0.019-0.024,0.039-0.036,0.058c3.332,2.522,25.388,20.392,20.265,23.536
				c-4.522,2.774-21.732-10.557-27.257-14.647c-0.044,0.047-0.088,0.094-0.132,0.142c5.254,4.646,21.582,18.141,16.438,19.387
				c-6.456,1.565-25.649-10.429-25.649-10.429s19.206,13.264,11.974,15.985c-4.932,1.855-18.833-11.339-23.885-15.694
				C771.502,1057.637,770.923,1056.995,770.458,1056.349z"/>
		</g>
		<g>
			<path style="fill:#CCD39C;" d="M756.425,834.138c0,0-208.696,106.061-4.675,197.659c0,0,22.377-13.104,26.92-28.845
				c0,0-38.865-51.578-31.294-65.711c7.571-14.133,59.055-44.337,59.055-44.337L756.425,834.138z"/>
		</g>
	</g>
	<g>
		<g>
			<g>
				<path style="fill:#FFFFFF;" d="M1600.89,765.547c0,0,17.695-34.37,17.946-35.381c0,0-20.174-3.106-23.021,5.686
					c-0.986,3.046,2.416,4.232,2.416,4.232s-3.086,3.069-3.765,7.275C1593.022,756.309,1600.89,765.547,1600.89,765.547
					L1600.89,765.547z"/>
			</g>
			<g>
				<path style="fill:#331832;" d="M1752.101,1182.859c-9.157,27.028-19.331,97.505-19.144,158.767
					c0.104,32.079,1.493,63.01,4.911,76.79c1.167,4.703-2.385,9.25-7.231,9.25h-25.231c-7.935,0-15.07-4.848-17.995-12.225
					c-8.2-20.678-13.029-38.184-18.766-58.843c-47.285-170.215-15.795-310.345-15.795-310.345S1801.764,1036.275,1752.101,1182.859z
					"/>
			</g>
			<g>
				<path style="fill:#331832;" d="M1703.404,1427.663c0,0-0.366,14.594-10.24,18.71c-9.875,4.116-38.486,7.831-27.795,17.213
					c6.134,5.384,35.045,1.906,43.207,1.906c8.163,0,15.827,3.557,21.892-1.906c6.673-6.01-2.181-45.948-2.181-45.948
					s-5.265-1.563-11.599-1.728C1707.56,1415.673,1703.404,1427.663,1703.404,1427.663z"/>
			</g>
			<g>
				<path style="fill:#331832;" d="M1696.451,1129.388c-12.991,25.409-52.915,154.144-52.728,215.407
					c0.105,32.422,4.586,60.436,7.201,74.059c0.901,4.696-2.513,9.121-7.283,9.459l-13.027,0.923l-13.798-1.081
					c-3.877-0.304-7.258-2.769-8.726-6.37c-9.952-24.418-15.877-48.998-22.2-71.769c-47.285-170.215-14.291-295.653-14.291-295.653
					S1719.156,1084.966,1696.451,1129.388z"/>
			</g>
			<g>
				<path style="fill:#331832;" d="M1618.488,1427.663c0,0-0.366,14.594-10.24,18.71s-38.486,7.831-27.795,17.213
					c6.134,5.384,35.045,1.906,43.207,1.906c8.163,0,15.827,3.557,21.892-1.906c6.673-6.01,0-35.923,0-35.923
					s-9.604-12.575-15.938-12.74C1620.486,1414.686,1618.488,1427.663,1618.488,1427.663z"/>
			</g>
			<g>
				<path style="fill:#EF8062;" d="M1551.3,869.871c0,0,22.171,135.629,0,234.345c0,0-7.857,9.872,14.847,13.327
					s63.093-33.728,113.358-8.062c50.265,25.666,96.46,7.897,96.659,4.607c0.199-3.29,7.28-133.808-55.713-261.374l-130.552-8.087
					L1551.3,869.871z"/>
			</g>
			<g>
				<path style="fill:#EF8062;" d="M1538.406,859.61l54.229,56.388l47.232-48.749l76.031,12.932l36.574-32.637
					c0,0-22.665-20.649-70.977-29.484c-12.379-2.271-25.705-3.514-39.624-3.06c-17.285,0.572-30.043,4.509-40.355,7.423
					C1556.44,835.163,1538.406,859.61,1538.406,859.61z"/>
			</g>
			<g>
				<path style="fill:#FFB27D;" d="M1735.402,1028.334c0,0-18.853-19.5-33.482-18.004c-14.629,1.497-32.184,14.469-22.919,15.467
					s21.456-0.998,21.456-0.998s-25.844,5.488-21.943,10.977c3.901,5.488,26.332,0.499,26.332,0.499s-30.233,8.981-24.87,12.972
					c5.364,3.991,28.283-2.994,28.283-2.994s-27.795,9.48-21.456,13.97c6.339,4.49,22.919-7.983,26.82-2.495
					c3.901,5.488,11.216,26.942,27.795,17.961L1735.402,1028.334z"/>
			</g>
			<g>
				<path style="fill:#E9845C;" d="M1700.648,1025.308l-0.381-1.017c0.302-0.113,7.431-2.732,11.375,0.066l-0.627,0.886
					C1707.537,1022.778,1700.717,1025.282,1700.648,1025.308z"/>
			</g>
			<g>
				<path style="fill:#E9845C;" d="M1705.046,1036.78l-0.399-1.01c0.289-0.114,7.155-2.77,13.4,0.009l-0.44,0.992
					C1711.781,1034.182,1705.111,1036.753,1705.046,1036.78z"/>
			</g>
			<g>
				<path style="fill:#E9845C;" d="M1708.452,1046.761l-0.383-1.017c0.358-0.133,8.776-3.243,12.733,0.094l-0.701,0.83
					C1716.627,1043.734,1708.532,1046.73,1708.452,1046.761z"/>
			</g>
			<g>
				<path style="fill:#331832;" d="M1629.942,943.371c0-2.937-2.655-6.003-5.592-6.003s-5.822,1.647-5.822,4.584
					c0,2.937,2.472,6.458,5.409,6.458C1626.874,948.41,1629.942,946.308,1629.942,943.371z"/>
			</g>
			<g>
				<path style="fill:#331832;" d="M1629.942,997.336c0-2.937-2.655-6.003-5.592-6.003s-5.822,1.647-5.822,4.584
					c0,2.937,2.472,6.457,5.409,6.457C1626.874,1002.374,1629.942,1000.273,1629.942,997.336z"/>
			</g>
			<g>
				<path style="fill:#331832;" d="M1627.35,1050.051c0-2.937-2.655-6.003-5.592-6.003s-5.822,1.647-5.822,4.584
					s2.472,6.458,5.409,6.458C1624.282,1055.089,1627.35,1052.988,1627.35,1050.051z"/>
			</g>
			<g>
				<path style="fill:#FFB27D;" d="M1776.164,1042.877c0,0-26.333,34.454-41.372,34.937c-16.37,0.526,0.287-52.017,0.287-52.017
					l12.703-7.711L1776.164,1042.877z"/>
			</g>
			<g>
				<g>
					<g>
						<path style="fill:#EF8062;" d="M1784.144,1044.048c-19.063,21.871-54.621-12.831-49.064-18.251
							c16.308-15.873,17.501-43.205,14.184-74.34c-2.65-24.973-3.109-47.264-27.774-62.925c-2.544-1.615,2.236-2.969,1.557-5.905
							c-5.22-22.567,15.803-35.083,29.426-35.083c35.028,22.223,56.807,64.141,60.628,100.044
							C1816.782,982.177,1810.708,1013.575,1784.144,1044.048z"/>
					</g>
				</g>
			</g>
			<g>
				<path style="fill:#331832;" d="M1735.534,1026.017l-0.909-0.438c0.277-0.573,27.416-57.664,6.357-93.861l0.873-0.508
					C1763.184,967.872,1735.813,1025.44,1735.534,1026.017z"/>
			</g>
			<g>
				
					<rect x="1557.219" y="912.135" transform="matrix(0.9963 -0.0858 0.0858 0.9963 -73.6266 136.9977)" style="fill:#331832;" width="1.01" height="26.632"/>
			</g>
			<g>
				<path style="fill:#331832;" d="M1618.788,904.481l-0.304-0.297c-0.058-0.057-5.962-5.826-12.121-13.743
					c-5.701-7.33-12.797-18.062-14.227-27.561c-2.707-17.991-4.012-36.034-4.025-36.214l1.006-0.072
					c0.013,0.18,1.316,18.185,4.018,36.136c2.511,16.691,23.005,37.683,25.751,40.431c3.738-2.738,36.387-26.844,43.694-39.084
					c7.794-13.057,34.909-42.339,35.182-42.634l0.74,0.686c-0.272,0.294-27.316,29.499-35.056,42.465
					c-7.821,13.101-42.828,38.559-44.314,39.636L1618.788,904.481z"/>
			</g>
			<g>
				<path style="fill:#331832;" d="M1691.231,829.571c-0.076-0.04-7.692-3.958-13.266-3.482l-0.086-1.005
					c5.863-0.51,13.495,3.424,13.818,3.591L1691.231,829.571z"/>
			</g>
			<g>
				<path style="fill:#331832;" d="M1687.692,833.617c-0.094-0.038-9.477-3.798-13.285-3.56l-0.059-1.008
					c4.007-0.227,13.327,3.473,13.72,3.631L1687.692,833.617z"/>
			</g>
			<g>
				<path style="fill:#331832;" d="M1682.141,839.904c-0.096-0.049-9.611-4.922-11.899-5.35l0.185-0.992
					c2.432,0.454,11.778,5.24,12.174,5.444L1682.141,839.904z"/>
			</g>
			<g>
				<path style="fill:#331832;" d="M1676.566,846.474c-0.333-0.172-8.203-4.229-11.398-6.615l0.604-0.809
					c3.128,2.336,11.175,6.484,11.256,6.526L1676.566,846.474z"/>
			</g>
			<g>
				<path style="fill:#331832;" d="M1670.817,853.391c-0.08-0.064-7.998-6.425-9.682-7.509l0.546-0.849
					c1.729,1.113,9.441,7.307,9.769,7.571L1670.817,853.391z"/>
			</g>
			<g>
				<path style="fill:#331832;" d="M1665.184,861.544c-0.387-0.267-9.498-6.57-11.594-9.146l0.783-0.637
					c2.005,2.465,11.291,8.888,11.384,8.952L1665.184,861.544z"/>
			</g>
			<g>
				<path style="fill:#331832;" d="M1659.083,869.477c-0.374-0.398-9.168-9.752-10.642-11.471l0.765-0.658
					c1.46,1.702,10.521,11.34,10.611,11.437L1659.083,869.477z"/>
			</g>
			<g>
				<path style="fill:#331832;" d="M1652.068,875.822c-0.331-0.289-8.109-7.118-9.736-10.13l0.888-0.48
					c1.543,2.853,9.435,9.781,9.514,9.851L1652.068,875.822z"/>
			</g>
			<g>
				<path style="fill:#331832;" d="M1646.701,881.711c-0.394-0.357-9.677-8.769-11.062-12.401l0.943-0.359
					c1.299,3.407,10.701,11.925,10.796,12.011L1646.701,881.711z"/>
			</g>
			<g>
				<path style="fill:#331832;" d="M1638.432,888.588c-0.244-0.356-5.998-8.762-7.604-12.965l0.943-0.36
					c1.564,4.092,7.434,12.668,7.493,12.754L1638.432,888.588z"/>
			</g>
			<g>
				<path style="fill:#331832;" d="M1630.874,893.879c-0.849-1.323-8.302-13.01-8.47-15.857l1.008-0.059
					c0.129,2.186,6.044,11.836,8.312,15.37L1630.874,893.879z"/>
			</g>
			<g>
				<path style="fill:#331832;" d="M1622.404,900.83c-0.18-3.813-0.828-14.056-1.659-15.636l0.893-0.47
					c1.086,2.065,1.707,14.632,1.774,16.058L1622.404,900.83z"/>
			</g>
			<g>
				<path style="fill:#331832;" d="M1612.19,896.534l-0.814-0.597c0.076-0.104,7.677-10.484,9.353-14.269l0.924,0.409
					C1619.932,885.961,1612.506,896.104,1612.19,896.534z"/>
			</g>
			<g>
				<path style="fill:#331832;" d="M1606.255,889.442l-0.645-0.777c0.432-0.358,10.62-8.801,14.056-11.093l0.561,0.84
					C1616.833,880.675,1606.36,889.355,1606.255,889.442z"/>
			</g>
			<g>
				<path style="fill:#331832;" d="M1601.189,882.265l-0.634-0.785c0.364-0.295,9.003-7.25,15.749-9.88l0.367,0.941
					C1610.069,875.114,1601.277,882.193,1601.189,882.265z"/>
			</g>
			<g>
				<path style="fill:#331832;" d="M1595.566,872.569l-0.149-0.998c10.752-1.611,22.27-3.999,22.931-5.205l0.989,0.178
					C1619.209,867.483,1615.952,869.514,1595.566,872.569z"/>
			</g>
			<g>
				<path style="fill:#331832;" d="M1592.806,863.281l-0.34-0.951c0.695-0.248,17.075-6.065,21.87-6.23l0.034,1.009
					C1609.731,857.269,1592.974,863.221,1592.806,863.281z"/>
			</g>
			<g>
				<path style="fill:#331832;" d="M1591.222,852.582l-0.104-1.004c0.17-0.018,16.957-1.748,19.877-2.145l0.136,1
					C1608.194,850.832,1591.391,852.565,1591.222,852.582z"/>
			</g>
			<g>
				<path style="fill:#331832;" d="M1589.95,845.128l-0.099-1.005c0.13-0.013,13.072-1.278,17.24-1.883l0.146,0.999
					C1603.045,843.849,1590.08,845.116,1589.95,845.128z"/>
			</g>
			<g>
				<path style="fill:#331832;" d="M1599.254,837.621c-4.206,0-8.554-0.301-9.391-0.361l0.074-1.007
					c5.958,0.434,15.386,0.669,16.929-0.458l0.595,0.816C1606.381,837.399,1602.87,837.621,1599.254,837.621z"/>
			</g>
			<g>
				<path style="fill:#331832;" d="M1589.958,830.636l-0.117-1.003c0.477-0.055,11.711-1.347,14.697-1.012l-0.113,1.004
					C1601.546,829.301,1590.073,830.623,1589.958,830.636z"/>
			</g>
			<g>
				<path style="fill:#92A5E6;" d="M1610.668,862.284c5.143,12.774,10.523,22.675,10.523,22.675
					c1.757-0.365,9.358-7.887,18.677-17.71c18.312-19.319,43.257-47.512,43.257-47.512l-1.629-1.678
					c-12.379-2.271-25.705-3.514-39.624-3.06c-17.285,0.572-30.405,3.445-40.355,7.423
					C1600.618,833.923,1605.525,849.53,1610.668,862.284z"/>
			</g>
			<g>
				<path style="fill:#FFB27D;" d="M1662.82,815.567c-6.769-2.941-11.684-5.718-13.786-11.886l-6.505-19.083l-1.893-5.556
					l-11.132-32.667l-0.424,32.817l-0.252,19.697l-0.08,6.235c-0.054,4.232-2.606,5.193-5.64,8.955
					c-1.229,1.524-9.107,10.778,0.236,14.595c11.638,4.758,31.781-2.767,39.669-13.071
					C1662.949,815.592,1662.88,815.593,1662.82,815.567z"/>
			</g>
			<g>
				<path style="fill:#331832;" d="M1642.61,784.061c-0.021,0.179-0.049,0.358-0.082,0.537
					c-1.707,10.443-13.636,14.356-13.636,14.356l-0.065-0.064l0.252-19.697c3.627-0.955,8.748-1.815,11.557-0.15
					C1642.105,779.912,1642.94,781.47,1642.61,784.061z"/>
			</g>
			<g>
				<path style="fill:#FFB27D;" d="M1598.725,752.704c1.662-19.166,15.835-32.088,31.788-32.207
					c12.168-0.091,22.133,1.566,29.506,17.737c2.667,5.85-3.106,12.201-3.736,19.461c-0.104,1.198-0.257,2.377-0.456,3.535
					c-2.991,17.371-16.431,29.964-31.332,28.672C1608.602,788.524,1597.064,771.87,1598.725,752.704z"/>
			</g>
			<g>
				<g>
					<path style="fill:#FFFFFF;" d="M1620.198,753.664c-0.23-0.131-0.397-0.365-0.433-0.648c-0.06-0.477,0.276-0.913,0.753-0.975
						c0.281-0.036,6.721-1.483,10.295,5.274c0.225,0.426,0.082,0.953-0.34,1.186c-0.421,0.233-0.866,0.021-1.186-0.34
						c-3.2-3.612-8.314-4.417-8.547-4.389C1620.545,753.796,1620.357,753.754,1620.198,753.664z"/>
				</g>
			</g>
			<g>
				<path style="fill:#080435;" d="M1624.885,761.373c-0.308,1.363-1.359,2.287-2.349,2.063c-0.989-0.224-1.541-1.51-1.233-2.873
					c0.308-1.363,1.359-2.287,2.349-2.063C1624.641,758.724,1625.193,760.01,1624.885,761.373z"/>
			</g>
			<g>
				<g>
					<path style="fill:#FFFFFF;" d="M1600.44,753.216c-0.179-0.023-0.343-0.147-0.433-0.354c-0.154-0.35-0.043-0.803,0.248-1.015
						c0.172-0.124,3.953-3.458,7.872,0.561c0.247,0.253,0.282,0.712,0.068,1.038c-0.214,0.326-0.55,0.314-0.842,0.143
						c-2.922-1.706-6.395-0.576-6.538-0.474C1600.694,753.201,1600.563,753.232,1600.44,753.216z"/>
				</g>
			</g>
			<g>
				<path style="fill:#080435;" d="M1605.898,758.958c0.234,1.378-0.386,2.632-1.385,2.802c-1,0.17-2-0.809-2.234-2.186
					c-0.234-1.378,0.386-2.632,1.385-2.802C1604.663,756.602,1605.663,757.581,1605.898,758.958z"/>
			</g>
			<g>
				<g>
					<path style="fill:#020202;" d="M1620.354,781.039c-6.64,0-11.075-5.519-11.13-5.588c-0.139-0.177-0.109-0.434,0.069-0.574
						c0.176-0.139,0.434-0.11,0.573,0.068c0.258,0.326,6.41,7.959,15.132,4.307c0.209-0.086,0.449,0.011,0.535,0.219
						c0.087,0.208-0.011,0.447-0.219,0.534C1623.56,780.74,1621.897,781.039,1620.354,781.039z"/>
				</g>
				<g>
					<path style="fill:#020202;" d="M1625.354,781.736c-0.044,0-0.089-0.007-0.134-0.023c-0.213-0.074-0.326-0.307-0.253-0.52
						c0.194-0.56,0.277-1.58-0.428-3.259c-0.027-0.063-0.045-0.107-0.052-0.129c-0.073-0.214,0.042-0.446,0.256-0.518
						c0.211-0.072,0.443,0.042,0.517,0.253c0.679,1.618,0.829,2.911,0.48,3.922C1625.682,781.63,1625.524,781.736,1625.354,781.736z
						"/>
				</g>
			</g>
			<g>
				<path style="fill:#FFFFFF;" d="M1640.085,741.826c-0.054-1.984,0.052-4.235,1.714-5.492c0.943-0.712,2.22-0.953,3.455-1.076
					c2.327-0.233,4.722-0.135,6.973-0.685c2.251-0.549,2.199-2.856,2.646-4.925c1.984,0.138,6.257,1.196,8.066,1.982
					c1.809,0.785,3.36,2.365,3.388,4.156c0.029,1.792-1.98,3.483-3.879,2.907c2.7,2.146,4.876,4.828,6.321,7.788
					c0.818,1.678,1.376,3.701,0.334,5.226c-1.042,1.525-4.272,1.517-4.694-0.267c-0.301,9.111-4.438,17.98-11.395,24.427
					c-0.525,0.487-1.083,0.971-1.782,1.23c-6.006,2.221-2.948-7.285-4.218-17.427
					C1646.05,751.974,1640.132,743.516,1640.085,741.826L1640.085,741.826z"/>
			</g>
			<g>
				<path style="fill:#E0905E;" d="M1621.589,739.072c-0.073,0-0.146-0.019-0.213-0.059c-5.135-3.089-10.191-1.912-10.24-1.9
					c-0.225,0.056-0.446-0.082-0.5-0.304c-0.054-0.222,0.083-0.446,0.305-0.5c0.219-0.054,5.439-1.268,10.862,1.995
					c0.196,0.118,0.26,0.372,0.142,0.568C1621.866,739.001,1621.729,739.072,1621.589,739.072z"/>
			</g>
			<g>
				<path style="fill:#E0905E;" d="M1621.88,735.474c-0.073,0-0.146-0.019-0.213-0.059c-5.138-3.091-10.191-1.913-10.24-1.9
					c-0.226,0.055-0.446-0.082-0.5-0.304c-0.054-0.222,0.083-0.446,0.305-0.5c0.22-0.054,5.437-1.27,10.862,1.995
					c0.196,0.118,0.26,0.372,0.142,0.568C1622.157,735.403,1622.02,735.474,1621.88,735.474z"/>
			</g>
			<g>
				<path style="fill:#E0905E;" d="M1623.853,766.943c-1.179,0-2.541-0.321-3.981-1.281c-0.226-0.151-0.287-0.458-0.137-0.684
					c0.151-0.227,0.456-0.289,0.685-0.137c3.704,2.471,6.693,0.128,6.818,0.027c0.214-0.169,0.523-0.137,0.694,0.073
					c0.172,0.212,0.14,0.521-0.071,0.693C1627.837,765.653,1626.214,766.943,1623.853,766.943z"/>
			</g>
			<g>
				<path style="fill:#E0905E;" d="M1604.901,765.104c-1.179,0-2.541-0.321-3.981-1.281c-0.226-0.151-0.287-0.458-0.137-0.685
					c0.153-0.227,0.458-0.287,0.685-0.137c3.704,2.47,6.693,0.128,6.818,0.027c0.214-0.169,0.524-0.137,0.694,0.073
					c0.172,0.212,0.14,0.521-0.071,0.693C1608.885,763.814,1607.262,765.104,1604.901,765.104z"/>
			</g>
			<g>
				<path style="fill:#FFB27D;" d="M1650.808,763.2c-2.844,1.99-6.591,1.544-8.37-0.997c-1.779-2.541-0.915-6.215,1.928-8.205
					c2.844-1.99,6.591-1.544,8.37,0.997S1653.651,761.21,1650.808,763.2z"/>
			</g>
			<g>
				<g>
					<g>
						<path style="fill:#EF8062;" d="M1598.521,771.985c-3.626-2.08-6.262-7.21-7.05-13.722c-1.235-10.2,2.538-20.567,8.413-23.11
							c2.071-0.896,4.215-0.769,6.2,0.37c3.626,2.08,6.262,7.21,7.05,13.723c1.235,10.2-2.538,20.567-8.413,23.11
							c-0.909,0.393-1.833,0.589-2.75,0.589C1600.798,772.945,1599.634,772.625,1598.521,771.985z M1600.344,736.217
							c-5.437,2.353-8.901,12.18-7.723,21.908c0.734,6.059,3.215,10.986,6.476,12.857c1.655,0.949,3.44,1.057,5.164,0.311
							c5.437-2.353,8.901-12.181,7.723-21.908l0,0c-0.734-6.059-3.215-10.986-6.477-12.857c-0.929-0.533-1.9-0.801-2.878-0.801
							C1601.866,735.726,1601.099,735.889,1600.344,736.217z"/>
					</g>
				</g>
				<g style="opacity:0.3;">
					<path style="fill:#FFFFFF;" d="M1640.655,754.074c0.417,9.792-4.401,19.277-10.76,21.186
						c-6.359,1.909-11.851-4.482-12.268-14.274c-0.417-9.792,4.401-19.277,10.76-21.186
						C1634.746,737.892,1640.238,744.282,1640.655,754.074z"/>
				</g>
				<g style="opacity:0.3;">
					
						<ellipse transform="matrix(0.1204 -0.9927 0.9927 0.1204 661.3583 2254.3782)" style="fill:#FFFFFF;" cx="1602.807" cy="753.99" rx="18.33" ry="10.271"/>
				</g>
				<g>
					<g>
						<path style="fill:#EF8062;" d="M1622.073,774.055c-3.63-2.596-5.972-7.887-6.264-14.153
							c-0.488-10.456,4.809-20.617,11.807-22.651c2.671-0.776,5.296-0.319,7.592,1.322c3.63,2.596,5.972,7.886,6.264,14.153
							c0.488,10.456-4.809,20.617-11.807,22.651c-0.846,0.246-1.687,0.368-2.515,0.368
							C1625.364,775.745,1623.641,775.176,1622.073,774.055z M1627.939,738.363c-6.515,1.893-11.438,11.531-10.973,21.485
							c0.276,5.915,2.437,10.874,5.781,13.265c1.996,1.428,4.277,1.825,6.596,1.152c6.515-1.893,11.437-11.531,10.973-21.485
							c-0.276-5.915-2.437-10.874-5.781-13.265c-1.365-0.976-2.863-1.471-4.415-1.471
							C1629.401,738.044,1628.672,738.15,1627.939,738.363z"/>
					</g>
				</g>
				<g>
					<path style="fill:#FFFFFF;" d="M1609.752,758.911c-0.363,0-0.717-0.182-0.921-0.513c-0.313-0.508-0.156-1.174,0.352-1.488
						c0.161-0.1,4.012-2.415,9.426-0.113c0.549,0.233,0.806,0.868,0.572,1.418c-0.234,0.549-0.867,0.805-1.419,0.572
						c-4.393-1.867-7.415-0.055-7.444-0.036C1610.142,758.859,1609.946,758.911,1609.752,758.911z"/>
				</g>
			</g>
			<g>
				<path style="fill:#573158;" d="M1650.885,1279.764c-6.507-34.922-10.257-119.376-10.294-120.225l1.973-0.086
					c0.037,0.847,3.781,85.163,10.262,119.95L1650.885,1279.764z"/>
			</g>
		</g>
		<g>
			<g>
				<path style="fill:#FFB27D;" d="M1551.431,1189.146c-12.473,24.396-14.918,98.331-14.738,157.149
					c0.142,44.014,1.753,79.565,1.753,79.565l-14.34,9.203l-11.639-9.203c-11.023-25.286-19.6-49.843-26.158-73.461
					c-45.398-163.423,5.412-281.724,5.412-281.724S1573.229,1146.497,1551.431,1189.146z"/>
			</g>
			<g>
				<path style="fill:#EF8062;" d="M1538.446,1425.861l-14.34,9.203l-11.639-9.203c-11.023-25.286-19.6-49.843-26.158-73.461
					c10.037,0.787,26.414,0.171,50.383-6.104C1536.835,1390.31,1538.446,1425.861,1538.446,1425.861z"/>
			</g>
			<g>
				<path style="fill:#331832;" d="M1512.464,1425.858c0,0-0.351,14.011-9.832,17.963s-36.951,7.518-26.686,16.526
					c5.89,5.169,33.647,1.83,41.483,1.83c7.838,0,15.195,3.415,21.019-1.83c6.407-5.77,0-34.49,0-34.49s-6.763,3.523-12.844,3.365
					C1516.84,1428.995,1512.464,1425.858,1512.464,1425.858z"/>
			</g>
			<g>
				<path style="fill:#FFB27D;" d="M1469.903,1189.146c-12.473,24.396-14.918,98.331-14.738,157.149
					c0.142,44.014,1.753,79.565,1.753,79.565l-14.34,9.203l-11.639-9.203c-11.022-25.286-19.6-49.843-26.158-73.461
					c-45.398-163.423,5.412-281.724,5.412-281.724S1491.702,1146.497,1469.903,1189.146z"/>
			</g>
			<g>
				<path style="fill:#FFFFFF;" d="M1481.737,769.274c0,0-1.724,19.652,23.549,24.391c25.274,4.739,20.219,18.955,15.164,26.537
					c-5.055,7.582,28.749-7.266,60.025,20.851c31.276,28.117-15.164,55.602-40.438,52.127
					c-25.274-3.475-121.121-24.642-125.799-31.908c-4.677-7.266-11.129-27.184,1.641-29.896c22.86-4.856-5.068-22.602,9.787-30.631
					C1440.522,792.717,1481.737,769.274,1481.737,769.274z"/>
			</g>
			<g>
				<path style="fill:#366F90;" d="M1388.395,888.126c0,0-34.594,60.054,2.843,73.624c0,0-20.851,51.693-21.799,108.927
					c-0.948,57.234-11.373,214.248,5.687,219.934c17.06,5.687,31.264-13.901,73.926-8.214c42.662,5.686,54.252-12.005,81.508-10.11
					s60.953,19.371,60.025-18.955c-0.433-17.911-37.588-383.646-56.146-393.176c-18.559-9.531-49.559-24.203-93.063-17.783
					C1397.873,848.794,1388.395,888.126,1388.395,888.126z"/>
			</g>
			<g>
				<path style="fill:#366F90;" d="M1591.11,875.699c0,0-51.623-37.054-117.134-34.9c-65.512,2.154-68.71,38.797-68.71,38.797
					l139.783,23.779L1591.11,875.699z"/>
			</g>
			<g>
				<path style="fill:#FFB27D;" d="M1483.119,841.033c-6.421-0.688-11.999-4.718-14.553-10.649l-8.004-18.586l-2.322-5.395
					l-13.656-31.719l2.368,32.872l1.424,19.73l0.406,5.624c0.331,4.589-2.877,8.649-7.405,9.464l-0.079,0.014
					c-2.43,3.952-5.787,11.985,4.242,15.175c11.784,3.751,30.844-5.525,37.684-16.519
					C1483.188,841.041,1483.154,841.037,1483.119,841.033z"/>
			</g>
			<g>
				<path style="fill:#FFFFFF;" d="M1481.737,769.274c0,0-1.273,5.395,1.829,16.451c4.538,16.177-13.949,22.929-18.68,18.312
					c-0.585-0.571,0.191-28.085,0.191-28.085l5.909-3.511L1481.737,769.274z"/>
			</g>
			<g>
				<path style="fill:#331832;" d="M1460.597,811.254c-0.006,0.181-0.017,0.363-0.034,0.544
					c-0.783,10.596-12.118,15.546-12.118,15.546l-0.069-0.058l-1.424-19.73c3.465-1.27,8.401-2.575,11.288-1.153
					C1459.75,807.146,1460.699,808.633,1460.597,811.254z"/>
			</g>
			<g>
				<ellipse style="fill:#FFB27D;" cx="1443.092" cy="779.942" rx="30.884" ry="38.102"/>
			</g>
			<g>
				<path style="fill:#FFFFFF;" d="M1430.859,750.695c0.858,1.17-4.003,20.771,32.31,25.452
					c36.313,4.681,14.499-39.377-12.295-40.372c-38.688-1.438-44.32,24.575-40.602,33.936
					C1413.99,779.073,1430.859,750.695,1430.859,750.695z"/>
			</g>
			<g>
				<path style="fill:#FFFFFF;" d="M1459.167,769.906c0,0,14.839,15.646,9.693,31.639c0,0,8.607-9.404,8.798-12.915
					c0.191-3.511-2.097-16.188-2.097-16.188L1459.167,769.906z"/>
			</g>
			<g>
				<path style="fill:#FFB27D;" d="M1469.846,785.688c-3.498,3.34-8.39,3.683-10.926,0.765c-2.536-2.918-1.756-7.991,1.743-11.332
					c3.498-3.34,8.39-3.683,10.926-0.765C1474.124,777.275,1473.344,782.348,1469.846,785.688z"/>
			</g>
			<g>
				<g>
					<path style="fill:#080435;" d="M1440.105,780.309c-0.206-0.056-0.384-0.204-0.469-0.417c-0.144-0.36,0.03-0.768,0.389-0.913
						c0.212-0.085,4.94-2.517,9.094,2.028c0.262,0.286,0.256,0.726-0.025,0.994c-0.281,0.267-0.671,0.192-0.994-0.025
						c-3.226-2.168-7.376-1.761-7.552-1.691C1440.402,780.343,1440.247,780.348,1440.105,780.309z"/>
				</g>
			</g>
			<g>
				<path style="fill:#080435;" d="M1445.663,788.029c0.053,1.676-0.889,3.065-2.105,3.104c-1.216,0.039-2.245-1.288-2.298-2.964
					c-0.053-1.676,0.889-3.065,2.105-3.104C1444.581,785.027,1445.61,786.354,1445.663,788.029z"/>
			</g>
			<g>
				<g>
					<path style="fill:#080435;" d="M1415.03,783.971c-0.212,0.027-0.432-0.043-0.592-0.207c-0.27-0.278-0.265-0.721,0.012-0.992
						c0.164-0.159,3.609-4.209,9.181-1.59c0.351,0.165,0.514,0.574,0.355,0.928c-0.158,0.354-0.547,0.433-0.928,0.355
						c-3.809-0.776-7.491,1.181-7.627,1.313C1415.318,783.889,1415.176,783.953,1415.03,783.971z"/>
				</g>
			</g>
			<g>
				<path style="fill:#080435;" d="M1423.11,788.992c0.688,1.529,0.345,3.173-0.764,3.672c-1.109,0.499-2.566-0.336-3.254-1.865
					c-0.688-1.529-0.345-3.173,0.764-3.672C1420.966,786.628,1422.423,787.463,1423.11,788.992z"/>
			</g>
			<g>
				<path style="fill:#331832;" d="M1591.11,875.699c2.576,3.726-5.973,14.446-19.095,23.944
					c-13.122,9.499-25.848,14.179-28.424,10.453c-2.576-3.726,5.973-14.446,19.095-23.944
					C1575.808,876.654,1588.534,871.974,1591.11,875.699z"/>
			</g>
			<g>
				<path style="fill:#EF8062;" d="M1456.918,1425.861l-14.34,9.203l-11.639-9.203c-11.022-25.286-19.6-49.843-26.158-73.461
					c10.037,0.787,26.414,0.171,50.383-6.104C1455.307,1390.31,1456.918,1425.861,1456.918,1425.861z"/>
			</g>
			<g>
				<path style="fill:#331832;" d="M1430.936,1425.858c0,0-0.351,14.011-9.832,17.963c-9.481,3.952-36.951,7.518-26.686,16.526
					c5.89,5.169,33.647,1.83,41.483,1.83c7.837,0,15.195,3.415,21.019-1.83c6.407-5.77,0-34.49,0-34.49s-6.763,3.523-12.844,3.365
					C1435.312,1428.995,1430.936,1425.858,1430.936,1425.858z"/>
			</g>
			<g style="opacity:0.3;">
				<path style="fill:#FFFFFF;" d="M1457.464,778.684c2.821,9.04,0.248,19.188-5.747,22.665
					c-5.995,3.477-13.142-1.033-15.963-10.073c-2.821-9.04-0.248-19.188,5.747-22.665
					C1447.496,765.134,1454.643,769.644,1457.464,778.684z"/>
			</g>
			<g style="opacity:0.3;">
				<path style="fill:#FFFFFF;" d="M1426.65,784.304c1.759,9.128-1.225,18.878-6.664,21.776
					c-5.439,2.898-11.274-2.153-13.033-11.281c-1.759-9.128,1.225-18.878,6.664-21.775
					C1419.056,770.125,1424.891,775.176,1426.65,784.304z"/>
			</g>
			<g>
				<g>
					<path style="fill:#EF8062;" d="M1447.687,802.811c-1.537,0.167-3.107-0.052-4.662-0.66c-4.167-1.632-7.578-5.789-9.359-11.407
						c-3.062-9.659-0.173-20.578,6.439-24.341c2.67-1.518,5.599-1.727,8.476-0.601c4.167,1.632,7.578,5.789,9.359,11.406l0,0
						c3.062,9.659,0.173,20.578-6.439,24.341C1450.274,802.248,1448.993,802.669,1447.687,802.811z M1444.043,766.307
						c-1.151,0.125-2.28,0.496-3.36,1.111c-6.161,3.505-8.808,13.811-5.904,22.973c1.648,5.202,4.891,9.192,8.672,10.673
						c2.535,0.993,5.121,0.811,7.473-0.528c6.161-3.505,8.808-13.811,5.904-22.973l0,0c-1.648-5.202-4.891-9.192-8.672-10.673
						C1446.784,766.352,1445.398,766.159,1444.043,766.307z"/>
				</g>
			</g>
			<g>
				<path style="fill:#D96851;" d="M1410.503,965.566c-2.659,0-5.174-0.195-7.364-0.46c-6.876-0.832-11.955-2.46-12.168-2.529
					l0.536-1.653c0.201,0.066,20.37,6.46,33.793,0.043l0.749,1.567C1421.207,964.85,1415.594,965.566,1410.503,965.566z"/>
			</g>
			<g>
				<path style="fill:#366F90;" d="M1435.975,843.377c0,0-40.364,7.922-67.683,41.102c-1.889,2.294-2.159,5.511-0.761,8.134
					c3.513,6.586,11.413,18.093,23.706,18.023C1408.454,910.537,1435.975,843.377,1435.975,843.377z"/>
			</g>
			<g>
				<path style="fill:#EF8062;" d="M1428.081,807.049c0,0,1.397-2.445,4.514-1.571c2.13,0.597,3.461-1.406,5.404-1.034
					c4.567,0.874,1.639,6.435-3.212,6.67C1429.863,811.352,1428.081,807.049,1428.081,807.049z"/>
			</g>
			<g>
				<g>
					<path style="fill:#020202;" d="M1432.47,808.468c-3.287,0-5.868-1.205-5.914-1.228c-0.18-0.086-0.256-0.302-0.17-0.482
						c0.086-0.181,0.304-0.255,0.483-0.17c0.331,0.159,8.193,3.813,13.687-2.485c0.131-0.15,0.36-0.165,0.509-0.035
						c0.151,0.131,0.166,0.359,0.035,0.51C1438.437,807.632,1435.208,808.468,1432.47,808.468z"/>
				</g>
				<g>
					<path style="fill:#020202;" d="M1441.646,805.973c-0.18,0-0.335-0.134-0.358-0.317c-0.065-0.521-0.397-1.364-1.614-2.421
						l-0.089-0.08c-0.141-0.141-0.142-0.37-0.001-0.511c0.142-0.141,0.369-0.142,0.509-0.003c1.17,1.018,1.794,1.986,1.911,2.926
						c0.025,0.198-0.116,0.379-0.314,0.403C1441.677,805.972,1441.661,805.973,1441.646,805.973z"/>
				</g>
			</g>
			<g>
				<path style="fill:#FFFFFF;" d="M1521.667,817.394l-0.852-1.694c1.125-0.745,3.976-9.18,1.87-16.217
					c-1.883-6.29-6.967-9.489-15.111-9.508c-12.479-0.03-19.043-4.706-22.352-8.622c-3.622-4.287-4.229-8.55-4.253-8.729
					l1.879-0.255c0.089,0.639,2.434,15.656,24.732,15.71c11.901,0.029,15.924,6.492,17.201,11.909
					C1526.541,807.451,1523.737,816.354,1521.667,817.394z"/>
			</g>
			<g>
				<g>
					<path style="fill:#EF8062;" d="M1417.691,807.505c-0.99,0-1.994-0.2-2.994-0.603c-3.896-1.568-7.227-6.017-8.91-11.901
						c-2.742-9.575-0.297-20.082,5.448-23.422c2.129-1.237,4.483-1.397,6.816-0.458c3.896,1.568,7.227,6.017,8.91,11.901l0,0
						c2.742,9.574,0.297,20.082-5.448,23.423C1420.298,807.15,1419.008,807.505,1417.691,807.505z M1415.062,771.688
						c-1.118,0-2.211,0.3-3.24,0.899c-5.313,3.088-7.516,12.998-4.913,22.092c1.586,5.541,4.66,9.705,8.225,11.14
						c1.984,0.798,3.988,0.666,5.793-0.385c5.313-3.089,7.516-12.999,4.913-22.092l0,0c-1.585-5.54-4.66-9.705-8.224-11.14
						C1416.761,771.859,1415.905,771.688,1415.062,771.688z"/>
				</g>
			</g>
			<g>
				<g>
					<path style="fill:#331832;" d="M1425.877,787.206c-0.324,0-0.644-0.143-0.859-0.418c-0.371-0.474-0.287-1.159,0.187-1.529
						c0.152-0.118,3.785-2.891,9.673-1.546c0.587,0.134,0.953,0.718,0.819,1.305c-0.133,0.587-0.719,0.954-1.304,0.82
						c-4.889-1.118-7.817,1.115-7.846,1.138C1426.348,787.13,1426.111,787.206,1425.877,787.206z"/>
				</g>
			</g>
			<g>
				<g>
					<g>
						<path style="fill:#FFB27D;" d="M1497.795,1011.222l-0.437-26.699c-0.06-3.648,2.748-6.707,6.387-6.967
							c18.508-1.324,31.463-7.064,38.561-17.102c9.855-13.938,8.816-35.586,6.07-50.599c-1.405-7.683,1.131-12.821,10.411-17.745
							c0,0,7.985-4.392,17.829-6.069c3.944-0.672,7.859,0.913,8.876,4.782c1.592,6.055,3.654,15.475,4.637,26.56
							c2.335,26.327-2.742,49.228-14.685,66.227c-14.658,20.864-38.286,32.408-70.301,34.369
							C1501.212,1018.22,1497.859,1015.16,1497.795,1011.222z"/>
					</g>
				</g>
				<g>
					<path style="fill:#E9845C;" d="M1565.857,976.202c-1.198,0-2.273-0.354-3.135-1.048c-1.341-1.08-1.987-2.842-1.816-4.96
						c0.165-2.057,1.084-4.216,2.587-6.082c1.503-1.866,3.417-3.224,5.39-3.825c2.033-0.618,3.893-0.364,5.234,0.717
						c1.341,1.08,1.986,2.842,1.816,4.96c-0.165,2.057-1.084,4.216-2.587,6.083c-1.503,1.866-3.417,3.224-5.39,3.825
						C1567.229,976.092,1566.525,976.202,1565.857,976.202z M1570.978,960.846c-0.578,0-1.195,0.096-1.836,0.291
						c-1.804,0.549-3.565,1.803-4.957,3.532c-1.392,1.729-2.243,3.716-2.394,5.596c-0.146,1.817,0.382,3.307,1.488,4.198
						c1.105,0.89,2.674,1.09,4.418,0.559c1.804-0.549,3.565-1.803,4.957-3.532l0,0c1.393-1.729,2.243-3.716,2.394-5.596
						c0.146-1.817-0.382-3.307-1.488-4.198C1572.861,961.132,1571.976,960.846,1570.978,960.846z"/>
				</g>
				<g>
					<g>
						<path style="fill:#EF8062;" d="M1339.592,933.367c14.872-38.013,48.799-71.444,107.171-48.607
							c38.013,14.872,57.872,60.039,46.899,99.355c-13.338,47.793-52.146,64.774-109.32,48.957
							C1345.001,1022.189,1320.999,980.891,1339.592,933.367z"/>
					</g>
					<g style="opacity:0.5;">
						<path style="fill:#FFB27D;" d="M1421.776,1029.182c-10.081,0-21.177-1.644-33.2-4.97
							c-17.184-4.754-30.904-15.878-38.634-31.324c-8.313-16.612-8.631-36.646-0.897-56.415c5.129-13.11,14.957-30.897,32.65-41.183
							c17.341-10.083,37.988-10.557,61.366-1.411c32.578,12.747,51.066,51.845,41.213,87.157
							C1475.43,1012.72,1453.682,1029.182,1421.776,1029.182z M1353.178,938.09c-7.271,18.582-7.01,37.338,0.733,52.811
							c7.16,14.308,19.891,24.619,35.848,29.034c23.746,6.568,43.586,6.428,58.971-0.42c15.303-6.813,25.824-20.16,31.269-39.672
							c9.259-33.181-8.036-69.891-38.556-81.831c-22.055-8.629-41.407-8.254-57.519,1.114
							C1367.338,908.77,1358.049,925.638,1353.178,938.09L1353.178,938.09z"/>
					</g>
					<g>
						<g>
							<path style="fill:#FFB27D;" d="M1400.24,1002.409l1.124-5.01c0.409-1.822-0.639-3.635-2.406-4.241
								c-4.161-1.427-8.043-3.581-10.891-5.961c-1.382-1.155-1.688-3.159-0.738-4.689l0.657-1.057
								c1.149-1.85,3.65-2.271,5.353-0.913c3.287,2.622,7.516,4.869,12.276,5.937c8.111,1.82,13.031-2.801,14.534-9.499
								c1.45-6.464-0.463-10.426-8.126-15.848c-10.598-7.316-20.911-15.314-18.617-25.538c2-8.911,9.505-16.682,23.058-14.083
								c1.617,0.31,3.044-1.222,3.404-2.829l1.231-5.487c0.439-1.956,2.38-3.186,4.337-2.747l0,0
								c1.956,0.439,3.186,2.38,2.747,4.337l-1.026,4.575c-0.401,1.786,0.589,3.605,2.317,4.21c3.475,1.216,6.166,2.746,8.291,4.331
								c1.523,1.136,1.886,3.268,0.855,4.864l-0.652,1.009c-1.136,1.758-3.51,2.162-5.196,0.922
								c-2.368-1.741-5.766-3.651-10.518-4.718c-8.797-1.974-13.323,2.689-14.378,7.39c-1.371,6.111,4.655,8.078,13.645,14.539
								c10.66,7.576,16.533,16.198,15.165,26.83c-1.459,11.342-9.729,17.636-24.529,16.623c-1.645-0.113-3.049,1.221-3.409,2.83
								l-1.311,5.841c-0.439,1.956-2.38,3.186-4.337,2.747l-0.114-0.026C1401.031,1006.307,1399.801,1004.365,1400.24,1002.409z"/>
						</g>
					</g>
				</g>
				<g>
					<g>
						<g>
							<path style="fill:#FFB27D;" d="M1503.745,977.557c0,0-25.832-10.858-37.866-9.358c-12.034,1.5-26.272,12.513-18.615,13.168
								c7.657,0.655,17.672-1.212,17.672-1.212s-21.209,4.994-17.893,9.448c3.316,4.454,21.719-0.067,21.719-0.067
								s-24.764,7.953-20.269,11.147c4.495,3.193,23.264-2.982,23.264-2.982s-22.744,8.32-17.436,11.907
								c5.308,3.587,18.751-6.998,22.067-2.544s22.119,18.038,35.626,10.333L1503.745,977.557z"/>
						</g>
					</g>
					<g>
						<path style="fill:#E9845C;" d="M1464.935,980.601c-0.178,0-0.346-0.106-0.416-0.281c-0.092-0.23,0.021-0.49,0.25-0.582
							c0.246-0.099,6.077-2.386,9.381-0.153c0.205,0.139,0.259,0.417,0.12,0.622c-0.14,0.205-0.42,0.258-0.622,0.12
							c-2.916-1.972-8.491,0.219-8.547,0.243C1465.046,980.592,1464.99,980.601,1464.935,980.601z"/>
					</g>
					<g>
						<path style="fill:#E9845C;" d="M1468.762,989.983c-0.174,0-0.34-0.103-0.412-0.274c-0.096-0.227,0.011-0.49,0.239-0.586
							c0.235-0.101,5.844-2.412,11.048-0.236c0.228,0.096,0.336,0.359,0.241,0.586c-0.095,0.228-0.357,0.336-0.586,0.241
							c-4.851-2.029-10.301,0.212-10.356,0.234C1468.879,989.972,1468.82,989.983,1468.762,989.983z"/>
					</g>
					<g>
						<path style="fill:#E9845C;" d="M1471.757,998.148c-0.177,0-0.345-0.106-0.415-0.281c-0.093-0.229,0.019-0.49,0.248-0.581
							c0.293-0.118,7.181-2.832,10.499-0.154c0.192,0.155,0.222,0.438,0.067,0.63c-0.156,0.193-0.438,0.222-0.63,0.067
							c-2.913-2.353-9.536,0.261-9.604,0.287C1471.87,998.138,1471.813,998.148,1471.757,998.148z"/>
					</g>
				</g>
				<g>
					<g>
						<path style="fill:#FFB27D;" d="M1332.912,1000.678c0,0,2.147,11.311,11.673,9.357c12.137-2.491,24.781-18.19,17.068-16.727
							c-6.838,1.298-16.089,5.659-16.089,5.659s23.37-11.446,19.397-15.917c-3.974-4.471-23.938,5.668-23.938,5.668
							s21.729-13.479,16.733-16.424c-4.996-2.944-23.18,6.139-23.18,6.139s21.92-11.924,16.046-15.2
							c-5.874-3.275-15.027,3.687-20.117,6.285c-4.81,2.455-5.8,8.336-3.165,13.221c0,0,0.033,6.443,2.492,9.183
							c0.943,1.051,0.421,2.839,0.738,3.806C1331.176,997.58,1332.912,1000.678,1332.912,1000.678z"/>
					</g>
				</g>
			</g>
		</g>
	</g>
</g>
</svg>
